<svg width="492" height="423" fill="none" xmlns="http://www.w3.org/2000/svg"><path d="M370.527 63.5625C477.369 158.464 493.849 239.062 488.704 267.509c-22.831 127.125-122.839 150.348-152.745 152.036-39.553 2.169-103.063-.724-144.867.401-114.3979 6.509-160.7842-57.696-169.6273-90.562C-33.202 194.866 43.4118 91.2857 88.5922 56.3303 204.598-44.3572 324.945 19.2053 370.527 63.5625z" fill="#F7BC28"/><path d="M186.429 165.777c5.628-12.295 12.622-23.866 19.536-35.438l57.882-96.0266c5.226-8.5982 13.265-18.4821 22.59-17.6785 1.287.1607 2.332 1.2857 2.171 2.6517 0 .1608-.081.3215-.081.5625-4.662 13.6608-12.46 26.1161-22.67 36.3215-2.412 2.3303-5.226 3.9375-5.628 5.1428-.241.8036-3.376 9.4822-4.502 13.0982-13.184 40.8214-25.645 74.0894-31.594 88.3124" fill="#FFC9A0"/><path d="M229.68 156.214c-6.511 19.688-8.602 30.054-18.731 35.679l-53.622 20.169c8.683-16.553 19.536-39.535 29.585-55.285l42.768-.563z" fill="#307549"/><path d="M177.827 166.902c17.285-.643 34.569-.402 51.773.803 1.286 0 2.412-1.125 2.412-2.41-.081-1.286-1.126-2.331-2.412-2.411-17.204-1.206-34.488-1.447-51.773-.804-3.135.081-3.135 4.982 0 4.822z" fill="#153A23"/><path d="M183.455 203.062c-2.492-11.008-2.171-25.312 5.467-37.366 1.688-2.651-.965-4.419-2.412-1.687-6.592 12.455-10.371 14.786-10.532 40.5 0 3.134 3.296 2.973 3.216-.161l4.261-1.286zM193.665 197.036c4.019-10.527 7.878-21.777 12.541-32.063.563-1.205.804-1.687-.483-2.491-1.205-.643-2.652-.241-3.376.884-6.512 11.732-7.878 27.964-13.425 32.384-1.046.804.482 2.652 1.688 3.054 1.286.241 2.653-.483 3.055-1.768zM201.945 198.08c1.608-2.33 4.18-3.776 6.271-5.544 2.331-1.929 1.206-4.902 3.215-7.152 3.538-3.857 6.834-8.438 9.808-18.322.884-3.053-5.145-4.419-5.708-1.285-1.688 9.241-3.376 12.053-6.27 17.518-1.287 2.491-3.136 4.66-5.306 6.348-2.332 1.848-4.583 3.455-6.271 5.946-.643 1.206-.241 2.652.885 3.375 1.205.643 2.733.241 3.376-.884z" fill="#153A23"/><path d="M160.302 246.937c-26.047.563-72.9157-8.839-98.9628-8.999-16.4-.161-27.7353 3.776-48.798-9.081-2.251-1.286-4.2608-2.893-5.86864-4.902-.96471-1.285.24117-3.214 1.68823-2.651 14.63141 6.267 32.23721-3.697 47.19021 2.33 10.9333 4.42 72.112-.723 107.324-8.518M422.139 119.17c-14.149 27.884-29.343 55.285-45.502 82.125-10.29-10.849-13.425-13.259-26.208-25.232l1.046 60.026 21.947 12.456c4.26 2.41 8.762 4.901 13.666 4.741 10.371-.322 16.481-11.572 20.098-21.295 12.3-33.107 21.626-72.161 27.736-106.955l-12.783-5.866zM277.755 273.536c3.778 45.321 5.547 77.062 8.119 132.91 4.261-.241 12.461.161 16.561 1.206 4.985-37.447 11.496-95.786 16.32-135l-41 .884z" fill="#FFC9A0"/><path d="M162.473 206.036c38.829-18.482 80.472-35.197 121.874-46.929-.241 30.697-1.206 48.616-1.045 87.911-38.026.241-75.971-1.607-113.755-5.464l-7.074-35.518z" fill="#39B55D"/><path d="M351.475 236.089c-7.316-4.178-17.606-11.169-26.691-16.553-3.135 22.018-2.974 31.259-6.029 53.196-12.622 0-28.378.723-41 .804l-.241-112.42c23.233-9.402 50.888-7.152 72.996 14.946l.965 60.027z" fill="#153A23"/><path d="M168.582 239.625c14.391.08 21.947-.482 36.338.241 10.451.562 22.349.402 49.602 1.929 9.888.562 21.786.241 31.674.241 3.135 0 3.135-7.795 0-7.795-16.722 0-33.443 2.652-50.165 2.17-14.229-.402-28.539-.965-42.768-1.286-8.281-.241-16.481-.322-24.761-.402-3.055 0-3.135 4.902.08 4.902zM153.469 226.045c19.133.642 38.186-.643 57.319-1.286 18.169-.563 37.383.482 55.471-.482 7.959-.402 18.972-4.741 22.992-2.17 2.653 1.688 3.135-2.812 0-2.893-13.265-.643-32.077.643-47.673 1.366-19.133.884-37.302.723-56.515.884-10.532.081-21.063.081-31.594-.241-3.136-.161-3.136 4.741 0 4.822zM150.414 211.259c18.008.08 30.147 4.821 47.913 1.928 17.526-2.892 36.177-3.937 61.822-4.098 10.129-.08 18.249-2.491 28.378-3.294 1.287-.081 2.412-1.125 2.412-2.492 0-1.205-1.125-2.812-2.412-2.41-4.984 1.285-26.207 4.982-53.943 3.535-17.927-.883-43.251 3.697-61.178 4.018-10.13.161-12.863-2.009-22.992-2.089-3.136.08-3.136 4.902 0 4.902zM170.029 195.027c30.791-1.125 58.928.08 89.718-1.688 8.763-.482 20.098-3.294 28.861-3.937 1.366 0 2.412-1.125 2.412-2.491s-1.126-2.411-2.412-2.411c-30.71 2.089-58.043 5.946-92.371 4.58-8.762-.321-17.525.643-26.288.965-3.055.241-3.135 5.143.08 4.982zM218.345 175.821c20.982.081 42.045-.482 63.028-1.687 5.868-.322 11.817-.723 17.686-1.205 1.366 0 2.412-1.125 2.412-2.411 0-1.366-1.126-2.411-2.412-2.491-20.983 1.607-41.965 2.571-62.947 2.812-5.949.081-11.818.081-17.767.081-3.216.08-3.216 4.901 0 4.901z" fill="#153A23"/><path d="M46.5471 150.268c-2.251.803-4.1804 2.169-5.5471 4.098-3.1353 4.179-3.0549 13.018 2.6529 15.67 3.5373 1.687 10.0491 2.33 13.0236-.241 2.4921-2.009 4.4215-4.661 5.547-7.715" fill="#32142A"/><path d="M71.3079 184.5l10.4509 6.509c.3216.161.6432.402.8844.723.2411.402.3215.884.3215 1.366l.402 13.741c.0804.482 0 1.045-.3216 1.447-.2412.241-.6431.482-.9647.562-3.9392 1.286-7.8784 2.491-11.898 3.536l1.1255-27.884z" fill="#E48929"/><path d="M72.3529 173.25c.4824 15.027.2412 30.134-.8039 45.161-.0804 1.044-.2412 2.25-1.0451 3.053-.8039.804-2.0902.804-3.2961.804-19.9372.08-39.8745.161-59.81171.08-.56275.081-1.20589-.08-1.68824-.402-.32157-.401-.56274-.883-.56274-1.446-2.33138-15.348-2.57255-31.018-.72353-46.446l67.93132-.804zM87.2255 185.786c.0804 8.839 0 17.678-.0804 26.437 0 .563 0 1.206-.0804 1.768-.0804.482-.1608.482-.3216.482-1.849.081-3.7784.081-5.6274.081-.0804 0-.0804 0-.1608-.242 0-.241-.0804-.562-.0804-.803-.2412-9-.2412-18.723-.0804-27.804l6.4314.081z" fill="#32142A"/><path d="M45.5824 168.83c3.4569.322 6.9941.724 10.1294-.562s5.949-3.857 6.6725-7.152c.8844-3.777-1.0451-7.875-4.3411-10.045-3.4569-2.089-7.6373-2.491-11.4157-1.044-1.0451.321-2.0098.884-2.8137 1.527C42.1255 153 41.402 155.25 41 157.42c-.4823 2.089-.4019 4.259.0804 6.348.6432 2.169 2.1706 3.857 4.2608 4.661" fill="#E48929"/><path d="M46.0647 175.178c2.8138-4.66 5.2255-9.562 7.3157-14.624l-3.4569-.081c-.4019 0-.7235 0-1.045.161-.2412.161-.4824.402-.6432.643-3.2157 4.58-4.9039 9.964-7.9588 14.625M15.2745 141.589c-3.0549 1.125-5.70784 3.215-7.55686 5.866-4.18039 5.947-3.77843 18.161 4.26076 21.697 4.9843 2.169 13.9883 2.812 18.0883-.804 3.4568-2.893 6.0294-6.669 7.396-10.928" fill="#32142A"/><path d="M7.79807 161.277c-1.36667-2.732-.88431-5.947-.40196-8.92.48235-2.973 1.44706-6.187 3.77839-8.357 1.1255-.964 2.4922-1.768 3.8589-2.33 5.1451-2.009 11.4156-1.849 16.0784 1.044 4.6627 2.893 7.5569 8.599 6.4314 13.902-.9647 4.58-4.7432 8.277-9.1647 10.286.0804 0-15.6765 4.339-20.58043-5.625z" fill="#E48929"/><path d="M27.8157 147.857c-.1608-.321-.1608-.723-.0804-1.125 0-.402.1608-.723.4824-.964.1607-.081.3215-.241.4823-.322.6431-.241 1.3667-.241 1.9294.161.5628.322.8843 1.045.8039 1.688-.1607.562-.5627 1.044-1.1254 1.205 0 0-1.9295.562-2.4922-.643zM30.951 155.813c-.0804-.322-.0804-.724 0-1.125 0-.402.1608-.724.4823-.965.1608-.16.3216-.241.4824-.321.6431-.241 1.3667-.241 1.9294.161.5627.321.8843 1.044.8039 1.687-.1608.563-.5627 1.045-1.1255 1.205 0 .081-1.9294.563-2.5725-.642zM18.9726 145.446c-.1608-.321-.1608-.723-.0804-1.125 0-.401.1607-.723.4823-.964.1608-.08.3216-.241.4824-.321.6431-.241 1.3666-.241 1.9294.16.5627.322.8843 1.045.8039 1.688-.1608.562-.5627 1.045-1.1255 1.205 0 0-1.9294.563-2.4921-.643zM10.6922 149.705c-.1608-.321-.1608-.723-.0804-1.125 0-.401.1608-.723.4823-.964.1608-.08.3216-.241.4824-.321.6431-.241 1.3666-.241 1.9294.16.5627.322.8843 1.045.8039 1.688-.1608.562-.5627 1.045-1.1255 1.205.0804 0-1.849.563-2.4921-.643zM9.4059 158.464c-.16078-.321-.16078-.723-.08039-1.125 0-.402.16078-.723.48235-.964.16079-.08.32154-.241.48234-.321.6432-.242 1.3667-.242 1.9294.16.5628.322.8843 1.045.8039 1.688-.1607.562-.5627 1.044-1.1254 1.205.0804 0-1.8491.563-2.4922-.643zM16.4 164.411c-.1608-.322-.1608-.724-.0804-1.125 0-.402.1608-.724.4823-.965.1608-.08.3216-.241.4824-.321.6431-.241 1.3667-.241 1.9294.161.5628.321.8843 1.044.8039 1.687-.1608.563-.5627 1.045-1.1255 1.206 0 .08-1.9294.562-2.4921-.643zM25.8863 162.563c-.1608-.322-.1608-.724-.0804-1.125 0-.402.1607-.724.4823-.965.1608-.08.3216-.241.4824-.321.6431-.241 1.3666-.241 1.9294.161.5627.321.8843 1.044.8039 1.687-.1608.563-.5627 1.045-1.1255 1.205.0804.081-1.849.563-2.4921-.642zM55.9529 154.929c-.0804-.242-.0804-.483 0-.724 0-.401.2412-.723.6432-.884.4823-.16.9647-.08 1.3666.161.402.241.5628.723.4824 1.205-.1608.402-.402.643-.8039.804 0-.08-1.3667.241-1.6883-.562zM57.9628 160.473c-.0804-.241-.0804-.482 0-.723 0-.241.1607-.482.3215-.723.0804-.081.2412-.161.3216-.161.4824-.161.9647-.161 1.3667.08.4019.241.6431.724.4823 1.206-.1608.402-.4019.643-.8039.803.0804 0-1.2863.402-1.6882-.482zM49.7627 153c-.0803-.241-.0803-.482 0-.723 0-.241.1608-.482.3216-.724.0804-.08.2412-.16.3216-.16.4823-.161.9647-.161 1.3667.08.4019.241.5627.723.4823 1.205-.1608.402-.402.643-.8039.804.0804.08-1.2863.402-1.6883-.482zM43.9745 155.893c-.0804-.241-.0804-.482 0-.723 0-.241.1608-.483.3216-.724.0804-.08.2412-.16.3216-.16.4823-.161.9647-.161 1.3666.08.402.241.5628.723.4824 1.205-.1608.402-.402.643-.8039.804.0804 0-1.2863.321-1.6883-.482zM42.9294 161.92c-.1608-.483 0-1.045.3216-1.447.0804-.08.2412-.161.3215-.161.4824-.16.9648-.16 1.3667.081.402.241.6432.723.4824 1.205-.0804.402-.402.723-.804.884.0804 0-1.2862.322-1.6882-.562zM47.6725 166.179c-.0804-.242-.0804-.483 0-.724 0-.241.1608-.482.3216-.723.0804-.08.2412-.161.3216-.161.4823-.16.9647-.08 1.3666.081.402.241.5628.723.4824 1.205-.1608.402-.402.643-.8039.804.0804 0-1.2863.401-1.6883-.482zM54.3451 165.054c-.0804-.242-.0804-.483 0-.724 0-.241.1608-.482.3216-.723.0803-.08.2411-.161.3215-.161.4824-.16.9647-.16 1.3667.081s.5627.723.4823 1.205c-.1607.402-.4019.643-.8039.804 0 .08-1.2863.401-1.6882-.482z" fill="#32142A"/><path d="M36.0961 175.179l-13.0236-21.134c-.1607-.402-.4823-.724-.8843-.884-.4019-.161-.8843-.161-1.2863 0l-3.0549.562c4.8236 7.152 9.0844 14.706 12.5412 22.581" fill="#32142A"/><path d="M210.869 244.929c3.055-4.822 4.582-10.527 4.341-16.233 0 0-2.734 9-19.214 15.429l14.873.804z" fill="#307549"/><path d="M324.784 219.536l-23.474-14.545 21.384 31.179 2.09-16.634z" fill="#122D1C"/><path d="M131.361 155.33c1.045 19.688-4.743 39.134-4.985 58.822-.08 1.044.081 2.169.402 3.134.885 2.089 3.457 2.973 5.789 3.294 6.994.965 14.068-1.125 20.741-3.616 3.055-1.125 6.27-2.491 8.2-5.062 1.929-2.572 2.331-6.188 2.572-9.482 1.206-15.991 2.493-42.67 1.769-58.741l-34.488 11.651z" fill="#FFC9A0"/><path d="M170.753 181.607c7.959-14.866 15.435-31.661 11.737-45.321-.643-2.893-2.09-5.465-4.261-7.554-5.145-4.661-13.184-3.375-20.017-2.009-9.004 1.848-19.777 2.893-25.967-3.857-1.367-1.446-2.412-3.214-3.939-4.339-1.528-1.125-4.02-1.607-5.467-.241-.965.884-1.206 2.33-1.286 3.616-1.126 10.527.321 21.616 6.11 30.455 5.788 8.839 16.4 14.947 26.851 13.42 1.125-.161 2.411-.322 3.135.482.322.402.482.804.643 1.286l4.261 14.062h8.2z" fill="#32142A"/><path d="M160.543 176.143c3.859-2.813 9.326-2.009 12.22 1.928 2.09 2.813 2.251 6.59.482 9.563-2.572 4.339-8.361 5.625-13.425 5.545l.723-17.036z" fill="#FFC9A0"/><path d="M177.425 167.946c-20.098.643-45.984-13.339-45.984-13.339.081 2.973-.08 7.554-.08 10.447 13.586 1.607 29.986 9 43.653 8.196 0 0 1.286-2.491 2.411-5.304z" fill="#39B55D"/><path d="M126.376 149.786c2.412 5.785 7.557 10.205 13.346 12.696 5.788 2.491 12.139 3.295 18.49 3.536 1.447.08 2.894 0 4.341-.161 1.929-.482 3.859-1.205 5.627-2.17l-41.804-13.901z" fill="#32142A"/><path d="M351.475 236.089l3.456 2.009-3.456-60.991-1.046-1.045 1.046 60.027zM277.755 273.536l.241 2.732 40.357-.563.321-2.973-40.919.804z" fill="#EFB086"/><path d="M154.031 202.821c8.04 1.286 21.063 2.491 29.102 3.777 6.271.964 12.702 2.009 18.41 4.661 5.708 2.652 11.014 7.232 12.943 13.259.643 1.848.804 3.857.563 5.786-.965 5.946-6.994 9.482-12.541 11.812-15.516 6.589-31.996 10.366-48.798 11.25l.321-50.545z" fill="#39B55D"/><path d="M165.206 253.366c-.724-17.277-.322-34.554 1.286-51.83 0-1.286-1.125-2.411-2.412-2.411-1.366 0-2.411 1.125-2.492 2.411-1.608 17.196-2.01 34.553-1.286 51.83.161 3.134 5.065 3.134 4.904 0z" fill="#153A23"/><path d="M164.161 215.116c6.431-.402 12.943-.402 19.374 0 6.914.563 15.596 3.295 22.269 5.223 2.974.723 5.788 1.929 8.361 3.375 2.733 1.607 5.145-2.571 2.492-4.259-5.386-3.214-11.898-4.741-18.008-5.785-7.476-1.286-14.953-1.929-22.51-2.09-3.778-.08-7.557-.08-11.335.161-3.135.161-3.135 5.063 0 4.902l-.643-1.527zM163.759 231.107c36.578-1.527 51.451-2.411 55.872-1.045 1.287.402 2.412-1.044 2.412-2.41 0-1.286-1.125-2.652-2.412-2.411-19.294 2.893-37.221 1.688-55.872 1.045-3.135-.081-3.135 4.821 0 4.821zM163.678 244.527c14.31.643 29.102.964 43.171-2.17 3.618-.803 7.155-1.928 10.612-3.455 1.125-.723 1.527-2.17.884-3.375-.723-1.125-2.17-1.527-3.376-.884-5.708 2.571-12.14 3.696-18.33 4.42-7.155.803-13.104 2.571-20.339 2.491-3.778-.081-9.567-.402-13.345-.563-3.055-.08-2.412 3.375.723 3.536z" fill="#153A23"/><path d="M128.869 219.455l25.162-7.473v4.902l-25.162 2.571zM164.724 192.777s-2.895.08-4.1-.402l3.939 2.411.161-2.009z" fill="#EFB086"/><path d="M162.231 190.045c2.01.241 4.02-.241 5.708-1.286 1.447-.884 2.332-2.411 2.573-4.098.241-1.607.08-3.295-.643-4.822-.644-1.366-1.849-2.25-3.296-2.571-1.689-.322-3.538-.08-5.065.723-.402.241-.563.804-.322 1.205.241.402.724.563 1.126.322 1.768-.804 4.743-1.125 5.868.884.563 1.125.804 2.411.644 3.616 0 1.205-.563 2.33-1.448 3.134-1.527 1.044-3.376 1.527-5.145 1.286-.482 0-.884.401-.884.883 0 .322.402.643.884.724z" fill="#32142A"/><path d="M162.633 186.429c.643 0 1.367-.081 1.93-.402.643-.322 1.045-.804 1.286-1.527.322-.723.322-1.446 0-2.17-.241-.482-.724-.964-1.206-1.125-.723-.321-1.447-.401-2.17-.401-.483 0-.885.401-.885.884 0 .482.402.883.885.883H163.276c.161 0 .322.081.483.081l.161.08h-.081.081c.08 0 .16.081.16.081h.081-.081l.242.241c-.081-.081-.081-.081 0-.081l.08.081v.08c.08.08 0 .08 0-.08 0 .08 0 .08.08.16 0 .081 0 .081 0 0v.161c0 .08 0 .161-.08.241-.08.161-.08.322-.161.402v-.08l-.08.08c0 .08-.081.161-.081.161l.081-.081-.081.081-.08.08c.08-.08.08-.08.08 0l-.16.08h-.081c-.08.081-.321.081-.402.081-.08 0-.321.08-.08 0h-.724c-.482.08-.804.482-.804.964.081.643.402.964.804 1.045z" fill="#32142A"/><path d="M130.155 178.875c-1.206.884-4.984 9.723-5.628 16.152-.08 1.125.724 2.169 1.93 2.25 1.929.16 3.778.16 5.708 0 .241 0 .482-.081.723-.161.241-.321.402-.643.322-1.045l-3.055-17.196z" fill="#E48929"/><path d="M260.551 60.4286l-7.878 6.5089h5.627l2.251-6.5089z" fill="#EFB086"/><path d="M395.931 168.027l27.173 12.455s8.119-29.571 11.898-55.446l-13.908-3.697-25.163 46.688z" fill="#39B55D"/><path d="M417.476 129.295c3.538-6.268 13.265-.322 15.275 2.41 2.09 2.813 5.145-2.089 7.557-4.58 2.814-2.973 13.184-5.786 20.419-7.473 4.502-1.045 9.004-2.25 13.587-3.134 3.135-.643 9.406-.964 11.013-2.813 5.226-5.866-6.592-6.75-9.807-6.83-10.612-.402-21.224-.161-31.836-.402-8.28-.16-22.509-.321-25.002 1.768-4.582 3.938-5.708 13.661-6.592 19.205-.965 6.108 2.251 7.393 5.386 1.849z" fill="#153A23"/><path d="M400.835 169.554c.804-2.492 1.849-4.822 3.136-7.152.321-.563.16-1.366-.402-1.688-.563-.321-1.367-.16-1.689.402-1.286 2.491-2.411 5.063-3.296 7.714-.161.643.241 1.286.885 1.527.482.241 1.125-.161 1.366-.803zM405.739 172.125c.643-2.652 1.769-5.223 3.296-7.473.322-.563.161-1.366-.482-1.688-.563-.321-1.367-.16-1.688.482-1.689 2.411-2.894 5.143-3.538 8.036-.16.643.242 1.286.885 1.527.643.161 1.366-.241 1.527-.884zM411.206 174.134c0-.161 0-.161 0 0v-.322c0-.08.08-.321.08-.482.081-.321.081-.562.161-.884.161-.642.322-1.205.563-1.848.161-.562.402-1.125.723-1.607.322-.562.643-1.125.965-1.687.322-.563.161-1.367-.402-1.688-.563-.321-1.286-.161-1.688.482-1.608 2.411-2.573 5.143-2.894 8.036 0 .643.562 1.205 1.206 1.205.643 0 1.206-.562 1.286-1.205zM416.11 177.268c.241-2.411.804-4.822 1.688-7.152.161-.643-.241-1.286-.884-1.527-.643-.16-1.287.241-1.528.884-.964 2.491-1.608 5.143-1.768 7.795 0 .643.562 1.205 1.206 1.205.723 0 1.286-.482 1.286-1.205zM420.049 179.598l2.975-7.393c.16-.643-.242-1.285-.885-1.526-.643-.161-1.286.241-1.527.883l-2.975 7.393c-.161.643.241 1.286.885 1.527.643.08 1.366-.241 1.527-.884z" fill="#227B3D"/><path d="M308.786 356.705c-2.251 18.804-3.698 32.063-5.949 48.215l-16.962 1.607c-.965-21.215-1.849-34.554-2.412-50.224l25.323.402z" fill="#39B55D"/><path d="M303.32 400.58c-.644 4.661-.885 9.322-1.528 13.983-.563 4.258-5.467 3.937-8.682 4.098-8.602.482-14.23.643-21.063.643-4.422.16-8.843.241-13.265.321h-6.672c-1.447 0-4.663.161-5.708-.321-2.653-1.286-2.573-6.831.402-7.875 5.145-1.768 11.174-1.527 16.561-2.331 5.708-.723 11.255-2.169 16.641-4.178 2.894-1.125 5.868-2.572 8.923-2.25 2.01.241 3.859 1.205 5.789 1.446 1.688.241 3.698-.321 4.582-1.687.402-.724.884-1.286 1.447-1.849 1.286-1.125 2.894-2.25 2.573 0z" fill="#153A23"/><path d="M286.598 364.42c-.241-2.733-.241-5.384 0-8.116 0-.643-.563-1.206-1.206-1.206s-1.206.563-1.206 1.206c-.241 2.732-.161 5.383 0 8.116-.08.642.322 1.285 1.045 1.366.644.08 1.287-.322 1.367-1.045v-.321zM292.145 364.5c-.482-2.571-.482-5.223 0-7.875.161-.643-.241-1.286-.884-1.527-.643-.161-1.286.241-1.528.884-.562 3.054-.562 6.107 0 9.161.161.643.885 1.044 1.528.884.643-.161 1.045-.804.884-1.527zM297.933 364.5c-.723-2.33-.884-4.821-.482-7.232.161-.643-.241-1.286-.884-1.527-.643-.161-1.287.241-1.528.884-.482 2.812-.321 5.786.483 8.518.16.643.884 1.044 1.527.884.643-.161 1.126-.884.884-1.527zM303.802 365.384c-.804-2.33-1.286-4.741-1.367-7.232.081-.643-.321-1.286-1.045-1.366-.643-.081-1.286.321-1.366 1.044v.402c.08 2.652.562 5.304 1.447 7.875.16.643.884 1.045 1.527.884.643-.161.965-.964.804-1.607zM308.223 365.946l-.241-7.955c.081-.643-.321-1.286-1.045-1.366-.643-.08-1.286.321-1.366 1.045v.401l.241 7.956c-.081.643.321 1.286 1.045 1.366.643.08 1.286-.322 1.366-1.045v-.402z" fill="#227B3D"/><path d="M275.504 174.777c8.682-2.572 17.204-4.581 26.047-4.822 11.014-.321 21.867 2.491 31.273 8.116 6.913 4.34 13.184 9.724 18.409 15.992.965.964 2.493.964 3.457 0 .965-.965.965-2.492 0-3.456-9.164-10.607-20.661-19.286-34.166-23.223-10.451-2.973-21.304-2.893-31.916-.964-4.824.964-9.647 2.169-14.39 3.616-2.975.964-1.689 5.705 1.286 4.741z" fill="#307549"/><path d="M461.049 103.741c-12.782 4.741-28.298 2.732-39.553-10.0445-6.753-7.7143-8.521-17.9197-6.592-27.8036 5.869-29.9732 49.843-37.5268 64.957-10.2857 11.898 21.616-.804 41.4643-18.812 48.1338z" fill="#BBD1CE"/><path d="M142.375 175.018h.723l.402.08h-.161c.483.161.965.161 1.447.322.483.16.885.321 1.287.482.321.08-.483-.241-.081-.081l.322.161c.241.081.482.241.723.322l1.206.723.241.161c.402.321-.321-.242-.08-.081.241.161.322.322.563.482.402.322.723.643 1.045 1.045l.161.241c.241.321.08.08-.081-.08.161.241.322.401.483.643.643 1.125 2.17 1.526 3.376.883 1.206-.642 1.527-2.169.884-3.375-2.733-4.098-7.315-6.669-12.3-6.83-1.366 0-2.411 1.125-2.492 2.491 0 1.286 1.045 2.331 2.332 2.411zM142.053 180.964c-.08.081-.08.161-.161.241-.482 1.045-1.527 3.697-.723 4.741.804 1.045 2.331.724 3.215-.16 1.287-1.447 1.287-3.616 0-5.063-.402-.482-1.045-.723-1.688-.482-.241.241-.482.482-.643.723zM145.269 192.134c2.009-1.286 3.617-3.214 4.502-5.464.16-.482-.161-.884-.563-1.045-.482-.08-.884.161-1.045.563l-.081.08-.08.08-.161.322c-.08.241-.241.482-.402.723-.161.241-.241.482-.402.643l-.241.321c.081-.161-.08.081-.08.081l-.081.16c-.321.402-.723.804-1.125 1.125l-.322.241-.161.161c.081-.08.001 0-.08 0-.241.161-.402.321-.643.482-.402.241-.643.723-.402 1.125s.724.643 1.125.402c.161 0 .161-.08.242 0zM148.565 193.741c1.045-.643 2.01-1.446 2.733-2.411.161-.16.161-.401.08-.643-.08-.241-.241-.401-.401-.482-.161-.08-.402-.16-.644-.08-.241.08-.402.241-.482.402l-.08.16.16-.16c-.402.482-.884.964-1.366 1.366l.161-.161c-.322.241-.644.482-.965.643-.402.241-.563.804-.322 1.205.161.322.724.482 1.126.161z" fill="#32142A"/><path d="M462.657 81.3214c-5.226 2.0893-9.808 4.6607-14.953 6.75-4.181-4.0982-9.245-6.5089-13.426-10.6875.242.8036-.241-.8036 0 0 1.126-5.3036 2.412-10.7678 3.538-16.1518 4.984-1.2053 9.004-2.7321 13.988-3.7768l-.643-.0803c4.582 3.375 8.843 5.2232 13.345 8.5982-.402-.8839.402.9643 0 0-.804 4.9821-1.045 10.3661-1.849 15.3482-.241 1.2857-1.93 2.4107-.563 2.7322 1.206.3214 2.814-.4018 3.055-1.6875l2.331-14.7858c.242-1.0446-.241-2.1696-1.125-2.7321l-7.477-5.5446-4.743-3.5358c-.402-.3214-.804-.6428-1.206-.8839-1.205-.8036-2.733-.2411-4.019.0804-4.261 1.0446-8.441 2.6518-12.702 3.6964-.804.2411-1.528.8839-1.688 1.6875l-2.01 9.8839-1.126 5.3036c-.161.4821-.241.9643-.241 1.4464 0 1.9286 2.733 3.6161 4.1 4.6607 3.377 2.6518 7.075 5.0625 10.21 8.1161.643.6429 1.527.8839 2.412.6429l15.676-6.2679c1.286-.4018 2.01-1.6875 1.688-3.0536-.402-1.2053-1.366-.241-2.572.2411z" fill="#153A23"/><path d="M462.094 83.0893c.241.0803.884.4017 0 0l.563.241c2.733 1.3661 5.306 3.2143 8.039 4.6607 1.126.6429 2.332 1.2054 3.537 1.6072.644.2411 5.467.8036 3.779-.4018-1.528-1.0446-4.824-2.8929-6.753-4.1786-2.573-1.6875-5.065-3.616-7.396-5.625 2.974 2.5715-.402 2.5714-2.09 3.5357.16.0804.241.1608.321.1608zM443.122 102.214c1.527-4.6605 3.698-8.9194 5.386-13.4997.482-1.2054-.563.5625-1.769.3214-1.366-.3214-1.527-1.9286-2.01-.6429-1.688 4.5804-2.331 8.4375-3.858 13.0982-.402 1.205-.804 2.411.402 2.732 1.205.322 1.045-.161 1.447-1.446l.402-.563zM432.831 75.2142c-.884.1607-1.688.4018-2.572.8036-1.769.5625-3.537.8839-5.386.9643-1.287.1607-2.573.3214-3.859.4821-.885.0804-2.412.4822-3.296.6429-.885.1607-1.769.4821-.402 1.2857.402.1607.804.2411 1.206.1607 2.733 0 5.466 0 8.2.2411 2.653.3214 5.386.3214 8.119 0 1.287-.1607-1.929-1.6875-2.251-2.5714-.321-.884 1.608-2.25.241-2.009zM437.414 58.5804c-.161-.0804-.322.4821-.483.4018 0 0 .563-.3214.322-.4822-.08 0-.161.5625-.322.4822-.402-.1607-.723-.3214-1.125-.5625-1.688-.8839-3.296-1.9286-4.984-2.8125-1.689-.8839-3.216-1.6875-4.824-2.4911-.643-.3214-3.055-1.6071-3.216-.8036 0 .6429.241 1.2858.724 1.6875 1.286 1.2054 2.733 2.4108 4.18 3.4554 1.367 1.2054 2.894 2.25 4.422 3.2946 1.688 1.0447 2.09 1.9286 3.939 2.5715 1.206.4018-1.125-.8036-.804-2.009.402-1.366 3.457-2.25 2.171-2.7321zM453.171 57.1339c.643-1.125 1.205-1.5268 1.447-2.7321.643-2.4911 1.607-4.8215 2.733-7.1518.804-1.5268 1.527-3.1339 2.251-4.8214.161-.5625.482-1.5268 0-2.009-.322-.3214-.965-.1607-1.286.0804-.644.4821-1.126 1.125-1.447 1.8482-1.287 2.25-2.653 4.5-3.859 6.8304-.563 1.125-1.045 2.25-1.688 3.2946-.644 1.0446-1.287 2.0893-1.93 3.1339-.643 1.0447 1.126-.4018 2.331.2411 1.206.6429.724 2.4107 1.448 1.2857zM466.355 69.0268c3.135-1.6071 6.351-3.1339 9.567-4.5803l-.322.1607c1.367-.4018 6.271-3.0536 5.627-4.259-.321-.6428-4.18.4822-5.225.9643-1.045.4822-4.341 1.4465-5.547 1.8482-2.171.6429-4.502.6429-6.512 1.6875-1.125.5625.804.7233 1.447 1.8483s-.241 2.9732.965 2.3303zM427.043 109.446l.081-3.375-1.769 2.331c2.17-.322 4.421-.723 6.592-1.125l-.643.08h.402l-.643-.08c.402.08.161-.081-.643-.402-.161-.161-.242-.321-.322-.482-.161-.402 0 0 0 .08.08.322.161.643.241.965l.402 2.089c.402 1.286 1.688 2.089 2.975 1.687 1.286-.401 2.009-1.687 1.688-3.053-.241-1.045-.402-2.09-.643-3.134-.161-.804-.643-1.447-1.206-1.929-.884-.643-1.93-.803-2.975-.562-2.17.321-4.341.723-6.511 1.044-.483.161-.965.402-1.287.884-.321.402-.482.965-.562 1.527l-.081 3.375c0 1.286 1.126 2.411 2.412 2.411 1.367 0 2.412-1.045 2.492-2.331zM466.274 105.75c-.08 0-.08-.08-.16-.08l.402.482c0-.081-.081-.081-.081-.161l.241.563c0-.081 0-.081-.08-.161l.08.643v-.241l-.08.642c0-.08.08-.16.08-.241l-.241.563c0-.08.081-.08.081-.161l-.402.482.16-.16-.482.401c.081-.08.241-.16.322-.16l-.563.241c.161-.081.322-.081.482-.081l-.643.081c.804-.081 1.608-.081 2.492-.081.804 0 1.528 0 2.332.081l-.643-.081c.241.081.562.081.803.241l-.562-.241c.161.081.321.161.482.322l-.482-.402c.161.08.241.241.321.321l-.402-.482c.081.161.161.322.242.482l-.242-.562c.081.161.081.241.081.402l-.081-.643v.402l.081-.643c0 .08 0 .161-.081.241l.242-.563c0 .081-.081.161-.161.241-.643 1.206-.322 2.652.884 3.375 1.206.643 2.653.242 3.377-.883.964-1.608.643-3.697-.804-4.983-1.287-1.205-2.975-1.366-4.663-1.366h-2.09c-.804 0-1.528.081-2.332.241-1.125.322-2.09 1.286-2.411 2.411-.322 1.125-.001 2.411.884 3.214.482.402 1.045.724 1.768.724 1.287 0 2.412-1.125 2.412-2.411 0-.643-.241-1.286-.723-1.688l.16-.321zM253.718 416.571c-1.769 1.447-1.126 4.5.804 5.545 1.607.964 3.456.563 5.145.402l2.331-.241c.884 0 1.769-.161 2.653-.322 1.447-.401 2.412-1.607 2.412-3.053v-2.25c0-1.366-1.126-2.411-2.412-2.411-1.367 0-2.412 1.125-2.412 2.411v2.009c0 .321 0-.081.081-.241l.804-1.045c.402-.161.482-.161.321-.161-.161 0 .643-.08.241 0-1.125.081-2.331.241-3.457.322-1.045.16-2.17.241-3.215.321h-.322c.402.081.483.081.322 0h-.161c-.241 0 .402.322.08.08 0 0 .483.402.242.161.241.322.321.402.241.241-.081-.08 0-.08.08.161s.08.241.08.161v.402c0-.322-.08.321-.08.321-.08.241-.161.402-.321.562-.161.161-.161.242-.081.081.965-.964.965-2.491 0-3.456-.884-.883-2.412-.883-3.376 0zM288.688 421.473h4.663c.482 0 1.045 0 1.527-.161.885-.241 1.608-.883 1.93-1.687.241-.964.321-2.009.241-3.054 0-.643-.241-1.285-.723-1.768-.885-.964-2.412-1.044-3.377-.08-.482.482-.804 1.125-.723 1.848v1.929l.08-.643v.161l.241-.563v.081l.402-.483c0 .081-.08.081-.08.081l.482-.402s-.08.08-.161.08l.563-.241c-.08 0-.161 0-.241.081l.643-.081c-.884.081-1.769 0-2.653 0h-2.733c-.643 0-1.287.241-1.689.724-.482.482-.723 1.044-.723 1.767 0 1.206 1.045 2.331 2.331 2.411z" fill="#153A23"/><path d="M287 408.536c2.412 1.768 4.824 3.857 7.155 5.866.482.482 1.286.482 1.769 0 .482-.482.482-1.286 0-1.768-2.493-2.17-5.065-4.259-7.638-6.268-.562-.321-1.366-.161-1.688.402-.322.643-.161 1.366.402 1.768zM281.855 411.107c1.929 1.768 4.02 3.375 6.19 4.902.563.321 1.367.161 1.688-.402.322-.562.161-1.286-.402-1.687-.482-.322-1.045-.724-1.527-1.045-.241-.161-.482-.402-.724-.563l-.08-.08-.08-.08-.402-.322c-.965-.803-1.93-1.607-2.814-2.41-.482-.483-1.286-.483-1.688 0-.402.482-.643 1.205-.161 1.687zM425.274 113.705l5.548 11.411c.321.563 1.125.804 1.688.482.563-.321.804-1.125.402-1.687l-5.547-11.331c-.322-.562-1.126-.803-1.689-.401-.562.241-.723.964-.402 1.526zM431.384 111.696c.643 1.688 1.447 3.295 2.332 4.822.964 1.768 1.929 3.455 2.733 5.303.322.563 1.125.804 1.688.402.563-.321.804-1.125.402-1.687-.804-1.768-1.768-3.456-2.653-5.143-.402-.804-.884-1.607-1.286-2.491-.161-.402-.402-.804-.563-1.125l-.08-.241c-.161-.322.08.08 0-.081-.081-.16-.161-.321-.161-.482-.161-.643-.884-1.044-1.527-.884-.644.241-1.046.965-.885 1.607z" fill="#227B3D"/><path d="M268.027 38.8125c6.432-7.5536 13.506-14.625 20.983-21.1339 1.206-1.0447-.563-2.7322-1.688-1.6875-7.557 6.5089-14.551 13.6607-20.983 21.2142-1.045 1.125.643 2.8929 1.688 1.6072zM273.173 41.4643c5.466-5.3839 10.692-11.0893 16.4-16.1518 1.205-1.0446-.563-2.8125-1.769-1.6875-5.708 5.1429-10.933 10.7679-16.4 16.2322-1.126.9642.643 2.7321 1.769 1.6071z" fill="#EFB086"/><path d="M89.4765 291.295c-3.698 3.535-2.8137 10.928 3.5372 9.16 9.3253-2.651 2.8138-15.187-3.5372-9.16zM116.81 81.8838c-1.849 1.7679-1.367 5.4643 1.768 4.5804 4.744-1.2857 1.448-7.5536-1.768-4.5804zM274.298 111.616c1.045-3.777 2.412-7.473 4.02-11.089.241-.5628.804-1.2056 1.286-.9645.482.241.482.9645.321 1.4465-.803 3.375-1.607 6.83-2.411 10.205 3.215-.321 6.351.161 9.325 1.447.241.08.402.401.241.643 0 .08-.08.16-.16.241-1.769 1.125-3.859 1.687-5.949 1.607-.724-.081-1.608-.161-2.171.402-.322.401-.482.803-.563 1.285-.723 2.973-1.768 5.786-3.215 8.438-.161.241-.483.402-.804.241-.161-.081-.242-.241-.242-.402-.562-2.652.563-5.625.483-8.437 0-.322-.081-.643-.241-.884-.242-.322-.644-.483-1.045-.483-2.975-.642-5.949-1.526-8.763-2.651-.804-.322-1.688-1.125-1.126-1.768.161-.161.402-.241.724-.322 1.768-.321 3.617-.321 5.386 0l4.904 1.045zM300.988 78.0267c-2.894 2.7322-2.17 8.5179 2.814 7.1518 7.316-2.0893 2.171-11.8125-2.814-7.1518zM362.488 358.071c-3.698 3.536-2.813 10.929 3.538 9.161 9.405-2.652 2.813-15.187-3.538-9.161zM376.396 324.321c-1.849 1.768-1.367 5.465 1.769 4.581 4.743-1.286 1.447-7.554-1.769-4.581zM410.643 330.027c-1.688-4.822-2.974-9.723-3.939-14.706-.161-.803-.08-1.848.723-2.009.804-.16 1.206.643 1.448 1.367 1.607 4.178 3.296 8.437 4.903 12.616 3.136-2.652 6.914-4.5 10.934-5.384.321-.081.723.16.723.482 0 .161 0 .241-.08.402-1.045 2.491-2.814 4.58-5.145 6.026-.804.483-1.769 1.045-2.01 2.009-.08.643.08 1.286.322 1.849 1.447 3.616 2.331 7.473 2.813 11.33 0 .402-.241.804-.643.804-.241 0-.402-.081-.563-.161-2.572-2.331-3.537-6.429-5.627-9.322-.241-.321-.563-.642-.884-.803-.483-.081-1.045 0-1.447.241-3.618 1.446-7.396 2.732-11.255 3.616-1.045.241-2.653 0-2.492-1.045.08-.321.241-.562.482-.803 1.608-1.688 3.537-2.973 5.708-3.938l6.029-2.571zM429.776 295.312c-1.849 1.768-1.366 5.465 1.769 4.581 4.743-1.366 1.447-7.554-1.769-4.581zM79.8294 335.25c.3216-3.616.9647-7.152 1.7686-10.607.1608-.563.4824-1.206 1.0451-1.045.5628.161.5628.804.5628 1.286-.1608 3.214-.3216 6.428-.5628 9.562 2.8137-.803 5.7882-.884 8.6824-.241.2411.081.4019.241.4019.482 0 .081-.0804.242-.1608.322-1.3666 1.286-3.2157 2.17-5.0647 2.411-.7235 0-1.3666.241-1.849.723-.2412.402-.3216.803-.3216 1.286-.1607 2.732-.6431 5.464-1.5274 8.035-.0804.241-.402.402-.6431.322-.1608-.081-.2412-.161-.3216-.322-.9647-2.25-.402-5.143-.8843-7.634 0-.321-.1608-.562-.3216-.803-.3216-.241-.6431-.322-1.0451-.322-2.8137-.08-5.5471-.401-8.3608-.884-.7235-.16-1.6882-.803-1.2863-1.366.1608-.16.3216-.321.5628-.401 1.5274-.563 3.2157-.884 4.8235-.804h4.502z" fill="#fff"/></svg>