<svg width="95" height="150" fill="none" xmlns="http://www.w3.org/2000/svg"><g clip-path="url(#clip0)"><path d="M25.92 21.4942C16.73 48.1236 8.93998 76.2707 2.69998 105.459c-1.44 6.723-2.820002 13.712-2.6900017 20.894.1299997 7.182 2.0800017 14.718 5.7500017 17.824 2.08 1.764 4.46002 1.958 6.76002 2.064 21.39.918 42.85-3.9 63.42-14.259 8.31-4.182 17.96-12.529 18.4-27.758.3-10.4651-4.06-19.2357-6.75-28.5886-4.38-15.2294-4.56-33.8647-10.22-47.7177C72.25 15.3707 65.61 2.27662 56.89.935452 51.74.141335 46.1-.91749 40.41 1.42957 34.16 3.98839 28.91 11.4707 25.92 21.4942z" fill="#F7BC28"/><path d="M32.5002 24.3707c-3.77 19.1295-5.32 39.9177-4.5 60.353.4 9.847 1.41 19.9763 4.4 27.9703 3.83 10.253 10.7 15.565 17.17 14.153 6.47-1.412 12.39-9.123 15.97-19.729 5.23-15.4767 5.46-35.2943 4.76-53.7884-.63-16.4471-2.71-35.2765-10.23-42.8294-5.91-5.9294-13.05-2.57646-19.46.9l-8.11 12.9705z" fill="#FFC9A0"/><path d="M23.4102 64.606c8.9.0706 19.08-7.1117 21.32-10.8706 6.75-11.3823 7.43-34.9412 7.23-50.59404l-21.15 13.37644-7.25 24.0353-.15 24.0529z" fill="#F7BC28"/><path d="M47.1699 3.12378s9.01 45.26472 27.94 51.75882l-2.98-19.4824-7.5-25.3764-17.46-6.90002zM58.1199 52.1118c-.5-.1412-.99.3176-1.21 1.1294-.05.1941-.11.3882-.15.6-.14.6706-.13 1.5706.23 1.9059.14.1411.31.1411.47.1411 1.68.053 3.35.4589 4.99 1.1471.83.3529 1.65.7765 2.46 1.2882.2.1236.95.8647 1.13.7412.34-.2118.17-1.2882.03-1.6765-.19-.5117-.5-.847-.79-1.1647l-.08-.0882c-1.65-1.7824-3.49-3-5.4-3.5294l-1.68-.4941z" fill="#F7BC28"/><path d="M42.5602 8.75317c-6.57.01765-13.32 18.61773-15.64 27.95293-2.59 10.4295-7.17 21.6-10.32 31.5177-3.08 9.7059-6.14 19.5-8.48002 29.8588-1.16 5.1174-2.13 10.3764-2.81 15.7584-.61 4.765-.49 5.912-.85 10.836-.41 5.594-.28 12.141 2.9 13.182 3.12002 1.024 8.86002.777 11.98002 1.5.58.141.84-1.447.25-1.588-4.52-1.077-12.00002 2.347-13.79002-7.888-.82-4.695-.28-9.865.29-14.542.61-5.047 6.73002-24.2819 7.76002-29.0996 4.23-19.7117 7.39-22.9588 12.49-41.947 2.85-10.6059 5.93-22.8 11.32-30.1765.84-1.1647 1.77-2.1353 2.79-2.6824.87-.4588 2.24-1.0588 2.99-1.4117.95-.47651.73-1.27063-.88-1.27063z" fill="#fff"/><path d="M33.05 135.547c-.15 0-.29-.017-.44-.035-2.9-.494-7.53-1.853-10.14-3.741-2.35-1.694-4.93-4.112-6.26-8.082-2.29-6.795-1.91-17.471 1.16-23.365.4-.7766.55-2.6648.14-1.8884-2.65 5.1004-4.06 10.6944-3.59 17.4004.32 4.5.21 8.911 1.58 11.223 1.68 2.841 5.11 5.224 7.26 6.688 2.61 1.765 6.11 2.4 8.88 2.842.59.105 3.42 0 3.05-1.024h-1.64v-.018z" fill="#fff"/><path d="M23.2603 88.8709c-1.37 6.5823-2.91 17.4181-2.04 22.8001.51 3.123 3.88 7.853 6.57 11.806.46.67 1.46 1.164 1 .476-2.56-3.759-5.4-7.941-6.29-13.87-1.01-6.689.07-15.4768 1.39-21.7768.2-.9883-.42-.4236-.63.5647zM25.9904 57.7413c3.33-.8647 6.47-3 9.53-5.4 2.83-2.2058 7.37-5.9294 9.64-9.7411 2.25-3.8118 2.74-10.3412 3.75-15.4765 1.1-5.5412.92-8.6294.94-14.4883 0-1.0588-.66-3.89999-.66-2.84117 0 16.50007-2.02 25.95887-6.6 33.35297-2.17 3.4941-4.89 5.7177-7.55 7.7824-2.99 2.3294-6.06 4.3941-9.31 5.2235-.58.1588-.33 1.7471.26 1.5882zM32.2003 39.9883c.79-5.1882 4.44-10.4118 6.54-14.3647 2.29-4.2882 2.79-5.7353 5.57-8.947.5-.5824.98-3.1941.48-2.6118-2.98 3.4412-6.82 8.6117-9.21 13.2706-2.13 4.147-3.48 8.5411-3.67 11.2411-.07 1.0412-.38 3.7942-.01 4.0412l.3-2.6294z" fill="#fff"/><path d="M39.8203 34.9414c2.92-6.5294 6.23-14.6117 5.73-19.9412-.1-1.0235-.81-1.4823-.9-.4411-.65 8.2059-3.7 16.3941-6.52 22.7294-.37.8118.4.547.77-.2824l.92-2.0647zM77.22 55.0945c-10.5-4.9412-18.91-20.6824-21.1-39.4589-.15.3529-.3.6882-.45 1.0411 6.67-1.0764 12.53 6.3531 16.35 15.4236 4.39 10.4295 6.19 23.3647 8.58 35.4353 1.24 6.2471 2.77 12.1412 4.44 18.0706 1.64 5.8235 3.33 12.1941 2.89 18.8648-.73 11.153-7.07 17.506-12.48 20.912-8.32 5.241-17.35 7.57-26.16 7.711-.6.018-1.98 2.471-1.39 2.471 8.43-.141 15.75-1.888 23.79-6.388 5.52-3.088 14.94-10.783 17.12-20.983 1.29-6.017 1.43-11.3113.08-17.0819-1.52-6.5294-5-12.7235-6.44-19.3235-2.78-12.7765-6.01-31.7647-7.64-36.3706-4.89-13.9059-11.58-21.6001-19.13-20.3824-.31.0529-.51.4764-.45 1.0411C58.4 42.9709 66.18 51.6003 76.98 56.665c.58.2824.82-1.2882.24-1.5705z" fill="#fff"/><path d="M47.75 127.747c6.56.971 17.14-.106 23.41-4.2 5.08-3.317 6.21-8.223 8.45-17.188 1.25-5.012 2.12-4.535-.06-15.8119-.19-1.0058-1.16-1.3411-.85-.4411 2.99 8.8235-.89 20.806-4.77 26.453-4.37 6.371-10 9.194-15.57 9.918-3.53.458-7.08.158-10.6-.371-.61-.088-.61 1.553-.01 1.641z" fill="#fff"/><path d="M83.2801 109.659c2.69-6.194 1.7-10.4116.73-17.8234-1.14-8.6823-4.07-16.2352-6.76-23.6117-.32-.8824-1.13-.0706-.8.8294 2.56 7.0059 5.31 14.0823 6.53 22.2353 1.09 7.2882 1.37 13.2534-.98 20.7534-.29.917-.45 2.505-.09 1.676l1.37-4.059zM64.5004 114.794c4.14-2.117 7.85-11.364 9.53-18.2467 2.05-8.4529-.33-13.4471-1.48-22.2176-.14-1.0236-1.03-.6-.9.4411 1.09 8.2765 1.4 17.2589-.45 25.2702-1.53 6.618-4.82 11.065-8.51 14.295-.35.3-1.06 1.623-1.06 1.623l2.87-1.165zM62.7401 29.3649c1.64 1.2883 3.5 3.6706 4.91 6.2471 1.46 2.6823 4.79 9.7235 6.03 12.7235 2.4 5.8588 2.37 8.0824 3.82 14.8412.21.9706 1.11.5471.9-.4412-1.55-7.2529-3.64-14.1-6.26-20.3117-1.27-3.0177-1.19-4.3412-2.69-7.0236-1.44-2.5764-3.34-5.2941-5.35-6.3353-.58-.3-1.94 0-1.36.3z" fill="#fff"/><path d="M29.6502 63.6355c-3.97 1.1471-5.4 1.0588-9.04 4.3059-2.61 2.3294-5.36 5.7176-5.78 10.8353-.54 6.5823 3.19 12.0529 6.89 13.3235 3.7 1.2706 7.52-.1588 11.28.3706M69.25 53.1355c3.36-.6 6.78.1941 9.94 2.2941 3.16 2.1 5.84 7.7471 5.27 13.6059-.62 6.3176-4.42 9.8294-7.84 11.9647-3.21 1.9941-6.5 3.6-9.83 4.8M40.8701 124.218l2.73 25.147h8.36l3.02-32.559-14.11 7.412z" fill="#FFC9A0"/><path d="M32.6899 102.247c-.12.194-.3.194-.42 0-.95-1.482-2.06-2.6294-3.05-4.0411-1.06-1.5177-2.02-3.4588-2.26-5.8236-.45-4.447 2.13-7.4647 4.22-4.6058.59.7941 1.05 1.8529 1.48 2.9294.04.1059.15.0529.14-.0883-.08-1.2353.18-2.5411.64-3.4941.79-1.6764 2.47-3.1059 3.74-2.6823 1.79.5823 1.75 4.2353 1.26 6.6353-.59 2.8941-2.28 5.4529-3.52 7.4823l-2.23 3.6882zM65.5398 99.5472c-.13.1765-.31.1236-.41-.0882-.85-1.6588-1.87-3.0176-2.76-4.6235-.96-1.7118-1.78-3.8471-1.87-6.2471-.16-4.5176 2.6-6.9706 4.5-3.7235.53.9176.92 2.047 1.28 3.2117.04.1236.14.0706.14-.0529 0-1.2529.35-2.4882.87-3.3529.9-1.5 2.65-2.5765 3.89-1.9059 1.74.9529 1.46 4.5529.82 6.847-.78 2.753-2.62 4.9412-3.98 6.7236l-2.48 3.2117z" fill="#F1673C"/><path d="M53.84 108.124c3.19-2.365 5.69-6.918 6.9-12.6354.12-.5824-.14-1.2529-.45-1.4118-.36-.1764-.68.2118-.8.7942-1.03 4.8882-3.26 9.018-5.99 11.029-.32.247-.56.759-.45 1.412.07.547.46 1.059.79.812zM54.3603 66.9886c.56 4.2 2.82 7.7647 5.37 6.7412 2.36-.9529 3.39-5.3823 4.07-9.0176-.32.2294-.64.4588-.95.6882 1.54 1.3941 3.08 2.7706 4.62 4.1647.74.6706 1.4-1.3059.66-1.9765-1.54-1.3941-3.08-2.7705-4.62-4.1647-.39-.3529-.82-.0529-.95.6883-.5 2.6647-1.18 6.2117-2.84 7.2529-1.96 1.2353-3.67-1.8353-4.09-4.9765-.21-1.447-1.47-.8294-1.27.6z" fill="#010101"/><path d="M61.8901 69.7059c.06.0706.11.1412.16.2118.09.1235.02.0353-.03-.0353.04.0529.07.1059.11.1588.13.1942.27.3706.4.5647.31.4412.61.9.92 1.3412.58.8471 1.15 1.7118 1.76 2.4883.28.3529.74.1058.89-.4059.18-.6.06-1.2-.23-1.5706-.06-.0706-.11-.1412-.16-.2118-.09-.1235-.02-.0353.03.0353-.04-.0529-.07-.1059-.11-.1588-.13-.1941-.27-.3706-.4-.5647-.31-.4412-.61-.9-.92-1.3412-.58-.8471-1.15-1.7118-1.76-2.4882-.28-.353-.74-.1059-.89.4059-.18.5823-.06 1.1823.23 1.5705zM42.97 69.9357c-.42 3.1412-2.13 6.2117-4.09 4.9764-1.66-1.0411-2.34-4.5882-2.84-7.2529-.14-.7235-.57-1.0412-.95-.6882-1.54 1.3941-3.08 2.7706-4.62 4.1647-.75.6706-.09 2.647.66 1.9765 1.54-1.3942 3.08-2.7706 4.62-4.1648-.32-.2294-.64-.4588-.95-.6882.68 3.6353 1.71 8.0471 4.07 9.0177 2.55 1.0411 4.81-2.5412 5.37-6.7412.18-1.4118-1.08-2.0294-1.27-.6z" fill="#010101"/><path d="M36.0301 71.2766c-.61.7765-1.18 1.6412-1.76 2.4883-.31.4412-.61.9-.92 1.3412-.13.1941-.26.3705-.4.5647-.03.0529-.06.0882-.1.1411-.04.053.14-.1764.01-.0176-.05.0706-.11.1412-.16.2118-.27.3529-.44 1.0058-.23 1.5705.18.4765.6.7942.89.4059.61-.7764 1.18-1.6411 1.76-2.4882.31-.4412.61-.9.92-1.3412.13-.1941.26-.3706.4-.5647.03-.0529.06-.0882.1-.1412.04-.0529-.14.1765-.01.0177.05-.0706.11-.1412.16-.2118.27-.3529.44-1.0059.23-1.5706-.17-.4764-.59-.7764-.89-.4059zM73.5802 61.3767c1.18-.3177 2.44.0706 3.59.5823 1.14.5118 2.31 1.1647 2.98 3.0177.35.9706.48 2.047.25 3.1588-.21 1.0235-.6 1.9941-1.02 2.7882-.74 1.3765-1.7 2.2765-2.67 3-1.16.8648-2.37 1.5177-3.52 2.4177-.55.4235-.07 1.8353.47 1.4119 2.28-1.7825 4.98-2.6296 6.65-6.1943.93-1.9764 1.51-4.3941.83-6.8647-.63-2.2588-1.85-3.3706-3.16-4.0588-1.48-.7765-3.09-1.2529-4.63-.847-.61.1588-.36 1.747.23 1.5882z" fill="#010101"/><path d="M74.4002 70.8c.36-.1235.72-.4235 1.04-.7058.45-.3706.88-.8295 1.27-1.3765.35-.4941.68-1.1647.71-1.9765.03-1.0765-.53-1.7117-1.03-2.0823-.71-.5118-1.5-.6-2.26-.7236-.24-.0353-.47.4059-.46.8118.01.4765.2.7765.46.8118.13.0176.26.0353.39.0529.08.0177.15.0177.23.0353.03 0 .06.0176.08.0176.02 0 .16.0353.11.0177l.07.0176c.04.0177.09.0177.13.0353.07.0177.15.0353.22.0706.16.053.31.1236.47.1941.07.0353.13.0706.2.1236.03.0176.05.0353.08.0529-.1-.0706.02.0177.04.0353.06.0529.12.1059.17.1588.03.0353.05.053.08.0883.11.1235-.04-.0706.01.0176.03.053.06.1059.08.1412.06.0882-.06-.1765-.02-.0529.01.0176.01.0352.02.0529.06.1588-.03-.1941 0-.0177.04.2295-.01-.1764 0 0 0 .0177-.01.0883 0 .0883-.01-.0177.03-.2118.01-.1235-.01.0529-.02.1058-.03.1588-.02.1412.06-.1941.02-.0706-.01.0176-.02.0529-.02.0882-.02.0706-.04.1235-.06.1765-.05.1235.08-.1588.02-.0353-.01.0176-.03.0529-.04.0882-.03.053-.06.1059-.09.1589-.07.1235-.15.247-.23.3705-.02.0353-.06.1059.03-.0353-.02.0353-.05.0706-.07.0883-.04.0529-.08.1059-.12.1588-.09.1059-.19.2118-.28.3177-.18.1941-.37.3705-.56.5294-.1.0882-.2.1764-.31.247-.01.0177-.03.0353-.05.0353.14-.0706.03-.0176-.01 0-.04.0353-.09.0706-.13.0883-.13.0882-.27.1764-.4.2294-.24.0882-.4.6176-.32 1.0058.06.5295.3.7236.55.6353zM25.8701 86.0474c-1.62.353-3.25.1235-4.82-.7235-1.12-.6-3.3-1.8-3-4.5177.14-1.2705.66-2.347 1.16-3.2294.51-.9 1.06-1.7294 1.66-2.4353 1.23-1.4823 2.6-2.5058 4.05-3.0706.58-.2294.34-1.7999-.25-1.5882-2.53.9883-5.08 3.4412-6.7 7.0588-.78 1.7471-1.28 4.1471-.45 6.1236.76 1.8176 2.24 2.7 3.42 3.3176 1.59.8294 3.27 1.0588 4.91.7059.61-.1235.62-1.7647.02-1.6412z" fill="#010101"/><path d="M23.9503 75.5119c-.63.1236-1.23.4236-1.8.9-.52.4412-1.06 1.0588-1.42 1.8706-.41.9-.48 2.0118-.19 3.053.25.9176.74 1.5882 1.29 1.8882.72.4059 1.49.1941 2.22 0 .25-.0706.39-.6177.32-1.0059-.07-.4765-.32-.6353-.57-.5647-.6.1588-1.26.3353-1.84-.0706.05.0353-.1-.0882-.11-.1059-.06-.0529-.11-.1235-.17-.1941.03.0353.02.0177-.02-.0353-.02-.0353-.05-.0882-.07-.1235-.01-.0177-.12-.2294-.09-.1588-.04-.0883-.07-.1941-.11-.2824-.02-.0529-.03-.1059-.04-.1588.01.0706.01.0529-.01-.0353-.02-.1059-.04-.2118-.05-.3177.01.1412 0-.1588 0-.1941v-.0353c.01-.0529.01-.1058.02-.1588.01-.0882.02-.1235.06-.2294.06-.1941.14-.3353.24-.5118.21-.3529.45-.6353.7-.8823.5-.5118 1.09-.8647 1.65-.9706.25-.0529.46-.3353.46-.8118-.01-.4411-.22-.9-.47-.8647z" fill="#010101"/><path d="M49.5897 78.3003c.81 3.6706 1.73 7.3412 2.39 11.0118.16.9-.23 1.8-.76 1.8176-.94.0177-2.05.0353-2.97.0353-.47 0-.84-.7059-.8-1.5529l.6-10.9588c.08-1.4824 1.23-1.7471 1.54-.353z" fill="#E48929"/><path d="M54.2499 124.659s-6.55 4.641-13.39-.441l.52 4.764 11.76 7.606 1.11-11.929z" fill="#EFB086"/><path d="M49.8097 12.0706c3.32-.1589 6.31-2.29415 9.6-1.3059 2.28.6882 4.96 2.7706 6.82 5.0294 3.85 4.6765 6.77 9.6 9.78 15.9706.41.8823 4.29 11.1529 1.05-.0706-2.21-7.6235-7.39-13.1294-11.38-17.9471-1.9-2.2941-3.71-4.00584-6.01-4.69408-3.38-1.02353-10.56-1.85294-10.53-.72353.05 1.44706.05 2.75291.05 2.75291l.62.9883z" fill="#fff"/></g><defs><clipPath id="clip0"><path fill="#fff" d="M0 0h95v150H0z"/></clipPath></defs></svg>