<svg width="110" height="42" fill="none" xmlns="http://www.w3.org/2000/svg"><path d="M8.83984 20.5428c0-6.0062 3.88086-10.4456 9.65896-10.4456 4.5708 0 8.2791 2.7855 8.2791 5.571 0 1.1751-.7762 1.9585-2.0698 1.9585-3.1478 0-3.0184-5.745-7.1579-5.745-2.3285 0-4.4414 2.3067-4.4414 6.0062 0 5.8321 3.4065 9.6622 6.9423 9.6622 2.9322 0 4.6139-2.1327 5.5194-3.6995.4744-.6093 1.5093-.4353 1.3799.4787-.3019 3.6995-2.9753 7.1814-8.1929 7.1814-5.5194 0-9.91766-5.3099-9.91766-10.9679zM28.373 30.7277v-.1306c0-.7399 1.1212-.9575 1.1212-2.2197V13.9277c0-1.3057-1.1212-1.6104-1.1212-2.2197v-.1306c0-.3047.2156-.4352.5606-.6093l3.6652-1.82796c.7762-.39171 1.2074.04352 1.2074.52228V28.3339c0 1.2186 1.2505 1.4798 1.2505 2.2197v.1305c0 .3047-.3018.5223-.6899.5223H29.063c-.4312 0-.69-.1741-.69-.4787zM49.5024 27.0713c-.1725 1.6974-2.1561 4.4394-5.9075 4.4394-4.0533 0-7.0286-2.9596-7.0286-7.486-.0863-3.8736 2.9321-7.1378 6.813-7.2249h.2156c3.7946 0 5.5194 2.2197 5.5194 4.1782.0431.8705-.4743 1.6539-1.2936 1.9586l-6.4681 2.9596c.6468 1.5668 2.156 2.5679 3.8377 2.5679 1.3368.0435 2.5872-.6094 3.3203-1.6975.345-.4352.9918-.3046.9918.3047zm-8.926-5.0487c0 .8705.0863 1.6974.3019 2.5244l3.7515-1.9151c.5174-.2611.8192-.8269.7761-1.3927 0-1.0446-.7761-3.1337-2.3285-3.1337-1.5523 0-2.501 1.6974-2.501 3.9171zM62.5245 19.4986c0 1.2187-.4743 2.3068-1.8542 2.3068-2.2854 0-1.2505-2.5244-2.8459-2.5244-1.1212 0-1.5524 1.6104-1.5524 3.2207v5.8757c0 1.2186 1.4661 1.4798 1.4661 2.2197v.1305c0 .3482-.2587.5223-.6468.5223h-5.3469c-.4312 0-.6899-.1741-.6899-.5223v-.1305c0-.7399 1.1211-.9575 1.1211-2.2197v-6.8332c0-1.3057-1.3367-1.3927-1.3367-2.1326v-.1306c0-.3046.2156-.5223.6037-.6964l3.4927-1.6538c.6468-.3047.9486.0435.9486.6093v2.2197c.6469-1.8715 2.0267-2.9161 3.9671-2.9161 1.3799-.087 2.5872 1.001 2.6735 2.3938v.2611zM79.6004 30.6404v.0871c0 .3482-.2156.5223-.6037.5223h-5.4331c-.3019.0435-.5606-.1741-.5606-.4788v-.087c0-.7399 1.078-.914.6037-1.6104l-3.1478-4.4829-1.7248 1.6104v2.2196c0 1.2187 1.2505 1.4798 1.2505 2.2197v.1306c0 .3047-.2588.5223-.69.5223h-5.3469c-.3881 0-.6468-.2176-.6468-.5223v-.1306c0-.7399 1.1211-.9575 1.1211-2.2197V13.9275c0-1.3057-1.2936-1.6104-1.2936-2.2197v-.1306c0-.3046.2156-.4352.6037-.6093l3.8808-1.82798c.69-.34819 1.1643.04352 1.1643.52228v14.2756l4.6139-4.0041c.8624-.7399-.69-1.4798-.69-2.1762v-.1305c0-.3047.2156-.5223.6037-.5223h4.1396c.3449 0 .6037.1741.6037.4787v.1306c0 .7399-1.423 1.2187-2.501 2.1762l-2.3716 2.2197 4.8726 6.9202c.4743.6528 1.5523.914 1.5523 1.6103zM79.6001 28.0723c0-1.1316.7762-1.6103 1.7248-1.6103 2.5441 0 1.5523 3.8736 4.4845 3.8736 1.2074 0 2.1129-.6094 2.1129-1.9586 0-3.9171-8.1066-1.4798-8.1066-7.2684 0-2.4808 2.4147-4.3088 5.9075-4.3088 3.6652 0 5.9937 1.6974 5.9937 3.5254-.0431.8705-.7762 1.5668-1.5954 1.5233-2.4148 0-1.5524-3.83-4.0965-3.83-1.0349-.0436-1.8973.7834-1.8973 1.8279v.1306c0 4.0042 7.9342 1.6539 7.9342 7.2684 0 2.3938-2.3285 4.2218-6.2094 4.2218-3.7945 0-6.2524-1.5669-6.2524-3.3949z" fill="#133A23"/><path d="M108.534 17.5834v.1306c0 .7399-.905 1.001-1.466 2.3067l-5.519 12.0995c-.949 2.0891-3.3637 7.2684-6.3822 7.2684-2.6303 0-4.2689-1.6104-4.2689-3.1337-.0431-.914.6468-1.6974 1.5523-1.7409h.2156c2.3717 0 1.6386 3.5254 3.1478 3.5254 1.0349 0 3.1047-3.9606 3.924-5.9627l-5.8213-12.056c-.6468-1.3057-1.5523-1.5668-1.5523-2.3067v-.1306c0-.3046.2587-.4787.6037-.4787h5.4332c.2587-.0436.5174.1741.5605.4787V17.7575c0 .7399-1.078.827-.4312 2.3503l3.4068 7.9647 3.148-7.5295c.776-1.828-1.294-2.0456-1.294-2.742v-.1305c0-.3047.216-.5223.604-.5223h3.535c.345-.0435.604.1741.604.4352z" fill="#133A23"/><path d="M4.57099 18.5846c.04312.0435 0 .1305-.04312.174-.04312.0436-.12936 0-.17248-.0435-.86241-1.2186-2.5441-4.2217-2.41474-9.22688 0-1.47979.30184-2.95959.86241-4.35233.47432-1.13161 1.76793-3.00311 3.23402-2.39378 1.46609.60932-.56056 2.87253-.99177 3.52538C2.54433 10.054 3.14802 14.5369 4.57099 18.5846z" fill="#FDBC4E"/><path d="M5.38989 16.2777c0 .0435-.04312.0435-.08624.0435s-.04312-.0435-.04312-.0435c-.17248-1.7845-.25872-5.7016 1.37985-9.1399.77617-1.69741 1.98354-3.17721 3.49272-4.26529.5606-.39171 1.2074-.60933 1.8973-.60933.8193.08705 1.4661.82695 1.078 1.65389-.6037 1.26218-2.2422 1.43627-3.27711 2.21969C8.49456 7.1378 7.54591 8.66111 6.8991 10.1844c-.77616 1.9151-1.29361 4.0042-1.50921 6.0933z" fill="#FDBC4E"/><path d="M7.02881 15.3638c0-.3482.04312-.6964.12936-1.001.34496-1.2187.81929-2.3938 1.46609-3.4819 1.72484-2.91605 4.22584-5.48392 7.54604-6.26734.9918-.26114 4.2258-.26114 3.1909 1.65388-.6899 1.21866-2.6734.69638-3.7946.91399-2.156.43524-3.8808 1.78446-5.39 3.30777-1.63858 1.6974-3.06155 4.9181-3.14779 4.8746z" fill="#FDBC4E"/></svg>