<svg width="492" height="511" fill="none" xmlns="http://www.w3.org/2000/svg"><path d="M316.835 480.743c-146.769 38.924-227.8564 6.21-250.0519-14.999-99.2352-94.846-61.20646-197.071-45.1085-224.592 21.2391-36.327 61.1637-90.899 84.6404-128.593C167.641 7.41203 251.7 3.98687 286.091 15.4582 437.344 45.9772 484.152 174.596 488.644 235.088c21.085 161.948-105.786 231.245-171.809 245.655z" fill="#F7BC28"/><path d="M190.596 208.634c-23.551 1.564-47.198.872-70.617-2.067-11.956-1.503-26.8414-6.543-26.0899-16.357.6662-8.653 13.1349-12.812 23.5189-14.854 81.211-15.665 164.271-19.406 246.56-11.104 13.826 1.393 28.694 3.579 38.285 11.788 4.014 3.416 6.9 8.353 5.124 12.863-2.067 5.287-9.352 7.773-15.859 9.473-42.662 11.039-86.6 16.364-130.663 15.836l-70.259-5.578z" fill="#153A23"/><path d="M203.125 154.899c22.084-4.484 44.536-8.968 66.988-7.047 22.452 1.922 45.262 11.284 58.473 29.563 14.57 20.218 15.048 47.388 26.312 69.614 6.901 13.666 18.114 26.478 17.354 41.691-1.102 22.208-25.954 34.397-47.338 40.496-53.046 15.122-108.074 22.137-163.217 20.807-5.927-.145-12.05-.436-17.396-3.007-9.454-4.51-14.492-15.52-14.8-25.966-.307-10.446 3.22-20.671 6.926-30.485 16.089-42.588 36.102-83.587 59.78-122.469" fill="#FAC7B7"/><path d="M213.125 172.29c-9.748 28.261-13.687 58.2-11.58 88.021 1.016 14.367 3.629 29.144 11.315 40.794 4.756 7.173 11.398 12.895 19.196 16.536 7.797 3.641 16.447 5.06 24.999 4.101 16.653-2.059 31.897-13.317 41.112-28.768 13.467-22.584 14.057-51.489 12.246-78.455-1.622-23.976-6.985-51.445-26.337-62.456-15.219-8.652-33.588-3.766-50.079 1.324l-20.872 18.903z" fill="#B26D55"/><path d="M189.734 230.988c22.896.094 49.097-10.361 54.861-15.871 17.379-16.596 19.044-42.708 18.524-65.531l-54.341 11.258-18.651 35.021s-.402 35.123-.393 35.123z" fill="#FAC7B7"/><path d="M255.347 159.964s18.72 47.381 67.466 56.853l-7.686-28.426-16.678-28.427h-43.102z" fill="#FAC7B7"/><path d="M89.9949 500.397c-9.3257-30.032 3.1171-74.183 25.1671-96.596 22.051-22.414 52.257-35.021 82.676-42.965 37.175-9.72 76.861-13.23 113.899-3.177 15.5 4.202 30.317 10.711 44.408 18.475 22.162 12.223 43.341 28.555 54.067 51.48 12.204 26.112 9.087 41 4.68 69.469" fill="#39B55D"/><path d="M279.046 212.768c-.627-.098-1.269.008-1.831.303-.561.296-1.013.765-1.286 1.337-.137.291-.274.573-.385.855-.367.965-.333 2.289.59 2.767.384.166.803.239 1.221.214 4.319.103 8.614.676 12.81 1.708 2.141.514 4.253 1.142 6.328 1.879.521.188 2.434 1.264 2.921 1.085.854-.325.435-1.896.077-2.443-.55-.713-1.25-1.296-2.05-1.708l-.214-.137c-4.257-2.603-8.983-4.344-13.911-5.125l-4.27-.735z" fill="#FAC7B7"/><path d="M226.166 160.955c-16.875 1.17-21.436 15.708-27.414 29.332-6.678 15.204-18.463 31.493-26.568 45.971-7.934 14.162-15.807 28.435-21.82 43.562-3.012 7.463-5.433 15.151-7.242 22.994-1.562 6.952-1.255 8.627-2.194 15.793-1.059 8.157-.709 17.707 7.464 19.218 8.172 1.512 22.802 1.119 30.821 2.196 1.503.205 2.16-2.102.64-2.307-11.623-1.554-30.881 3.417-35.492-11.497-2.118-6.833-.718-14.384.734-21.217 1.554-7.354 17.319-35.405 19.975-42.434 10.88-28.768 19.019-33.5 32.136-61.201 6.833-14.52 9.702-36.66 28.96-38.001 1.52-.103 1.537-2.494 0-2.392v-.017z" fill="#fff"/><path d="M213.971 334.469c-7.422-.684-19.771-2.682-26.662-5.518-6.038-2.477-12.682-5.979-16.124-11.796-5.876-9.908-4.91-25.488 2.989-34.09 1.033-1.127 1.401-3.877.359-2.741-6.832 7.439-10.445 15.605-9.232 25.377.854 6.568.547 12.991 4.074 16.365 4.329 4.151 13.143 7.619 18.694 9.746 6.712 2.563 15.722 3.485 22.861 4.151 1.538.137 9.394-1.349 7.857-1.494h-4.816z" fill="#fff"/><path d="M189.35 266.375c-3.527 9.592-7.481 25.42-5.252 33.253 1.298 4.561 9.974 11.445 16.909 17.219 1.178.983 3.749 1.709 2.562.701-6.602-5.492-13.895-11.574-16.226-20.218-2.562-9.763.196-22.584 3.569-31.766.53-1.444-1.067-.624-1.597.811h.035zM196.361 220.985c8.54-1.264 16.645-4.39 24.536-7.866 7.284-3.212 18.976-8.644 24.766-14.214 5.79-5.569 7.122-15.067 9.684-22.566 2.818-8.098 2.357-12.574 2.417-21.141 0-1.537-1.708-5.697-1.708-4.151 0 24.062-5.201 37.873-16.978 48.644-5.568 5.125-12.571 8.345-19.411 11.361-7.686 3.416-15.603 6.397-23.964 7.627-1.52.222-.854 2.563.632 2.306h.026zM212.348 195.079c2.041-7.56 11.418-15.196 16.841-20.944 5.884-6.244 7.174-8.354 14.339-13.043 1.289-.854.094-2.904-1.204-2.059-7.687 5.014-15.099 10.797-21.265 17.596-5.483 6.047-8.967 12.471-9.437 16.4-.188 1.529-.982 5.526 0 5.876l.726-3.826z" fill="#fff"/><path d="M231.956 187.707c7.515-9.532 16.03-21.353 14.74-29.041-.248-1.495-2.092-2.152-2.306-.632-1.665 11.958-9.513 23.916-16.781 33.141-.939 1.196 1.033.795 1.981-.41l2.366-3.058zM328.219 217.116c-27.029-7.201-48.678-30.16-54.297-57.545l-1.153 1.512c17.174-1.58 32.264 9.268 42.094 22.49 11.307 15.204 15.927 34.073 22.084 51.677 3.257 9.014 7.076 17.815 11.435 26.351 4.228 8.481 8.54 17.783 7.43 27.52-1.879 16.272-18.182 25.531-32.11 30.511-21.41 7.687-44.648 11.027-67.322 11.232-1.537 0-5.124 3.622-3.561 3.605 21.692-.197 40.523-2.751 61.224-9.311 14.193-4.51 38.43-15.733 44.066-30.604 3.322-8.772 3.673-16.485.222-24.916-3.902-9.532-12.878-18.561-16.584-28.187-7.157-18.638-14.518-47.03-19.642-53.052-11.957-14.025-29.891-31.484-49.311-29.699-.182.005-.361.051-.523.134-.162.083-.304.201-.414.346-.111.145-.188.313-.225.492-.037.178-.034.363.009.54 8.173 39.24 28.183 51.813 55.972 59.219.304.077.626.033.897-.125s.469-.415.552-.718c.083-.302.043-.625-.109-.899-.153-.273-.407-.476-.708-.564l-.026-.009z" fill="#fff"/><path d="M252.358 323.074c16.892 1.427 44.109-.162 60.25-6.124 13.066-4.835 15.987-12.01 21.734-25.061 3.229-7.329 5.449-6.628-.153-23.062-.496-1.452-2.989-1.956-2.195-.632 7.686 12.863-2.297 30.356-12.272 38.59-11.247 9.285-25.74 13.402-40.078 14.461-9.096.536-18.219.353-27.286-.546-1.529-.128-1.52 2.263 0 2.391v-.017z" fill="#fff"/><path d="M343.805 296.689c6.926-9.028 4.364-15.178 1.87-25.992-2.921-12.667-10.47-23.677-17.405-34.439-.854-1.29-2.903-.094-2.066 1.204 6.576 10.207 13.664 20.5 16.807 32.458 2.809 10.617 3.535 19.321-2.52 30.271-.743 1.341-1.144 3.656-.222 2.452l3.536-5.954zM295.485 304.163c10.658-3.083 20.214-16.571 24.519-26.624 5.286-12.325-.854-19.603-3.818-32.407-.35-1.494-2.647-.854-2.306.641 2.81 12.061 3.596 25.172-1.161 36.865-3.928 9.661-12.417 16.153-21.888 20.859-.994.688-1.912 1.478-2.741 2.357l7.395-1.691zM290.933 179.576c5.124 1.529 9.002 5.347 12.631 9.105 3.758 3.904 12.34 14.179 15.509 18.57 6.183 8.541 6.106 11.778 9.821 21.652.538 1.427 2.852.803 2.306-.64-3.949-10.579-9.359-20.553-16.073-29.631-3.279-4.407-3.074-6.329-6.917-10.25-3.698-3.758-8.6-7.687-13.758-9.25-1.478-.444-4.953 0-3.484.435l-.035.009z" fill="#fff"/><path d="M205.815 229.561c-10.248 1.666-13.903 1.546-23.272 6.287-6.721 3.416-13.783 8.345-14.876 15.802-1.401 9.592 8.224 17.587 17.737 19.44 9.514 1.854 19.36-.239 29.036.547M307.697 214.255c8.67-.871 17.423.272 25.578 3.339 8.13 3.067 15.03 11.292 13.553 19.859-1.589 9.208-11.367 14.35-20.18 17.442-8.267 2.907-16.721 5.25-25.304 7.013M234.655 317.941l7.028 36.669h21.512l7.789-47.483-36.329 10.814z" fill="#B26D55"/><path d="M207.335 369.506c-.769-8.99.485-18.038 3.672-26.479.269-.917.783-1.744 1.486-2.391 1.024-.623 2.224-.893 3.416-.769 24.143 0 46.381-1.999 70.524-2.042 3.143 0 8.275 1.914 11.213 3.033 5.124 1.939 8.54 7.004 9.889 12.291 1.35 5.287 1.051 10.856.709 16.314" fill="#39B55D"/><path d="M213.612 285.893c-.145.134-.336.209-.534.209s-.388-.075-.534-.209c-2.451-2.153-5.294-3.827-7.839-5.877-2.733-2.212-5.21-5.048-5.825-8.541-1.153-6.492 5.483-10.882 10.872-6.714 1.47 1.231 2.753 2.67 3.809 4.271.021.038.055.068.096.084.042.016.087.017.129.003.042-.015.077-.043.1-.081.023-.038.032-.082.025-.126-.081-.921.023-1.849.306-2.729.284-.88.74-1.695 1.342-2.396 2.041-2.443 6.354-4.518 9.633-3.912 4.62.854 4.509 6.176 3.245 9.678-1.537 4.219-5.875 7.935-9.061 10.907l-5.764 5.433zM298.158 281.955c-.16.118-.359.17-.557.148-.197-.022-.38-.117-.51-.267-2.178-2.426-4.817-4.408-7.106-6.74-2.459-2.511-4.594-5.62-4.808-9.122-.401-6.577 6.696-10.182 11.572-5.424 1.319 1.391 2.427 2.968 3.288 4.681.021.037.053.066.092.083s.082.021.124.012c.041-.01.078-.033.105-.065.028-.033.044-.073.046-.116.029-.921.241-1.828.624-2.667.383-.838.928-1.593 1.605-2.218 2.306-2.196 6.832-3.759 10.018-2.776 4.492 1.375 3.766 6.645 2.109 9.976-2.007 4.023-6.747 7.218-10.248 9.806l-6.354 4.689z" fill="#F1673C"/><path d="M268.029 294.468c4.06-1.696 7.73-4.207 10.782-7.378 3.052-3.17 5.422-6.932 6.964-11.054.116-.227.179-.478.186-.732.006-.255-.044-.508-.149-.741-.104-.233-.258-.439-.453-.604-.194-.165-.423-.285-.669-.35-.246-.065-.504-.075-.755-.027-.25.047-.487.15-.692.301-.206.151-.375.346-.495.57-.121.225-.189.474-.201.729-1.353 3.575-3.411 6.843-6.052 9.607-2.64 2.765-5.81 4.97-9.32 6.485-.423.125-.781.41-.999.794-.219.383-.28.837-.171 1.264.125.424.41.782.794 1 .383.218.836.279 1.264.171l-.034-.035zM269.37 234.464c1.443 6.141 7.259 11.335 13.809 9.84 6.081-1.384 8.719-7.85 10.47-13.146l-2.434 1 11.897 6.073c1.912.973 3.612-1.914 1.708-2.887l-11.897-6.073c-.223-.123-.47-.195-.724-.21-.254-.015-.508.027-.744.123-.236.095-.447.243-.618.431-.172.188-.299.412-.373.655-1.29 3.895-3.041 9.054-7.302 10.574-5.03 1.794-9.445-2.69-10.521-7.268-.496-2.093-3.724-1.205-3.228.854l-.043.034z" fill="#010101"/><path d="M288.764 238.393l.419.316c.222.171.051.043-.069-.06l.282.222 1.025.855 2.366 1.956c1.486 1.238 2.963 2.502 4.526 3.638.386.215.84.271 1.266.158.427-.113.793-.387 1.023-.764.215-.385.272-.838.161-1.265-.111-.427-.383-.794-.759-1.024l-.427-.308c-.222-.171-.043-.042.077.051l-.291-.222-1.025-.854c-.794-.649-1.579-1.307-2.365-1.964-1.486-1.23-2.955-2.494-4.526-3.631-.385-.215-.838-.272-1.265-.161-.427.111-.794.384-1.024.759-.214.386-.271.84-.158 1.267.113.427.387.793.764 1.023v.008zM240.069 238.769c-1.076 4.578-5.491 9.054-10.521 7.26-4.27-1.512-5.978-6.679-7.311-10.574-.074-.243-.201-.465-.372-.652-.171-.187-.381-.334-.616-.43-.235-.095-.488-.138-.741-.123-.253.014-.499.084-.722.205l-11.904 6.073c-1.922.983-.231 3.87 1.708 2.888l11.896-6.065-2.451-1.008c1.759 5.313 4.389 11.753 10.47 13.154 6.55 1.503 12.366-3.715 13.809-9.84.495-2.092-2.733-2.989-3.228-.854l-.017-.034z" fill="#010101"/><path d="M222.212 240.708c-1.563 1.136-3.032 2.4-4.518 3.639l-2.366 1.956-1.024.854-.257.196c-.102.077.351-.265.043 0l-.427.316c-.376.231-.648.598-.759 1.025-.111.426-.054.879.161 1.264.231.376.598.648 1.024.76.427.111.88.053 1.265-.162 1.563-1.136 3.04-2.4 4.518-3.63l2.374-1.964 1.025-.855.247-.196.419-.308c.303-.261.504-.621.569-1.016.065-.395-.011-.8-.214-1.145-.204-.344-.521-.607-.899-.741-.377-.134-.789-.132-1.164.007h-.017zM318.834 226.281c3.106-.315 6.244-.025 9.24.854 2.946.743 5.978 1.709 7.686 4.391.465.661.767 1.423.881 2.223.114.8.038 1.616-.223 2.381-.596 1.515-1.491 2.895-2.631 4.057-1.966 1.923-4.31 3.418-6.883 4.39-2.989 1.247-6.098 2.204-9.07 3.519-1.4.615-.187 2.682 1.205 2.059 5.858-2.563 12.81-3.844 17.08-9.029 2.382-2.887 3.885-6.406 2.135-10.002-1.614-3.297-4.766-4.92-8.13-5.911-3.851-1.265-7.928-1.688-11.956-1.238-1.521.222-.854 2.562.631 2.306h.035z" fill="#010101"/><path d="M320.96 240.033c.933-.229 1.834-.573 2.682-1.025 1.161-.541 2.256-1.214 3.262-2.007.488-.328.902-.754 1.215-1.251.313-.497.519-1.055.604-1.636.077-1.58-1.358-2.503-2.639-3.024-1.874-.644-3.835-.998-5.816-1.051-.315.003-.617.13-.839.354-.223.224-.348.527-.348.842.011.308.137.601.354.819.217.219.509.347.816.36l1.017.085.58.06h.675l.342.051.563.103c.404.076.803.172 1.196.29l.512.171.197.077c-.248-.094.059 0 .094 0 .034 0 .299.154.435.231l.205.136c.282.163-.102-.111 0 0l.214.205c.162.146-.146-.247-.052-.068l.06.094c.154.231-.085-.273 0 0 .086.273 0-.265 0 0-.004.048-.004.097 0 .145 0 0 .086-.316 0-.179-.034.073-.057.15-.068.23-.043.197.145-.264 0-.094 0 0-.043.077-.06.12s-.111.171-.171.265c-.06.094.197-.231.043-.06l-.103.12c-.068.085-.145.162-.213.239-.068.077-.401.35-.598.529-.06.043-.162.146.068-.051l-.179.128c-.102.077-.205.154-.316.222-.111.069-.478.316-.717.462-.47.281-.948.538-1.435.777l-.786.367-.128.051c.359-.111.069 0 0 0l-.341.129c-.341.137-.692.246-1.051.324-.153.04-.296.109-.422.205-.126.095-.232.215-.311.352-.079.136-.131.287-.152.444-.02.156-.01.316.031.468.086.305.288.565.562.725.274.159.599.206.907.129l.111.137zM196.071 262.258c-4.162.527-8.388.166-12.4-1.059-2.878-.854-8.489-2.614-7.686-6.585.358-1.854 1.708-3.417 2.989-4.724 1.303-1.321 2.733-2.512 4.27-3.553 3.16-2.145 6.703-3.665 10.435-4.476 1.504-.333.854-2.639-.631-2.306-6.508 1.435-13.067 5.005-17.234 10.301-1.999 2.562-3.288 6.056-1.153 8.934 1.964 2.64 5.773 3.938 8.805 4.826 4.101 1.204 8.405 1.556 12.647 1.034 1.503-.188 1.521-2.563 0-2.392h-.042z" fill="#010101"/><path d="M191.109 246.935c-1.612.177-3.183.624-4.646 1.324-1.405.63-2.655 1.56-3.664 2.724-.506.612-.822 1.358-.91 2.147-.088.789.056 1.587.415 2.295.338.66.806 1.245 1.375 1.721.57.475 1.229.831 1.939 1.046 1.853.581 3.826.291 5.704 0 .308-.082.571-.282.731-.558.16-.275.204-.603.123-.911-.088-.304-.289-.562-.563-.721-.273-.159-.598-.207-.905-.133-1.546.231-3.254.496-4.74-.111.136.051-.248-.128-.291-.154-.147-.086-.29-.18-.427-.281.077.051.052 0-.059-.06l-.188-.18s-.308-.333-.231-.239c-.099-.137-.19-.28-.273-.427-.042-.071-.079-.145-.111-.222v-.06c-.056-.153-.099-.31-.128-.47v-.281-.043c0-.086 0-.162.051-.248.039-.12.094-.235.162-.342.168-.276.379-.524.624-.734.549-.5 1.154-.936 1.802-1.298 1.315-.752 2.766-1.234 4.27-1.418.314-.009.613-.138.836-.36.222-.223.351-.522.359-.836-.002-.317-.129-.619-.352-.843-.224-.224-.527-.351-.843-.353l-.06.026z" fill="#010101"/><path d="M257.098 250.949c2.084 5.356 4.466 10.711 6.157 16.067.092.306.111.629.056.943-.055.315-.183.613-.372.869-.19.257-.437.467-.721.611-.285.145-.599.222-.919.225l-7.686.06c-.288-.002-.573-.065-.835-.184-.263-.119-.497-.292-.688-.508-.191-.216-.335-.47-.421-.746-.086-.275-.113-.565-.08-.852l1.538-15.989c.051-.46.256-.888.581-1.217.325-.328.751-.538 1.209-.596.459-.057.923.042 1.319.281.395.239.699.604.862 1.036z" fill="#C05929"/><path d="M188.402 167.814l128.006-4.612-22.144-56.896h-83.299l-22.563 61.508zM213.783 340.994c27.557-2.88 55.311-3.406 82.958-1.571 1.528.102 1.528-2.289 0-2.392-27.647-1.835-55.401-1.309-82.958 1.572-1.52.153-1.529 2.562 0 2.391zM93.3084 496.571c-5.346-3.366-8.0703-10.472-5.8584-16.452 2.2118-5.979 9.1976-9.797 15.534-8.627v-2.297c-9.5987 3.203-16.9004-8.055-16.8065-16.426.0512-4.911 1.7592-10.104 5.4998-13.453 3.7405-3.348 9.1467-4.578 13.7497-2.562 1.392.623 2.562-1.444 1.204-2.067-2.498-1.078-5.237-1.474-7.9377-1.146-2.7006.327-5.2661 1.365-7.4345 3.008-4.8336 3.57-7.2249 9.575-7.4725 15.452-.4356 10.079 8.3607 23.292 19.8047 19.466 1.024-.342 1.246-2.076 0-2.298-7.4217-1.375-15.3724 2.563-18.2334 9.678-2.8609 7.115.2562 15.767 6.7211 19.799 1.3066.854 2.5107-1.247 1.2041-2.058l.0256-.017zM145.377 397.702c-2.236-.342-4.327-1.316-6.026-2.809-1.7-1.492-2.937-3.44-3.564-5.613-1.444-4.758.546-9.609 4.44-12.548 8.668-6.525 20.069-.094 21.598 9.96l.854-1.469c-3.467.632-6.371-2.793-6.55-6.039-.179-3.246 2.502-5.68 5.389-6.577 7.395-2.272 12.963 4.45 14.595 10.942.375 1.486 2.681.854 2.305-.641-1.178-4.681-3.843-9.225-8.181-11.608-1.861-1.022-3.958-1.539-6.081-1.499-2.124.041-4.199.637-6.02 1.73-3.416 2.144-5.269 6.132-3.937 10.079 1.332 3.946 4.962 6.679 9.112 5.919.306-.084.568-.285.727-.56.16-.275.206-.601.127-.909-.446-2.858-1.598-5.559-3.352-7.859-1.754-2.3-4.053-4.126-6.691-5.312-2.58-1.118-5.419-1.501-8.202-1.106-2.784.395-5.404 1.552-7.571 3.344-2.18 1.651-3.821 3.913-4.715 6.498-.894 2.584-1.001 5.377-.307 8.022 1.46 5.262 5.893 9.627 11.384 10.37 1.503.196 2.152-2.102.632-2.307l.034-.008zM327.083 369.711c11.154-4.339 24.63 5.586 23.733 17.545l1.196-1.196c-3.16-.299-5.38-3.015-6.055-5.979-.743-3.289.683-6.449 3.057-8.704 5.935-5.638 14.774-4.57 22.204-3.545 1.503.205 2.152-2.093.632-2.306-9.027-1.247-20.376-2.229-26.346 6.312-4.27 6.048-1.469 15.87 6.533 16.622.316-.004.618-.132.841-.355.223-.223.351-.525.355-.841.999-13.41-14.219-24.728-26.764-19.85-1.418.555-.803 2.861.64 2.306l-.026-.009zM376.009 392.825c3.194-1.751 6.977.58 8.54 3.476 2.195 4.006.931 9.105-.094 13.265-.053.203-.052.417.004.62.055.202.162.387.31.535.149.149.333.256.536.311.203.055.416.056.619.003 8.412-2.562 17.371 6.834 14.518 15.085-.504 1.46 1.802 2.092 2.298.64 3.416-10.002-7.396-21.097-17.473-18.031l1.469 1.469c1.281-5.202 2.562-11.565-.854-16.229-2.562-3.416-7.148-5.347-11.103-3.186-1.349.735-.145 2.802 1.205 2.059l.025-.017zM420.426 441.033c4.355-.495 7.746 3.417 7.951 7.542.213 4.34-2.272 8.414-4.996 11.574-5.046 5.807-11.824 9.838-19.335 11.497-1.298.291-1.033 2.435.316 2.341 5.44-.359 10.197 4.117 9.249 9.686-.187 1.134-.59 2.221-1.187 3.203-.547.854-1.708 1.546-2.144 2.417-.435.871.069 2.409.188 3.314l.581 4.51c.196 1.504 2.562 1.521 2.391 0l-.41-3.16c-.111-.854-.606-2.332-.41-3.161.248-1.007 1.281-1.776 1.862-2.716 1.391-2.286 1.923-4.993 1.503-7.636-.939-5.449-6.183-9.208-11.623-8.866l.325 2.34c9.351-2.109 18.344-7.841 23.365-16.152 2.34-3.869 3.707-8.755 1.836-13.085-1.605-3.733-5.295-6.543-9.462-6.065-1.512.179-1.529 2.563 0 2.392v.025z" fill="#153A23"/><path d="M401.928 428.528c4.1-1.554 9.625-2.562 13.357.479 2.562 2.075 4.15 6.526 1.708 9.31-1.008 1.153.675 2.853 1.708 1.708 2.451-2.818 2.306-6.833.512-9.959-2.118-3.716-6.242-5.381-10.393-5.347-2.582.057-5.132.575-7.532 1.529-1.426.546-.812 2.853.632 2.306l.008-.026zM210.666 366.047c-1.874-8.256-.595-16.914 3.586-24.275.145-.272.179-.589.095-.886-.084-.296-.278-.549-.544-.705-.265-.157-.58-.204-.88-.134-.3.07-.561.254-.729.512-4.489 7.924-5.851 17.242-3.817 26.12.35 1.503 2.656.854 2.306-.632h-.017zM222.741 362.562c-.787-2.511-.959-5.175-.499-7.767.459-2.591 1.536-5.034 3.138-7.121.156-.276.198-.602.117-.909-.082-.307-.28-.569-.552-.731-.277-.149-.599-.187-.903-.107-.303.081-.564.275-.729.543-1.769 2.36-2.953 5.107-3.453 8.015-.501 2.908-.303 5.892.575 8.709.47 1.461 2.776.854 2.306-.632zM238.412 366.414c.718-4.271-.094-8.883-.683-13.103-.589-4.219-1.127-8.883-2.776-12.88-.58-1.41-2.895-.795-2.305.632 1.571 3.809 2.101 8.2 2.681 12.248.359 2.435.641 4.878.794 7.338.196 1.702.196 3.422 0 5.125-.247 1.503 2.05 2.152 2.306.632l-.017.008zM246.713 345.641c.461 5.399.24 10.834-.657 16.178-.257 1.503 2.049 2.152 2.305.632.952-5.55 1.201-11.198.743-16.81-.128-1.52-2.519-1.529-2.391 0zM261.12 362.314c1.281-4.016 1.745-8.247 1.367-12.445-.136-4.19-1.166-8.302-3.024-12.061-.726-1.358-2.792-.153-2.058 1.205 1.819 3.416 2.494 7.397 2.716 11.206.321 3.87-.123 7.765-1.307 11.463-.512 1.452 1.794 2.076 2.306.632zM267.816 343.702c3.371 5.696 4.535 12.431 3.27 18.928-.299 1.504 2.007 2.144 2.306.632 1.409-7.12.154-14.509-3.527-20.764-.16-.274-.422-.474-.728-.555-.307-.081-.633-.036-.907.123-.274.16-.474.422-.555.729-.081.307-.036.633.123.907h.018zM296.963 342.506c3.673 5.834 5.26 12.742 4.5 19.595-.162 1.529 2.229 1.52 2.391 0 .779-7.277-.915-14.603-4.808-20.799-.854-1.298-2.886-.103-2.066 1.204h-.017zM288.363 362.306c-1.275-2.686-1.907-5.632-1.846-8.605.06-2.972.812-5.89 2.196-8.521.726-1.358-1.332-2.563-2.058-1.205-1.585 3.001-2.443 6.333-2.503 9.726-.061 3.393.676 6.753 2.153 9.809.666 1.384 2.724.171 2.058-1.204z" fill="#153A23"/><path d="M225.807 372.077c15.292-.956 30.576-1.993 45.852-3.109 7.566-.569 15.127-1.139 22.682-1.708 3.775-.291 7.552-.575 11.333-.854 2.903-.24 5.747-.513 8.258-2.102 1.289-.854.094-2.895-1.213-2.067-3.023 1.922-6.892 1.768-10.35 2.042l-10.394.854c-7.401.569-14.802 1.125-22.204 1.666-14.643 1.059-29.298 2.049-43.964 2.972-1.52.094-1.537 2.486 0 2.383v-.077zM107.92 434.67c-3.313-1.828-6.55-5.125-6.388-9.199.137-3.494 3.989-7.167 7.55-5.544.965.436 2.408-.555 1.64-1.64-1.179-1.64-2.357-3.972-1.367-5.979.777-1.563 3.023-2.332 4.27-.854.811.939 2.272-.069 1.999-1.162-.752-2.955-1.811-8.781 2.767-9.097 4.406-.299 6.609 4.339 8.181 7.688.529 1.127 2.203.495 2.229-.607l.23-8.541c0-1.051-.358-3.417.914-3.895 1.443-.504 2.827 1.435 3.57 2.349.973 1.196 2.656-.504 1.708-1.709-1.751-2.144-5.457-4.817-7.789-1.708-1.067 1.409-.734 3.707-.785 5.347l-.222 8.183 2.229-.598c-2.11-4.476-5.679-10.19-11.564-8.687-5.414 1.375-4.825 7.756-3.757 11.958l1.998-1.161c-1.896-2.195-5.32-1.76-7.233.213-2.562 2.691-1.35 6.885.563 9.55l1.632-1.632c-4.501-2.05-9.608 1.077-10.8719 5.681-1.5116 5.517 2.7759 10.694 7.3019 13.188 1.349.743 2.562-1.316 1.204-2.059l-.009-.085zM178.547 372.043c.861-2.547 2.465-4.778 4.604-6.407 2.139-1.629 4.716-2.582 7.4-2.735 2.684-.153 5.352.499 7.663 1.874s4.157 3.409 5.304 5.841c.691 1.376 2.749.171 2.066-1.204-1.385-2.837-3.585-5.197-6.318-6.778-2.734-1.58-5.876-2.31-9.026-2.095-3.15.214-6.164 1.363-8.658 3.3-2.493 1.937-4.353 4.573-5.341 7.572-.513 1.452 1.802 2.075 2.306.632zM226.089 476.976c-1.708-2.562-3.237-5.928-1.665-8.934 1.656-3.169 4.97-2.606 7.429-.786 3.784 2.81 10.061 9.635 6.832 14.606l1.879-.239c-1.836-1.563-1.708-4.271-.418-6.15 1.469-2.178 4.227-3.041 6.678-3.511 4.048-.786 10.419-1.512 12.896 2.674.159.274.421.473.728.554.307.081.633.037.907-.123s.473-.422.554-.728c.081-.307.037-.634-.123-.908-3.347-5.663-11.887-4.92-17.319-3.374-3.032.855-5.901 2.563-7.097 5.629-1.042 2.614-.717 5.74 1.503 7.628.132.125.289.219.462.276.172.056.355.074.535.051.18-.023.352-.086.505-.184.152-.097.281-.228.377-.382 2.161-3.417 1.051-7.243-.939-10.429-2.084-3.349-5.184-7.022-8.848-8.662-1.528-.744-3.286-.862-4.9-.329-1.615.533-2.957 1.674-3.742 3.182-2.024 3.784-.504 8.004 1.665 11.343.854 1.29 2.904.094 2.067-1.204h.034zM283.128 406.448c1.034-.467 2.153-.714 3.287-.726 1.134-.012 2.259.211 3.302.656 1.044.444 1.983 1.101 2.76 1.928.777.826 1.374 1.805 1.753 2.874.367 1.047.513 2.158.427 3.263-.06.803-.41 2.648-1.426 2.793-1.298.18-.803-1.571-.265-2.084.875-.686 1.954-1.062 3.066-1.067 4.27-.299 8.147 2.724 10.051 6.329 2.409 4.535 2.178 10.036 1.452 14.965-.222 1.503 2.075 2.152 2.298.64.854-5.603 1.058-11.659-1.708-16.818-2.204-4.151-6.653-7.508-11.478-7.534-2.152 0-4.791.632-6.038 2.563-1.042 1.589-.854 4.057.939 5.065 2.033 1.17 4.091-.487 4.911-2.315.859-2.287.789-4.819-.197-7.055-.523-1.283-1.295-2.45-2.27-3.434-.976-.985-2.135-1.767-3.413-2.302-1.278-.536-2.649-.814-4.034-.819-1.386-.005-2.759.263-4.041.789-1.409.581-.794 2.896.632 2.307l-.008-.018zM193.406 405.919c5.867 1.349 12.161-3.647 12.016-9.712 0-1.537-2.425-1.546-2.391 0 .111 4.476-4.655 8.405-8.984 7.406-1.503-.351-2.135 1.956-.641 2.306zM125.658 450.514c-2.75-2.152-7.447-.777-8.121 2.845-.735 3.937 3.936 6.927 7.327 5.125l-1.759-.709c.384 1.05-1.094 2.075-1.708 2.784-.517.516-.919 1.135-1.181 1.816s-.378 1.41-.34 2.139c.299 3.109 3.305 5.398 5.808 6.833.271.133.582.158.87.071.289-.088.534-.281.687-.541.152-.261.2-.569.135-.863-.066-.295-.24-.554-.488-.725-1.759-1.008-5.397-3.348-4.535-5.877.384-1.136 1.529-1.947 2.255-2.861.424-.448.721-1 .862-1.6.141-.6.121-1.227-.06-1.817-.053-.174-.145-.333-.268-.467-.123-.134-.274-.239-.442-.306-.169-.068-.351-.098-.532-.087-.181.012-.358.063-.517.151-1.631.854-4.15-.769-3.775-2.665.325-1.597 2.776-2.622 4.091-1.588 1.315 1.033 2.904-.744 1.708-1.709l-.017.051zM337.972 449.37c-.487 4.518-.649 9.396 1.033 13.726 1.683 4.331 4.911 6.142 9.317 7.201 1.324.324 3.724 1.016 3.809 2.776.086 1.759-2.203 1.913-3.262 2.562-.811.513-1.504 1.192-2.035 1.991-.532.799-.888 1.701-1.048 2.647-1.178 5.621 3.655 11.54 1.102 16.819-.666 1.375 1.4 2.562 2.066 1.204 2.733-5.663-1.494-10.779-.982-16.511.013-.749.183-1.487.501-2.166.318-.679.776-1.282 1.344-1.772.854-.649 2.041-.785 2.963-1.366.773-.478 1.344-1.222 1.606-2.093.261-.87.194-1.806-.188-2.631-.854-2.101-2.801-3.1-4.876-3.647-2.87-.76-5.389-1.247-7.114-3.895-2.742-4.211-2.366-10.053-1.845-14.819.162-1.521-2.229-1.512-2.391 0v-.026zM173.457 447.764c1.56 2.68 2.227 5.788 1.905 8.873-.322 3.085-1.618 5.987-3.699 8.287-.126.13-.222.287-.279.459-.058.172-.076.354-.053.534.023.18.087.352.186.504.098.152.23.28.385.374 5.645 2.391 6.397 9.395 6.03 14.768-.427 6.269-1.649 12.906 1.989 18.501.854 1.29 2.904.094 2.067-1.204-4.142-6.381-1.221-14.06-1.631-21.081-.299-5.185-2.092-10.865-7.25-13.043l.247 1.871c2.443-2.68 3.971-6.068 4.361-9.674.389-3.605-.378-7.242-2.192-10.382-.16-.274-.424-.473-.731-.553-.308-.08-.634-.035-.908.126s-.473.424-.553.732c-.081.307-.035.634.126.908z" fill="#153A23"/><path d="M76.6383 351.996c1.1975-4.295 2.6987-8.499 4.492-12.582.2989-.623.854-1.349 1.5031-1.076.649.273.5295 1.068.3843 1.708-.911 3.844-1.8276 7.685-2.7499 11.523 3.5912-.335 7.2098.216 10.5384 1.606.0908.042.1686.109.2253.191.0567.083.0902.18.0972.28.007.1-.0129.2-.0576.29-.0447.09-.1126.166-.1966.221-1.9993 1.282-4.3493 1.906-6.721 1.785-.854 0-1.819-.145-2.4339.436-.3626.424-.5966.942-.6747 1.495-.7878 3.31-2.0051 6.503-3.6209 9.498-.0657.113-.1641.204-.2823.26-.1182.056-.2506.076-.3799.055-.1293-.02-.2494-.079-.3446-.169-.0952-.09-.161-.206-.1888-.334-.6747-2.981.6661-6.338.5892-9.524.0232-.357-.0664-.713-.2562-1.016-.3119-.326-.73-.529-1.1785-.573-3.374-.751-6.6858-1.759-9.9065-3.015-.854-.333-1.8958-1.298-1.2553-1.981.215-.189.4838-.306.7686-.334 1.9979-.405 4.0569-.405 6.0549 0l5.5937 1.256zM48.7209 381.558c-3.2452 3.075-2.451 9.584 3.1171 8.021 8.2326-2.306 2.451-13.291-3.1171-8.021zM57.4744 244.09c-4.4579 4.211-3.3562 13.137 4.2701 10.993 11.2728-3.16 3.3562-18.21-4.2701-10.993zM167.222 90.8887c-.232-4.445-.143-8.901.265-13.3334.077-.6747.393-1.5545 1.076-1.4947.683.0598.854.8541.905 1.4691.371 3.9291.729 7.864 1.077 11.8045 3.296-1.4714 6.903-2.108 10.504-1.8535.1.0096.196.0463.277.1061.081.0599.144.1406.183.2337.038.093.051.1948.036.2944s-.056.1934-.12.2712c-1.485 1.8514-3.508 3.1948-5.791 3.8437-.854.2306-1.776.4356-2.177 1.1958-.206.518-.259 1.0841-.154 1.6314.318 3.4194.183 6.866-.401 10.25-.026.129-.09.247-.184.339-.094.092-.214.153-.344.175-.129.023-.263.005-.382-.05-.119-.056-.219-.146-.286-.259-1.588-2.614-1.392-6.2184-2.477-9.2079-.106-.3332-.304-.6294-.572-.8542-.405-.2001-.865-.2573-1.306-.1623-3.438.3658-6.898.4714-10.351.3161-.931 0-2.203-.6321-1.819-1.4692.144-.2505.362-.4503.623-.5722 1.771-1.0098 3.725-1.6573 5.748-1.9048l5.67-.7688zM153.089 117.735c-2.468 2.332-1.862 7.277 2.374 6.09 6.251-1.751 1.862-10.096-2.374-6.09zM343.147 77.1881c-4.646 4.3989-3.501 13.6665 4.458 11.4799 11.768-3.3056 3.51-19.0135-4.458-11.4799zM363.609 97.2266c-2.468 2.3318-1.853 7.2774 2.374 6.0904 6.252-1.751 1.862-10.1306-2.374-6.0904zM102.19 260.413c-2.468 2.332-1.862 7.278 2.366 6.09 6.251-1.751 1.861-10.096-2.366-6.09zM430.529 262.856c.004-3.43.252-6.855.743-10.25.085-.521.367-1.187.854-1.11.487.077.615.683.64 1.162.12 3.049.239 6.09.35 9.139 2.598-1.002 5.402-1.346 8.165-.999.076.011.149.042.209.091.06.049.105.113.132.186.026.073.032.152.017.228-.015.076-.05.146-.102.204-1.216 1.367-2.828 2.319-4.612 2.724-.64.146-1.383.274-1.708.854-.18.39-.242.823-.179 1.248.101 2.639-.143 5.281-.726 7.858-.024.098-.077.187-.152.254-.076.068-.17.11-.27.122-.101.012-.203-.007-.292-.054-.089-.047-.162-.121-.208-.211-1.128-2.076-.854-4.852-1.546-7.201-.064-.267-.204-.51-.401-.7-.303-.172-.656-.235-1-.179-2.665.143-5.337.086-7.993-.171-.709-.069-1.708-.573-1.341-1.213.125-.183.3-.325.504-.41 1.411-.724 2.953-1.154 4.535-1.264l4.381-.308zM455.415 235.429c-3.246 3.075-2.451 9.584 3.117 8.021 8.224-2.306 2.451-13.282-3.117-8.021zM236.328 31.9007c-3.245 3.075-2.451 9.5836 3.118 8.0205 8.215-2.3062 2.45-13.2821-3.118-8.0205zM427.258 375.989c-5.235 4.954-3.945 15.435 5.022 12.924 13.254-3.724 3.945-21.406-5.022-12.924z" fill="#fff"/></svg>