<svg width="492" height="423" fill="none" xmlns="http://www.w3.org/2000/svg"><g clip-path="url(#clip0)"><path d="M370.527 63.6429C477.288 158.545 493.769 239.143 488.704 267.589c-22.831 127.125-122.839 150.349-152.826 152.036-39.553 2.17-103.062-.723-144.866.402-114.3983 6.509-160.7845-57.697-169.6277-90.563C-33.2823 194.946 43.3314 91.3661 88.5118 56.4108 204.598-44.2767 324.945 19.2858 370.527 63.6429z" fill="#F7BC28"/><path d="M189.645 157.902c-3.859 15.589-10.451 31.5-23.716 40.58-12.3 8.438-29.021 9.402-42.768 3.536s-24.3591-17.92-29.7453-31.822c-4.0197-10.446-4.8236-23.464 2.8137-31.741 4.0196-4.339 9.6466-6.669 15.1946-8.839l36.015-14.384c.801-.492 1.757-.666 2.68-.488.923.179 1.745.697 2.305 1.452l37.543 35.518" fill="#32142A"/><path d="M150.655 122.464c-4.03 4.001-8.887 7.073-14.23 9-5.354 1.852-10.916 3.04-16.56 3.536-2.251.241-4.502.482-6.432 1.527-1.64 1.01-2.995 2.42-3.939 4.098-1.837 3.264-2.805 6.943-2.814 10.688-.397 8.751 2.403 17.348 7.879 24.187 6.994 8.759 17.525 15.027 28.78 15.991 11.496.964 23.716-4.741 29.022-15.187 1.045-2.09 1.688-9.081-1.608-1.366-3.698 8.598-14.953 12.857-24.198 13.017-10.531.161-20.661-5.303-27.575-12.937-3.456-3.777-8.2-8.277-9.486-13.179-.563-2.481-.886-5.01-.965-7.553-.216-2.307-.107-4.634.322-6.911.804-3.375 5.065-7.232 8.2-8.277 2.01-.643 4.18-.562 6.271-.643 7.235-.321 14.149-3.375 20.017-7.553 1.447-1.045 2.894-2.17 4.341-3.295.641-.479 1.209-1.047 1.689-1.687.222-.343.353-.737.381-1.145.028-.407-.048-.815-.221-1.186-.196-.314-.507-.541-.867-.631-.36-.089-.741-.036-1.062.149-.08 0-.08.081-.161.081l3.216-.724z" fill="#7F4341"/><path d="M122.598 157.58c-.402-3.214-1.045-7.312 1.286-9.964 2.332-2.652 6.432-2.812 9.728-2.732 4.1.161 11.013-1.607 14.953-3.616 3.376-1.688 4.019.161 6.833-2.17 1.769-1.527-.804-4.018-2.573-2.571-2.974 2.571-6.511 4.982-10.45 5.544-4.261.643-8.763-1.205-13.024-.723-3.537.402-7.075 1.848-9.084 4.982-2.171 3.295.964 8.759 1.447 12.456.004.467.192.915.522 1.245.331.331.779.518 1.246.523.965.08-.723-2.009-.884-2.974zM166.331 166.58c3.779-3.616 4.502-4.259 6.914-8.919.222-.421.279-.909.16-1.37-.119-.461-.405-.86-.803-1.121-.804-.482-.724-.884-1.206 0-2.221 4.485-5.153 8.583-8.682 12.134-.724.642-4.985 2.732-4.261 3.375.723.642 4.904-1.527 5.627-2.17l2.251-1.929z" fill="#7F4341"/><path d="M169.306 313.393c7.155 3.536 15.355 4.741 23.233 4.178 6.11-.401 15.757-1.125 18.49-7.714 5.789-14.062 11.577-29.491 17.445-43.875 1.849-4.5-3.054-7.312-6.511-8.759-6.14-2.363-12.744-3.271-19.294-2.652-5.146.402-14.391 2.09-17.365 6.991l-1.528 3.054-14.47 48.777z" fill="#E48929"/><path d="M174.773 315.643l.884.08c4.663.322 27.494 1.527 35.774-6.83l1.045-2.652-37.703 9.402z" fill="#C05929"/><path d="M223.731 275.625c1.367.402 2.653.804 3.94 1.286l.482.16c.257.103.5.238.723.402.242.161.483.241.724.402l.322.241c.402.241-.242-.161.08.08.83.649 1.48 1.499 1.888 2.469.408.971.561 2.03.443 3.076-.402 4.821-4.823 7.875-9.325 8.598-.483.081.321 0-.161 0l-.563.081h-2.09c-.161 0-.884-.081-.643-.081-1.351-.156-2.66-.564-3.859-1.205-.592-.327-1.286-.417-1.942-.253-.656.164-1.226.57-1.595 1.137-.174.294-.287.62-.332.959-.046.338-.023.683.067 1.012.09.33.245.638.456.907.211.269.474.492.774.657 2.927 1.496 6.212 2.152 9.489 1.897 3.278-.256 6.421-1.413 9.081-3.343 2.894-2.17 5.145-5.223 5.628-8.839.32-1.729.248-3.507-.211-5.204-.46-1.696-1.294-3.268-2.442-4.6-2.412-2.812-6.19-3.937-9.647-4.982-3.136-.803-4.502 4.179-1.287 5.143z" fill="#E48929"/><path d="M179.676 282.134c.315 2.178 1.069 4.27 2.216 6.148 1.147 1.879 2.663 3.505 4.457 4.78 3.537 2.652 9.647 4.259 13.988 4.661-1.447 2.089-5.627 2.973-8.119 3.616-2.502.697-5.151.669-7.638-.08-3.698-1.205-6.431-4.42-7.798-8.036-1.229-3.674-1.506-7.6-.804-11.411" fill="#C05929"/><path d="M146.716 120.375c-5.467-27.0001 19.776-53.0358 44.537-59.3037 49.602-12.4553 55.792 61.3927 13.184 87.9107-9.004 5.545-21.706-5.384-31.915-8.196-10.21-2.813-19.295-9.965-23.636-19.608" fill="#32142A"/><path d="M183.937 69.1875c-15.837 2.25-15.355-27.1607-.241-30.1339 6.029-1.2054 13.104.8839 17.124 5.5446 2.492 2.8929 7.154 21.375.643 22.1786-5.869.7232-11.738 1.5268-17.526 2.4107z" fill="#32142A"/><path d="M143.42 145.527c-.402.723 7.155-2.974 7.396-2.25 1.849 4.901 5.949 8.196 10.451 10.768 4.904 2.812 13.666 10.446 19.294 10.446 12.461-.161 24.68-15.027 32.559-24.67 8.36-10.205 10.933-22.259 13.184-35.196.482-2.813.563-5.9465-1.126-8.1965-.991-1.2185-2.258-2.1827-3.698-2.8125-13.506-6.8304-30.388-2.8929-42.768 5.7857-11.094 7.8753-19.214 18.9643-26.851 30.2143-2.251 3.375-3.779 7.875-8.441 15.911z" fill="#FFC9A0"/><path d="M154.594 129.777c-6.833-.643-11.576-8.839-9.325-15.268 2.251-6.429 10.451-9.884 16.882-7.554 6.431 2.331 10.451 9.724 9.486 16.554M132.888 159.75l17.043-23.143c.33-.588.879-1.021 1.528-1.205.327.021.647.111.938.263.29.152.546.364.75.621 4.02 3.696 8.361 8.116 7.959 13.58-.161 2.652-1.528 5.063-2.814 7.393l-9.888 17.679-15.516-15.188z" fill="#FFC9A0"/><path d="M128.145 151.714c-50.9686 22.741-78.4627 76.099-91.4862 127.768-4.9843 19.607-7.3157 39.134-8.9235 59.223-.2412 2.974-2.0099 49.099-3.5373 49.099 42.6882.08 66.0824-5.866 108.69-5.786-9.165-78.509 4.181-142.393 20.741-207l-25.484-23.304z" fill="#FAC7B7"/><path d="M228.716 95.2231c-.293-.8653-.67-1.6997-1.126-2.491-4.823-9-16.4-11.5715-25.806-9.8036-11.657 2.25-21.866 9.8036-30.87 18.1605-3.538 3.295-9.889 8.518-10.692 11.089-.804 2.572 16.641 9.322 20.339 9.804 9.727 1.366 19.857.08 29.263-2.732 4.823-1.447 12.058-2.732 16.158-5.786.965-.803 5.065-11.732 2.734-18.2409z" fill="#32142A"/><path d="M152.343 331.795c3.537-8.518 12.541-13.661 21.545-15.911 9.004-2.25 18.41-2.411 27.414-4.661 9.004-2.25 18.088-7.232 21.706-15.669 1.447-3.375.884-8.759-2.814-9-1.396.049-2.743.526-3.859 1.366-4.582 2.812-8.762 6.268-13.506 8.759-4.743 2.491-10.29 4.098-15.515 2.812-5.226-1.286-9.808-5.946-9.647-11.33.253-2.313.711-4.598 1.366-6.831.402-1.446-4.984 1.527-6.431 3.134-1.447 1.608-2.975 3.215-3.618 5.304-3.939 12.696-16.48 20.33-28.057 26.839" fill="#FFC9A0"/><path d="M153.227 124.312c-2.411-2.169-4.984-6.107-3.135-9.401.888-1.441 2.196-2.575 3.749-3.25 1.552-.675 3.274-.859 4.933-.527 1.126.241 1.608-1.527.483-1.768-4.02-.723-8.683.884-10.692 4.661-2.251 4.018.321 8.839 3.457 11.571.803.804 2.09-.482 1.205-1.286z" fill="#32142A"/><path d="M156.041 120.696c-.241-.321-.482-.723-.723-1.044-.124-.206-.231-.421-.322-.643-.08-.161-.161-.241-.161-.402-.091-.203-.145-.421-.161-.643.081.161 0-.08 0-.08v-.643c-.005-.044 0-.088.014-.129.014-.042.036-.08.067-.112 0-.08 0-.08.08-.161.081-.08.081-.16.161-.241.08-.08.161-.241.08-.08l.161-.161.081-.08c.08-.081.16-.081.241-.161-.161.08 0 0 .08 0 .081 0 .161-.08.241-.08h1.447l.242.08.562.161c.235.085.494.074.72-.032.226-.105.401-.296.486-.531.085-.234.074-.493-.031-.719-.106-.226-.297-.401-.532-.486-.08 0-.08 0-.16-.08-.958-.319-1.978-.402-2.975-.241-.485.072-.948.254-1.352.533-.404.278-.739.646-.979 1.074-.239.453-.384.951-.425 1.462-.042.511.021 1.025.184 1.511.297 1.038.818 1.998 1.527 2.812.15.188.363.315.599.359.236.044.479.002.687-.118.122-.157.2-.344.228-.541.029-.197.005-.398-.067-.584z" fill="#32142A"/><path d="M206.286 301.5c2.492-1.527 4.824-3.134 7.236-4.821 3.537-2.491 7.315-4.822 9.647-8.599.884-1.446-1.367-2.732-2.251-1.285-2.171 3.455-5.869 5.625-9.085 7.875-2.251 1.607-4.582 3.134-6.913 4.58-1.367.884-.081 3.134 1.366 2.25zM211.833 304.152c2.614-1.612 5.088-3.44 7.396-5.465 2.171-2.008 4.181-4.339 6.191-6.589 1.125-1.205-.724-3.053-1.849-1.848-2.01 2.17-3.94 4.42-6.11 6.429-2.141 1.923-4.456 3.645-6.914 5.142-1.367.965-.08 3.215 1.286 2.331z" fill="#EFB086"/><path d="M219.792 266.545c-1.206.08-2.331 0-3.537 0-2.573 0-5.145-.081-7.718-.322-5.296-.384-10.53-1.381-15.596-2.973-1.447-.482-3.216-1.527-2.733-2.893.321-.803 1.286-1.205 2.17-1.527 9.487-3.053 14.873-3.134 28.379.965 2.01.643 6.833 2.973 4.743 4.982-.484.443-1.061.772-1.688.964-1.294.46-2.648.73-4.02.804zM196.237 126c4.422-1.768 9.808-1.607 14.471-.803.279.095.575.134.87.112.295-.021.582-.102.845-.237.262-.135.495-.322.684-.549.189-.227.33-.49.415-.773.562-1.607-1.126-2.652-2.493-3.134-4.019-1.366-8.441-.964-12.46.241-2.038.657-4.005 1.519-5.869 2.572-1.206.723-4.341 2.169-4.1 3.937.322 2.411 6.029-.723 7.074-1.205l.563-.161z" fill="#32142A"/><path d="M179.516 113.304c8.843.482 13.908.723 22.429-2.009 6.409-1.964 12.254-5.437 17.043-10.125 2.573-2.6521 3.377-8.7592 4.181-12.4556.482-2.25-1.769 1.6071-2.895 4.2589-2.331 5.625-5.627 7.8747-10.611 10.8487-5.776 3.545-12.3 5.691-19.053 6.267-5.145.322-9.567.884-18.973.804-2.331 0 1.367 2.009 3.698 2.17l4.181.241zM164 93.6161c1.769-3.9375 4.743-6.9911 8.12-9.6429 5.305-4.2694 11.176-7.7848 17.445-10.4464 3.055-1.2857 6.431-2.8125 9.727-3.375 3.135-.5625 6.592 1.3661 9.326 2.6518 1.418.5345 2.767 1.2359 4.019 2.0893.653.4951 1.155 1.1632 1.447 1.9285.322 1.5268-1.125 1.6072-2.331 1.6875-5.949.2411-12.22.4018-18.088 1.8482-5.869 1.4465-10.692 4.8215-15.436 8.5983-.804.6428-3.135 3.4553-2.492 4.0982.643.6428 5.547-4.259 6.351-4.9018 3.099-2.6237 6.714-4.5675 10.612-5.7054 5.306-1.7678 11.898 0 17.445-.241 2.894-.1608 10.29.6428 9.486-.9643-.804-1.6072-3.858-8.8393-6.833-10.3661-3.018-1.614-6.198-2.9068-9.486-3.8571-1.38-.4151-2.828-.5517-4.261-.4018-1.253.236-2.489.5581-3.698.9643-6.887 2.0988-13.265 5.6009-18.731 10.2857-6.271 5.4643-12.461 11.0089-15.838 18.7232-1.045 2.0893 2.251-.8036 3.216-2.9732z" fill="#7F4341"/><path d="M186.349 101.33c8.763 2.411 17.445-.08 22.992-7.4728.563-.8036 2.733-5.0625 2.332-5.0625-.402 0-1.608 2.1696-2.171 2.9732-4.582 6.1071-15.757 9.1611-22.992 8.3571-6.432-.6428-2.492.643-.161 1.205z" fill="#7F4341"/><path d="M161.427 301.821l2.01-2.25 8.2 16.956-3.617 1.285-6.593-15.991zM160.222 153.563l-9.406-10.206 5.386 17.759 4.02-7.553z" fill="#EFB086"/><path d="M202.267 130.179c-2.171.16-4.904 1.848-4.904 3.857 0 2.652 3.537 1.527 4.743.643.884-.643 2.492-1.607 2.572-2.813.081-1.205-1.045-1.768-2.411-1.687zM212.718 136.929c-1.93.964-3.859 3.535-3.055 5.464 1.045 2.491 3.859.08 4.662-1.286.563-.884 1.689-2.411 1.287-3.616-.402-1.205-1.689-1.205-2.894-.562z" fill="#32142A"/><path d="M24.198 360.964c.8843-9.723-1.1255-21.616-1.2059-31.339-.0804-7.875-.5627-13.821 1.9294-21.214.1954-.534.5872-.972 1.0953-1.226.5081-.254 1.0941-.304 1.6381-.14.3133.114.5979.296.8339.532.236.236.4178.52.5327.834 2.3314 6.83 6.2706 13.821 7.7981 20.973.0161.129.0588.253.1253.364.0666.112.1555.209.2613.284.1057.076.226.128.3532.155.1271.027.2585.027.3857 0 .1659-.035.3198-.113.4466-.226.1268-.112.2222-.256.2769-.416 1.2863-4.42 1.4471-9.161 2.0098-13.741.324-3.308 1.1932-6.539 2.5726-9.563.4608-.882 1.2465-1.552 2.1913-1.866.9448-.315 1.9749-.251 2.8734.179.4379.198.829.487 1.1476.847s.5576.783.7014 1.242l3.6176 9.803c.6601 1.843 1.4389 3.642 2.3314 5.384 1.5942 2.543 3.6371 4.776 6.0294 6.59 11.1745 9.241 25.8863 13.419 40.3569 14.062 14.471.643 28.941-2.17 42.929-5.786l-12.621 24.75 1.045 62.92H24.0372l.1608-63.402z" fill="#E48929"/><path d="M60.8568 360.804c-4.1804-9.322-9.5666-25.715-11.898-34.393-5.0647-18.724-9.0843-37.929-7.6373-57.295l3.7785-6.991c13.9882 30.937 29.5039 63.643 58.204 81.804 1.367.883 2.814 1.767 3.618 3.133.723 1.206 23.554-.803 23.635.643.402 4.5 1.447 8.599 2.412 13.661l-72.1122-.562z" fill="#E48929"/><path d="M91.1647 240.991c2.7333-21.455 14.3903-42.187 15.1943-63.803.08-2.572 0-5.224-1.528-7.313-3.939-5.545-12.7016-1.928-17.8467 2.411-28.2176 23.544-46.3863 59.544-45.8235 96.268.1608 10.205 1.6882 20.33 3.698 30.375 3.2961 16.634 8.2 33.83 20.2588 45.803 15.1138 14.947 38.7494 18.322 59.4904 13.982 20.741-4.339 39.472-15.428 57.721-26.276-8.682-21.456-17.364-42.858-26.047-64.206-10.611 6.509-21.706 13.259-34.086 14.465-15.194 1.446-27.896-7.715-30.7097-22.822-1.1112-6.237-1.2198-12.612-.3216-18.884z" fill="#FAC7B7"/><path d="M94.3 170.518c3.1353-1.125 6.592-1.366 9.406.643 2.492 1.687 3.698 4.821 3.939 7.714.149 2.058-.068 4.126-.643 6.107-.096.331-.057.685.109.987.166.301.445.524.775.62.331.096.686.057.987-.109.302-.166.525-.444.621-.775 1.198-3.97.97-8.233-.643-12.053-.704-1.659-1.819-3.113-3.239-4.223-1.42-1.111-3.1-1.842-4.881-2.125-2.4407-.336-4.9272-.06-7.2349.803-1.4471.482-.8039 2.973.8039 2.411z" fill="#F9A793"/><path d="M47.6725 311.545c-.8843-3.536 31.2726 2.571 33.9255 3.214 5.6274 1.286 7.1549 5.143 8.7627 10.286 3.5373 11.651 7.2353 23.303 10.2103 35.116.08-.081-40.3573 1.366-52.8985-48.616z" fill="#F9B7A5"/><path d="M155.8 267.027c-4.884 2.916-9.992 5.442-15.275 7.553-4.853 2.073-9.851 3.792-14.952 5.143-4.838 1.38-9.97 1.352-14.793-.08-5.466-1.607-10.692-4.822-13.6663-9.723-3.1548-5.442-4.7927-11.63-4.7431-17.92 0-.341-.1355-.668-.3768-.909-.2412-.241-.5684-.377-.9095-.377-.3411 0-.6683.136-.9095.377-.2413.241-.3768.568-.3768.909-.014 5.871 1.3054 11.668 3.8588 16.955 2.7334 5.625 7.3162 9.483 13.0232 11.974 5.345 2.386 11.29 3.086 17.044 2.009 5.108-1.194 10.109-2.807 14.952-4.822 6.282-2.335 12.337-5.24 18.089-8.678l-.965-2.411z" fill="#F9A793"/><path d="M207.09 135.321c-.321.241-.643.483-.884.643-3.296 2.813-6.11 6.429-9.084 9.643-.515.428-.858 1.027-.965 1.688 0 .803.723 1.446 1.447 1.928 2.572 1.848 5.547 3.777 9.004 1.286 1.347-1.035 2.333-2.469 2.814-4.098 1.107-3.458 1.703-7.058 1.768-10.688.081-2.812-2.412-1.527-4.1-.402z" fill="#E48929"/><path d="M202.347 395.839s19.214-151.553 160.543-163.205l8.039-12.616L418.361 216l6.11 16.634s61.58 35.839 53.541 107.437l-67.69 27.965v30.616l-207.975-2.813z" fill="#39B55D"/><path d="M418.441 216s-4.582-40.661-5.225-44.437c-1.367-7.313-2.573-20.25-5.628-27-4.662-10.286-17.364-15.509-28.298-12.697-12.461 3.134-21.143 15.83-25.966 27-4.502 10.366-14.551 41.705-4.502 51.268 7.476 7.152 22.67 2.732 30.468-1.688l-1.849 11.17 41-3.616z" fill="#B26D55"/><path d="M408.875 172.527c.241-3.134 3.215-5.223 6.109-6.429 2.06-.954 4.328-1.368 6.592-1.205 1.124.091 2.211.444 3.174 1.03.963.586 1.776 1.389 2.373 2.345.626 1.184.904 2.521.804 3.857-.16 4.018-2.652 7.554-5.145 10.768-3.537 4.741-7.396 9.723-12.943 11.812" fill="#B26D55"/><path d="M410.322 368.036c-1.206-20.813-2.412-41.706-.242-62.518 2.171-20.813 3.055-55.447 14.391-72.884 15.354 9.321 37.302 33.027 44.135 49.66 6.672 16.152 12.059 27.563 9.406 57.777l-67.69 27.965z" fill="#39B55D"/><path d="M362.89 232.634l-7.637 11.812-4.18-10.526c-.081.08 8.2-1.286 11.817-1.286z" fill="#194429"/><path d="M349.867 180.804c-1.281 3.99-2.091 8.116-2.412 12.294-.095 1.05.099 2.106.563 3.054.088.194.227.36.402.482.207.066.425.093.643.08 2.974-.16 6.029-.321 8.762-1.527.48-.171.898-.478 1.206-.883.156-.264.258-.557.299-.86.041-.304.022-.612-.057-.908-.804-5.063-4.422-8.518-6.914-13.42-.151-.232-.381-.401-.648-.475-.266-.074-.551-.048-.799.073-.096.05-.181.118-.25.2-.069.083-.121.179-.152.282-.241.483-.402 1.045-.643 1.608z" fill="#C05929"/><path d="M478.012 340.072c-.512 20.798-3.756 41.439-9.647 61.392-3.618 12.536-7.236 35.84-17.928 44.518-10.049 8.036-25.886 1.688-36.257-2.411-13.666-5.383-27.494-9.401-41.16-14.464-17.767-6.589-44.538-10.446-64.153-8.759-9.567.884-13.506-6.107-22.992-5.143-1.689.161-3.618.322-4.985-.642-1.041-.821-1.845-1.902-2.331-3.134l-4.663-9.241c-.798-1.277-1.216-2.754-1.206-4.259.161-2.331 2.171-4.099 4.181-5.384 10.29-6.911 22.59-10.125 34.89-11.813 34.568-4.741 68.976 3.054 99.365 20.17.321-11.089.643-17.92 1.286-33.75l65.6-27.08z" fill="#B26D55"/><path d="M336.843 411.75c4.824 1.687 17.526 1.366 20.822 4.5 3.457 3.214-26.047 4.42-29.665 4.821-28.459 2.652-56.918 4.34-85.457 5.465-27.172 1.044-56.355 4.419-83.286.321-11.014-1.687-14.792-6.429-15.355-17.437-1.286-26.92-2.492-53.92-3.779-80.84-.111-2.616.733-5.183 2.374-7.223 1.642-2.04 3.97-3.414 6.55-3.866 47.115-7.788 94.891-10.857 142.616-9.161 1.735.055 3.392.737 4.663 1.919 1.271 1.181 2.07 2.784 2.25 4.51 1.287 13.5 6.11 44.839 7.075 48.455 2.733 10.206 5.627 20.732 11.094 29.813 4.824 8.196 8.12 14.625 20.098 18.723z" fill="#194429"/><path d="M411.608 172.848c1.613-.49 3.175-1.136 4.663-1.928 1.366-.563 3.376-1.447 4.823-.563.884.482.804 1.527.724 2.411-.129 1.007-.344 2.002-.643 2.973-.576 1.941-1.444 3.784-2.573 5.464-1.364 1.932-3.225 3.459-5.386 4.42-1.045.482-.161 2.009.884 1.527 4.422-2.009 7.316-6.188 8.682-10.768.318-1.135.56-2.289.724-3.456.222-1.13.022-2.302-.563-3.294-1.286-1.768-3.698-1.688-5.547-1.125-2.17.643-4.18 1.928-6.351 2.491-.112.034-.217.091-.307.167-.09.076-.163.169-.216.275-.052.105-.083.22-.09.337-.007.118.01.235.05.346.074.233.227.433.432.565.206.132.451.188.694.158z" fill="#32142A"/><path d="M410.643 177.348c.576-.179 1.14-.393 1.688-.643.303-.084.599-.191.885-.321.16-.08.321-.08.482-.161l.161-.08s.241-.08.08 0h.563c.08 0 .241.08.08 0-.16-.08.081.08.081.08l.16.161.081.161c0 .08.08.16.08.241-.161-.241 0 .08 0 .08v.08c-.08-.16 0-.16 0 0v.322c0 .08-.08.161 0-.08v.08c.004.112-.024.224-.08.321l-.081.161c-.093.195-.201.383-.321.563l-.161.321-.08.08c-.161.161.161-.16 0 .081-.302.366-.624.715-.965 1.044-.17.181-.359.342-.563.482l-.08.081-.08.08-.322.241c-.384.271-.787.512-1.206.723l-.322.161c-.08 0-.16.081 0 0l-.16.081c-.161.08-.322.08-.483.16-.116.032-.225.086-.32.16-.095.073-.175.165-.234.27-.06.104-.099.219-.114.339-.015.119-.006.24.025.356.032.116.086.225.16.32.074.095.165.175.27.235.104.059.22.098.339.113.119.015.241.007.357-.025.901-.236 1.747-.645 2.492-1.205.949-.639 1.813-1.395 2.572-2.25.747-.821 1.199-1.867 1.287-2.973-.012-.634-.243-1.244-.653-1.728-.41-.483-.975-.809-1.598-.924-1.528-.161-2.975.803-4.422 1.125-.116.031-.225.086-.32.159-.095.074-.175.166-.235.27-.059.105-.098.22-.113.339-.015.119-.007.241.025.357 0 .482.482.723 1.045.562z" fill="#32142A"/><path d="M361.282 254.411c4.583-9 9.326-17.84 14.31-26.679.804-1.446-1.447-2.732-2.251-1.286-4.904 8.759-9.647 17.679-14.31 26.679-.723 1.527 1.528 2.812 2.251 1.286zM396.173 256.179l3.135-32.786c.161-1.688-2.412-1.607-2.573 0l-3.135 32.866c-.161 1.607 2.412 1.607 2.573-.08zM408.071 246.616v-21.214c0-.341-.136-.668-.377-.909-.241-.242-.569-.377-.91-.377-.341 0-.668.135-.909.377-.241.241-.377.568-.377.909v21.214c-.002.169.03.338.094.495.063.157.158.299.278.419.12.12.262.214.42.278.157.064.325.096.494.094.339-.008.661-.147.901-.386.239-.239.377-.562.386-.9zM385.882 250.473c.659-6.055 1.68-12.066 3.055-18 .402-1.607-2.09-2.33-2.492-.723-1.441 6.141-2.489 12.368-3.135 18.643-.002.169.029.337.093.494.064.157.159.3.279.42.12.12.262.214.419.278.157.064.326.096.495.094.33.008.65-.113.891-.339.241-.226.383-.537.395-.867zM372.939 255.455l11.175-29.732c.562-1.527-1.93-2.25-2.492-.723l-11.175 29.732c-.563 1.527 1.929 2.25 2.492.723zM412.09 221.866c2.171 6.429 4.663 12.777 6.673 19.286.096.33.319.609.621.775.301.165.656.205.987.109.33-.096.609-.319.775-.621.166-.301.205-.656.109-.986-1.929-6.509-4.422-12.858-6.673-19.286-.562-1.527-3.055-.804-2.492.723zM412.412 367.152c-.161-18.804.241-37.688 1.206-56.411.241-5.304.562-10.607.964-15.911.081-1.687-2.492-1.687-2.572 0-1.287 18.75-2.01 37.554-2.171 56.411-.08 5.304-.08 11.732-.08 17.036l2.653-1.125z" fill="#194429"/><path d="M397.057 393.75l15.516-63 .08 70.955-15.596-7.955z" fill="#194429"/><path d="M412.573 400.741c2.402 1.274 4.62 2.869 6.592 4.741l-6.512-15.83-.08 11.089z" fill="#A05744"/><path d="M370.045 172.045c-.804 1.768-.643 4.098-.402 6.026.482 3.295 3.296 2.331 4.181-.241.723-2.089 1.045-4.901-.242-6.75-1.286-1.848-2.813-.723-3.537.965zM342.551 175.661c-.655 1.94-.793 4.017-.402 6.027.482 3.294 3.296 2.33 4.18-.241.724-2.09 1.045-4.902-.241-6.751-1.286-1.848-2.814-.642-3.537.965zM353.082 176.384c.563-.402 1.126-.723 1.608-1.125.532-.38 1.133-.653 1.769-.804 1.768-.321 3.698-.562 5.225.563.202.1.433.119.648.054.216-.064.398-.209.51-.403.113-.194.147-.424.097-.643-.051-.219-.184-.41-.37-.535-1.849-1.366-4.181-1.125-6.271-.803-1.54.395-2.97 1.137-4.18 2.169-.198.122-.341.315-.401.539-.06.224-.032.463.079.667.142.196.349.336.584.395.236.059.484.033.702-.074z" fill="#32142A"/><path d="M353.243 158.705c-.402 1.206 28.62-10.526 41.804-13.098l5.065 36.081c3.129-5.175 7.19-9.725 11.978-13.42 0 0 2.894-38.25-23.555-38.009 0 0-25.162-.964-35.292 28.446z" fill="#FAC7B7"/><path d="M368.92 164.411c.562 0 1.206-.081 1.768-.081 3.108-.272 6.23.341 9.004 1.768 2.332 1.125 4.502 2.572 6.834 3.697.803.402 1.768.723 2.331-.161.167-.382.246-.797.232-1.214-.014-.417-.121-.826-.312-1.197-1.679-3.596-4.323-6.656-7.638-8.839-2.342-1.275-4.969-1.939-7.637-1.929-2.251 0-7.316.483-9.245 1.849-2.412 1.687.804 5.143 3.457 5.946.395.098.799.152 1.206.161zM350.992 162.321c-2.412-.803-10.29-.241-12.461 1.447-2.009 1.446-.643 1.848 1.367 3.294.804.563 4.261.965 5.226 1.045 8.602 1.125 9.727.804 10.451-1.045.046-.131.063-.271.049-.41-.014-.139-.058-.273-.13-.393-.563-1.688-2.09-2.813-3.617-3.616-.402-.161-.644-.241-.885-.322z" fill="#FAC7B7"/><path d="M340.863 165.054c-6.11.241-10.773 5.625-11.577 11.491-.402 3.214-.08 6.669 1.849 9.401 1.633 2.403 4.094 4.12 6.914 4.822 6.029 1.527 12.3-2.089 14.551-7.795.679-1.77.987-3.66.904-5.554-.083-1.894-.555-3.751-1.386-5.455-1.001-2.121-2.598-3.905-4.597-5.132-1.999-1.228-4.313-1.846-6.658-1.778-.118.005-.234.035-.339.088-.106.052-.2.126-.275.217-.076.091-.132.196-.165.31-.032.113-.041.232-.025.349.028.203.121.392.267.537.145.145.333.239.537.266 1.779-.044 3.538.378 5.103 1.224 1.566.846 2.883 2.086 3.82 3.598 1.264 1.906 1.935 4.142 1.93 6.428.005 2.741-1 5.388-2.825 7.434-1.824 2.045-4.339 3.347-7.064 3.656-1.309.117-2.628-.025-3.883-.419-1.254-.393-2.418-1.029-3.426-1.873-1.008-.843-1.84-1.877-2.448-3.042-.608-1.164-.98-2.438-1.096-3.747v-.241c-.287-3.24.629-6.472 2.573-9.08.868-1.146 1.968-2.097 3.229-2.789 1.261-.692 2.653-1.111 4.087-1.229.111 0 .22-.022.323-.064.102-.043.195-.105.274-.183.078-.078.14-.171.183-.274.042-.102.064-.212.064-.323 0-.11-.022-.22-.064-.323-.043-.102-.105-.195-.183-.273-.079-.079-.172-.141-.274-.183-.103-.043-.212-.064-.323-.064zM373.1 159.589c-6.11.241-10.773 5.625-11.576 11.491-.402 3.215-.081 6.67 1.849 9.402 1.632 2.403 4.094 4.119 6.913 4.822 6.03 1.526 12.3-2.09 14.551-7.795.677-1.757.984-3.634.901-5.515-.083-1.88-.554-3.724-1.383-5.414-1.006-2.122-2.603-3.91-4.599-5.15-1.996-1.24-4.306-1.879-6.656-1.841-.255.025-.49.148-.655.343-.165.195-.247.447-.229.702.028.203.121.392.266.537.146.145.334.239.538.266 1.778-.044 3.538.378 5.103 1.224 1.566.846 2.883 2.086 3.82 3.598 1.228 1.922 1.896 4.148 1.929 6.428.006 2.741-1 5.388-2.824 7.434-1.824 2.046-4.339 3.347-7.064 3.656-1.309.117-2.629-.025-3.883-.419-1.254-.393-2.418-1.029-3.426-1.872-1.008-.844-1.84-1.878-2.448-3.042-.608-1.165-.98-2.439-1.096-3.748v-.241c-.287-3.24.629-6.472 2.573-9.08.868-1.146 1.968-2.097 3.229-2.789 1.261-.692 2.653-1.111 4.087-1.229.116.005.232-.012.341-.052.109-.039.21-.1.296-.178.085-.079.155-.173.204-.278.05-.106.078-.22.083-.336.005-.116-.012-.232-.052-.341-.039-.109-.1-.21-.179-.295-.078-.086-.172-.156-.278-.205-.105-.049-.219-.077-.335-.083z" fill="#32142A"/><path d="M386.204 175.098c9.486-2.491 18.812-5.223 28.137-8.277.235-.064.434-.218.555-.429.12-.211.152-.461.088-.696-.064-.234-.218-.433-.429-.554-.211-.121-.462-.152-.696-.088-9.245 3.053-18.651 5.785-28.137 8.276-.232.089-.421.264-.526.489-.105.225-.118.482-.037.717.088.196.238.357.427.459.189.101.406.138.618.103z" fill="#32142A"/><path d="M356.057 155.571c-1.126-4.58 9.084-6.91 9.406-2.973.08 1.206-1.045 1.768-1.93.804-.964-1.125-.241-2.893.322-4.018.996-1.748 2.475-3.171 4.261-4.098 1.823-.966 3.923-1.278 5.949-.884.581.114 1.112.408 1.516.841.404.433.661.982.735 1.57.16.482.723 3.294-.402 2.169-.643-.643-.322-2.089-.081-2.812.51-1.374 1.497-2.519 2.781-3.227 1.283-.708 2.779-.932 4.213-.63v-1.688c-1.135.199-2.302.127-3.405-.208-1.103-.335-2.112-.924-2.946-1.721-1.768-1.928-.884-4.098 1.206-5.142.905-.456 1.904-.691 2.917-.687 1.013.004 2.01.247 2.911.709.901.462 1.68 1.13 2.274 1.95.594.82.986 1.769 1.143 2.769.242 1.125 2.01.643 1.769-.482-1.125-5.867-8.361-8.92-13.184-4.983-.493.363-.909.82-1.224 1.344-.316.524-.524 1.105-.614 1.71-.09.605-.059 1.222.091 1.815s.416 1.15.782 1.64c.08.161.241.241.322.402 2.009 2.411 5.306 3.134 8.36 2.732.885-.16.804-1.527 0-1.768-4.662-1.205-10.692 3.134-9.405 8.277.113.52.369.997.738 1.38.369.383.837.657 1.352.79.264.064.538.076.806.034.269-.042.526-.137.758-.279.232-.141.433-.328.592-.548.16-.22.274-.47.336-.734.136-1.312-.058-2.638-.563-3.857-.209-.612-.547-1.173-.991-1.644-.443-.471-.983-.842-1.581-1.088-5.226-2.009-11.577 1.848-13.587 6.669-.964 2.331-.562 6.027 2.653 6.188 2.412.08 3.296-2.572 2.492-4.5-1.286-2.973-5.225-2.652-7.798-1.848-2.894.884-5.627 3.294-4.823 6.669.096.23.277.415.505.516.228.102.486.112.721.031.236-.082.431-.251.547-.472.116-.221.143-.477.076-.718zM392.073 144.321c-.242-2.25-.724-5.464 1.607-6.91.507-.262 1.083-.356 1.647-.27.563.087 1.084.35 1.489.752.892.886 1.458 2.047 1.607 3.294.081.563.161 1.206.242 1.849 0 .482.241 1.285-.161 1.687-.402.402-.08-.482 0-.643.264-.492.652-.908 1.125-1.205 1.849-1.286 4.744-1.848 6.03.482.5 1.061.8 2.205.884 3.375.081.964.482 3.455-.965 3.616-1.125.081-1.205 1.929 0 1.768 1.93-.241 2.895-1.929 2.975-3.696.067-1.81-.234-3.614-.884-5.304-.292-.798-.787-1.506-1.435-2.056-.648-.549-1.428-.921-2.263-1.078-1.89-.222-3.792.296-5.306 1.447-1.206.884-2.734 2.812-1.769 4.419.965 1.607 3.135.563 3.537-.884.227-.921.254-1.88.081-2.812-.052-.994-.269-1.971-.643-2.893-.272-.878-.749-1.679-1.392-2.336-.643-.657-1.434-1.151-2.306-1.441-.946-.249-1.946-.179-2.848.199-.901.378-1.652 1.042-2.137 1.89-1.286 2.009-1.125 4.5-.804 6.75 0 1.125 1.849 1.125 1.689 0zM398.584 156.697c-.08-.402.483-.724.804-.724.237-.025.477.006.7.09.224.083.424.218.586.392.555.628.966 1.368 1.206 2.17.322.884.643 2.17.081 2.973-.16.245-.399.427-.678.515-.278.088-.579.076-.85-.033-1.045-.723.965-1.687 1.528-1.767.964-.161 2.01-.402 2.572.562.884 1.806 1.377 3.777 1.447 5.786.137 1.92-.054 3.849-.562 5.705-.237.939-.56 1.853-.965 2.732-.241.563-.884 2.17-1.367 1.045-.477-.942-.645-2.01-.482-3.054.332-.878.957-1.616 1.768-2.089 1.689-1.205 3.618-2.17 5.387-3.295.964-.642.08-2.169-.885-1.526l-4.019 2.41c-1.103.556-2.108 1.289-2.975 2.17-1.608 1.848-1.447 4.661-.16 6.75.205.412.565.728 1.001.878.436.15.913.124 1.33-.074 1.045-.483 1.608-1.608 2.09-2.572 1.055-2.435 1.603-5.06 1.608-7.714.061-2.652-.46-5.286-1.527-7.714-.19-.51-.514-.959-.939-1.299-.425-.34-.934-.557-1.473-.63-1.243-.148-2.502.076-3.618.643-1.688.884-2.653 3.536-.643 4.661 1.688.964 3.859-.241 4.341-2.009.643-2.25-.563-5.786-2.572-6.991-2.01-1.206-4.824.08-4.422 2.571 0 1.045 1.769.563 1.688-.562zM411.447 158.786c-.296-.383-.564-.786-.804-1.206-.23-.399-.393-.833-.482-1.285-.132-.443-.186-.905-.161-1.367v-1.205c0 .08 0-.241.08-.241.047-.233.007-.476-.111-.683-.118-.206-.307-.363-.532-.442-.116-.032-.237-.04-.357-.025-.119.015-.234.054-.339.113-.104.06-.196.14-.27.235-.073.095-.128.204-.159.32-.237 1.236-.202 2.509.104 3.731.305 1.221.873 2.361 1.664 3.34.179.155.407.24.644.24.236 0 .464-.085.643-.24.149-.177.237-.398.251-.629.015-.232-.045-.462-.171-.656z" fill="#fff"/><path d="M233.137 362.893c.402 11.25-6.833 23.223-23.394 17.839-17.525-5.705 1.126-34.232 17.043-26.598 4.422 2.089 6.271 5.304 6.351 8.759zM22.9921 396.321c29.3432.161 58.7667-.562 88.1099-2.25 8.2-.482 16.48-.964 24.68-1.607.683 0 1.337-.271 1.819-.753.483-.482.754-1.136.754-1.818 0-.682-.271-1.336-.754-1.819-.482-.482-1.136-.753-1.819-.753-29.343 2.17-58.6859 3.375-88.1095 3.777-8.2804.08-16.4804.08-24.7608.08-3.296 0-3.296 5.143.0804 5.143zM20.1784 378.723c30.7902.563 61.5.804 92.2906.884h25.805c3.297 0 3.377-5.223 0-5.143-30.79.081-61.5531-.08-92.2897-.482-8.602-.08-17.2039-.241-25.8059-.402-3.3765-.08-3.3765 5.063 0 5.143zM12.7019 362.973c33.6843 1.045 67.3418.884 100.9721-.482 9.406-.402 18.893-.884 28.299-1.446 3.296-.241 3.296-5.384 0-5.143-33.604 2.089-67.2619 2.946-100.973 2.571-9.4863-.08-18.8922-.321-28.3785-.643-3.29605-.08-3.29605 5.063.0804 5.143zM9.64704 345.214c20.90196.536 41.83076.375 62.78626-.482 3.2961-.161 3.3765-5.304 0-5.143-20.902.804-41.8307.964-62.78626.482-3.37647-.08-3.37647 5.063 0 5.143zM14.149 326.652h54.5863c3.2961 0 3.3764-5.224 0-5.224H14.149c-3.2961.081-3.2961 5.224 0 5.224zM20.1784 424.286c30.7902.562 61.5.803 92.2906.884h25.805c3.297 0 3.377-5.224 0-5.143-30.79.08-61.5531-.081-92.2897-.482-8.602-.081-17.2039-.242-25.8059-.402-3.3765-.081-3.3765 5.062 0 5.143zM12.7019 409.58c33.6843 1.045 67.3418.884 100.9721-.482 9.406-.402 18.893-.884 28.299-1.446 3.296-.242 3.296-5.384 0-5.143-33.604 2.089-67.2619 2.946-100.973 2.571-9.4863-.08-18.8922-.321-28.3785-.643-3.29605-.16-3.29605 4.982.0804 5.143z" fill="#FAC7B7"/><path d="M354.449 201.536c-3.859 3.937 2.975 9.723 6.914 6.187 4.904-4.259-2.653-10.527-6.914-6.187zM185.063 145.527c-.518 1.994-.419 4.098.285 6.035.703 1.937 1.977 3.615 3.654 4.813.1.067.214.113.333.135.119.021.241.018.359-.009.117-.027.228-.079.325-.151.098-.072.179-.163.24-.267.06-.105.099-.221.113-.341.014-.12.003-.241-.032-.357-.035-.116-.093-.223-.171-.316-.078-.092-.174-.167-.283-.221-1.33-.986-2.338-2.345-2.896-3.904-.558-1.559-.641-3.249-.239-4.855.04-.234-.013-.474-.149-.67-.135-.195-.341-.33-.575-.374-.094-.034-.195-.049-.296-.042-.1.006-.199.032-.289.077-.09.045-.17.108-.235.185-.065.076-.114.166-.144.262z" fill="#32142A"/><path d="M211.351 228.134c-1.447 1.607-2.09 3.777-3.216 5.705-1.125 1.929-2.09 4.581-.643 6.268 1.286 1.447 3.618 1.205 5.306 2.17.916.56 1.647 1.376 2.104 2.347.458.971.62 2.055.469 3.117-.317 2.102-1.207 4.076-2.573 5.705-2.894 3.658-6.812 6.372-11.255 7.795l5.949-10.125c.166-.199.288-.431.357-.68.069-.249.085-.511.045-.766-.161-.643-.965-.965-1.608-1.206l-6.833-2.009c-1.286-.401-2.814-.964-3.055-2.33-.058-.634.053-1.271.322-1.848 2.494-6.264 7.062-11.484 12.943-14.786 0 0 4.904-2.973 1.688.643z" fill="#fff"/><path d="M226.626 221.062c-1.615 2.194-3.066 4.504-4.342 6.911-.884 1.688-2.733 4.5-1.929 6.509 1.125 2.732 5.547 1.286 6.512 3.938 1.447 4.017-.965 7.794-3.377 10.848-1.666 2.146-3.465 4.186-5.386 6.107-.932.973-1.926 1.886-2.975 2.732-.321.241-3.054 1.688-2.974 1.447.322-3.054 3.939-6.027 5.627-8.438 1.689-2.411 3.457-4.741 4.904-7.232 1.287-2.25-2.251-3.455-3.698-4.098-3.055-1.366-5.306-2.09-3.457-5.947 1.644-3.47 3.609-6.779 5.869-9.884 1.929-2.571 4.663-6.91 8.039-7.875-.5 1.603-1.291 3.101-2.331 4.42l-.482.562zM39.6334 183.937c-2.8138 2.652-2.0902 8.197 2.6529 6.911 7.0745-2.009 2.1706-11.411-2.6529-6.911zM99.6863 67.5c-1.849 1.7679-1.3667 5.4643 1.7687 4.5804 4.663-1.2857 1.367-7.5536-1.7687-4.5804zM271.484 111.054c1.064-3.791 2.407-7.498 4.02-11.0896.241-.5625.804-1.2054 1.286-.9643.483.241.483.9643.322 1.4469-.804 3.375-1.608 6.83-2.412 10.205 3.181-.329 6.394.169 9.325 1.446.063.021.12.056.167.101.048.046.084.102.107.163.023.062.032.128.027.193-.006.066-.026.129-.059.186 0 .081-.081.161-.161.241-1.775 1.126-3.849 1.686-5.949 1.607-.369-.097-.755-.112-1.131-.042-.375.069-.73.221-1.04.444-.3.37-.494.814-.563 1.286-.698 2.941-1.779 5.778-3.215 8.437-.081.133-.207.231-.356.275-.148.045-.308.033-.448-.034-.074-.037-.136-.095-.178-.166-.043-.071-.065-.153-.063-.235-.563-2.652.562-5.625.482-8.438.007-.312-.077-.619-.241-.884-.125-.155-.285-.28-.466-.363-.181-.084-.38-.125-.579-.119-2.99-.639-5.921-1.526-8.763-2.652-.804-.321-1.688-1.125-1.125-1.768.208-.169.458-.28.723-.321 1.781-.321 3.605-.321 5.386 0l4.904 1.045zM298.175 77.4642c-2.895 2.7322-2.171 8.5179 2.813 7.1518 7.316-2.0893 2.171-11.8125-2.813-7.1518zM311.841 220.178c-.93-2.673-1.656-5.413-2.17-8.196-.081-.482 0-1.045.402-1.125.402-.08.643.402.803.723.885 2.331 1.849 4.661 2.734 7.072 1.771-1.462 3.866-2.481 6.11-2.974.16 0 .402.081.402.322v.241c-.595 1.396-1.605 2.575-2.895 3.375-.482.321-1.045.562-1.125 1.125-.024.356.03.713.161 1.045.791 2.038 1.305 4.173 1.527 6.348-.003.114-.044.223-.117.311-.073.087-.173.148-.285.171-.113.012-.227-.016-.321-.08-1.447-1.286-1.93-3.616-3.136-5.224-.08-.16-.321-.321-.482-.482-.137-.036-.281-.04-.421-.012-.139.027-.27.087-.383.173-2.032.838-4.13 1.509-6.271 2.009-.562.161-1.447 0-1.366-.563.078-.178.187-.341.321-.482.897-.954 1.995-1.695 3.216-2.169l3.296-1.608zM464.667 244.527c-1.849 1.768-1.367 5.464 1.768 4.58 4.663-1.286 1.447-7.554-1.768-4.58zM24.9215 211.42c-.6371-2.54-1.1203-5.117-1.447-7.715 0-.402.0804-.964.4019-.964.3216 0 .5628.402.7236.723.7235 2.25 1.3666 4.5 2.0098 6.67 1.7582-1.204 3.7632-2 5.8686-2.331.0829-.001.1645.021.2356.063.0711.043.1287.105.1664.179.0052.043.0007.087-.0132.129-.0139.042-.0368.08-.0672.112-.6164 1.259-1.6347 2.276-2.8941 2.892-.2428.077-.4675.203-.6609.368-.1934.166-.3514.369-.4646.597-.0536.323-.0259.654.0804.964.5617 1.936.8857 3.933.9647 5.946.0035.054-.0044.108-.0234.158-.0189.051-.0484.096-.0865.134-.038.039-.0838.068-.1342.087-.0503.019-.1042.027-.1579.023-.0804 0-.2412-.08-.2412-.16-1.2059-1.286-1.5274-3.456-2.4921-5.063-.1095-.18-.2449-.342-.402-.482-.1316-.047-.272-.064-.4109-.05-.139.014-.2732.059-.393.13-1.9406.642-3.9301 1.126-5.949 1.447-.5628.08-1.3667-.161-1.2059-.643.0602-.166.1732-.307.3216-.402.9085-.804 1.977-1.406 3.1353-1.768l3.1352-1.044z" fill="#fff"/></g><defs><clipPath id="clip0"><path fill="#fff" d="M0 0h492v423H0z"/></clipPath></defs></svg>