<svg width="30" height="28" fill="none" xmlns="http://www.w3.org/2000/svg"><path d="M25.6055 0H4.39453C1.97159 0 0 1.81788 0 4.05192V23.6092c0 2.2341 1.97159 4.0519 4.39453 4.0519H25.6055c2.4229 0 4.3945-1.8178 4.3945-4.0519V4.05192C30 1.81788 28.0284 0 25.6055 0zm-15 21.9344H7.08984V10.589h3.51566v11.3454zm0-12.96614H7.08984V5.72672h3.51566v3.24154zM22.9102 21.9344h-3.5157v-6.4831c0-.8935-.7887-1.6207-1.7578-1.6207-.9691 0-1.7578.7272-1.7578 1.6207v6.4831h-3.5156V10.589h3.5156v.611c.921-.264 1.5193-.611 2.6367-.611 2.3843.0023 4.3946 1.9745 4.3946 4.3052v7.0402z" fill="#198C36"/></svg>