<svg width="290" height="183" fill="none" xmlns="http://www.w3.org/2000/svg"><g clip-path="url(#clip0)"><path d="M87.2078 130.741c0-7.938-10.0031-4.98-10.0031-11.017 0-1.721.934-2.868 2.4104-2.868 2.802 0 2.1693 4.981 5.0015 4.981 1.2956 0 2.0489-.876 2.0489-2.174 0-1.931-2.2899-3.894-6.1767-4.226v-1.781c0-.362-.2109-.603-.5122-.603h-.7532c-.3013 0-.5122.241-.5122.603v1.781c-3.7964.272-6.3876 2.717-6.3876 6.007 0 7.577 10.1237 5.675 10.1237 10.837 0 1.932-1.145 3.109-2.6816 3.109-2.7719 0-2.6514-5.101-5.7849-5.101-1.0244 0-1.9585.724-1.9585 2.203 0 1.811 2.32 4.136 6.478 4.468v2.867c0 .393.1807.634.482.634h.7834c.3013 0 .4821-.241.4821-.634v-2.867c4.2784-.272 6.96-2.838 6.96-6.219zM96.9211 115.045c-4.399 0-7.653 2.807-7.653 6.882 0 4.951 3.3745 7.064 6.9601 7.064 1.9283 0 3.4046-.604 4.3388-1.691-.151 4.649-1.1752 7.969-3.5856 7.969-2.8323 0-2.0488-5.131-5.1824-5.131-1.2052 0-2.1995.785-2.1995 2.143 0 2.445 2.9829 4.799 7.0806 4.799 5.8149 0 8.5569-4.769 8.5569-11.44 0-6.339-3.375-10.595-8.3159-10.595zm.5725 12.135c-2.4405 0-3.8567-3.683-3.8567-6.762 0-2.264 1.0546-3.562 2.6515-3.562 2.5611 0 3.8866 3.351 4.2186 7.124-.061 1.902-1.1453 3.2-3.0134 3.2zM116.431 122.833c-1.747 0-3.314.604-4.399 1.69.272-5.101 1.808-7.667 3.857-7.667 2.742 0 1.898 5.132 5.212 5.132 1.175 0 2.17-.634 2.17-2.144 0-2.263-2.501-4.799-7.081-4.799-5.815 0-8.798 5.282-8.798 11.44 0 6.339 3.586 10.595 8.316 10.595 4.248 0 7.683-2.777 7.683-6.912 0-5.041-3.374-7.335-6.96-7.335zm-.18 12.436c-2.411 0-3.857-3.23-4.189-7.425.091-1.751 1.296-3.23 3.104-3.23 2.44 0 3.826 3.743 3.826 7.003 0 2.294-1.084 3.652-2.741 3.652zM133.377 115.045c-4.399 0-7.653 2.807-7.653 6.882 0 4.951 3.375 7.064 6.96 7.064 1.929 0 3.405-.604 4.339-1.691-.151 4.649-1.175 7.969-3.585 7.969-2.833 0-2.049-5.131-5.183-5.131-1.205 0-2.199.785-2.199 2.143 0 2.445 2.983 4.799 7.08 4.799 5.815 0 8.557-4.769 8.557-11.44 0-6.339-3.374-10.595-8.316-10.595zm.573 12.135c-2.441 0-3.857-3.683-3.857-6.762 0-2.264 1.055-3.562 2.652-3.562 2.561 0 3.886 3.351 4.218 7.124-.06 1.902-1.145 3.2-3.013 3.2zM160.12 137.08c4.912 0 8.286-3.018 8.286-8.421v-10.415c0-1.267 1.296-1.539 1.296-2.294v-.12c0-.302-.271-.483-.693-.483h-3.435c-.392 0-.693.181-.693.483v.12c0 .755 1.205 1.027 1.205 2.294v10.354c0 4.89-2.712 6.52-4.971 6.52-3.345 0-5.363-2.264-5.363-6.52v-10.354c0-1.267 1.295-1.539 1.295-2.294v-.12c0-.302-.271-.483-.693-.483h-5.664c-.422 0-.693.181-.693.483v.12c0 .755 1.175 1.027 1.175 2.294v10.354c0 5.464 3.676 8.482 8.948 8.482zM180.45 137.08c4.369 0 8.135-2.234 8.135-6.158 0-8.693-12.173-4.528-12.173-11.018 0-1.72 1.115-3.109 3.405-3.109 4.399 0 3.284 5.373 6.538 5.373 1.296 0 1.928-.724 1.928-1.871.031-2.506-3.314-5.222-8.376-5.222-4.971 0-7.984 2.656-7.984 6.278.03 8.935 12.203 4.528 12.203 10.958 0 1.841-1.386 3.048-3.496 3.048-5.091 0-4.278-5.493-7.291-5.554-1.235 0-1.808.785-1.808 1.842 0 2.414 3.194 5.433 8.919 5.433zM191.568 136.778h8.286c6.87 0 11.6-4.226 11.6-10.685 0-6.188-5.032-10.746-13.016-10.746h-6.87c-.421 0-.693.181-.693.483v.12c0 .755 1.176 1.027 1.176 2.294v15.637c0 1.267-1.176 1.539-1.176 2.294v.09c0 .332.272.513.693.513zm7.202-1.841c-1.386 0-2.23-.936-2.23-2.596v-13.885c0-.966.542-1.268 1.205-1.268h.573c4.79 0 8.406 4.89 8.406 10.837 0 4.437-2.742 6.912-6.418 6.912h-1.536zM49.2637 51.8814h-1.6948V39.9015h-4.1993v-1.4904h10.0746v1.4904h-4.1805v11.9799zM57.5605 41.5996c1.2303 0 2.1405.2705 2.7305.8112.5901.5408.8851 1.4025.8851 2.5847v6.8861h-1.2052l-.3201-1.4338h-.0754c-.4393.5534-.9039.9621-1.3935 1.2262-.477.2642-1.1424.3962-1.9961.3962-.9164 0-1.676-.2389-2.2785-.7169-.6026-.4905-.9039-1.2515-.9039-2.2828 0-1.0062.3954-1.7797 1.1863-2.3205.7909-.5534 2.0087-.8553 3.6533-.9055l1.7136-.0566v-.6038c0-.8426-.182-1.4274-.5461-1.7545-.364-.327-.8788-.4905-1.5442-.4905-.5272 0-1.0294.0818-1.5065.2453-.4769.1509-.9227.327-1.337.5282l-.5084-1.2452c.4394-.2389.9604-.4402 1.563-.6037.6026-.1761 1.2303-.2641 1.8831-.2641zm.4896 5.3957c-1.2554.0503-2.1279.2516-2.6175.6037-.477.3521-.7156.849-.7156 1.4904 0 .566.1695.981.5084 1.2452.3516.2641.7972.3961 1.337.3961.8538 0 1.563-.2327 2.128-.698.5649-.478.8474-1.2074.8474-2.1884v-.9056l-1.4877.0566zM65.9319 45.0333c0 .2012-.0126.4653-.0377.7923-.0126.3271-.0251.6101-.0376.849h.0753c.0753-.1007.1883-.2453.339-.4339.1506-.1887.3012-.3773.4519-.566.1632-.2012.3013-.3648.4143-.4905l3.2201-3.4148h1.9396l-4.0863 4.3203 4.3688 5.7919h-1.9961l-3.5026-4.7165-1.1487.9999v3.7166h-1.6383V37.5435h1.6383v7.4898zM78.2508 41.5806c.8663 0 1.6069.1886 2.2221.5659.6276.3774 1.1047.9119 1.4312 1.6037.3389.6791.5084 1.4778.5084 2.3959v.9999h-6.911c.025 1.1445.3138 2.0187.8662 2.6224.565.5912 1.3496.8867 2.3539.8867.6403 0 1.2052-.0566 1.6948-.1698.5021-.1257 1.0169-.3018 1.5442-.5282v1.4526c-.5148.2264-1.0232.3899-1.5254.4906-.5022.1132-1.0985.1698-1.7889.1698-.9542 0-1.8016-.195-2.5422-.5849-.7282-.3899-1.2994-.9685-1.7137-1.7357-.4017-.7798-.6026-1.7293-.6026-2.8487 0-1.1068.182-2.0564.5461-2.8488.3767-.7924.8976-1.4024 1.563-1.83.678-.4276 1.4626-.6414 2.3539-.6414zm-.0188 1.3583c-.7909 0-1.4186.2578-1.8831.7735-.452.5031-.7219 1.2074-.8098 2.113H80.68c-.0126-.8553-.2134-1.547-.6025-2.0752-.3893-.5408-1.0044-.8113-1.8455-.8113zM93.6965 41.5996c1.2304 0 2.14.2705 2.7304.8112.5903.5408.885 1.4025.885 2.5847v6.8861h-1.2052l-.3201-1.4338h-.0753c-.4397.5534-.9039.9621-1.3935 1.2262-.4769.2642-1.1423.3962-1.996.3962-.9165 0-1.676-.2389-2.2786-.7169-.6026-.4905-.9039-1.2515-.9039-2.2828 0-1.0062.3955-1.7797 1.1864-2.3205.7909-.5534 2.0087-.8553 3.6532-.9055l1.7135-.0566v-.6038c0-.8426-.1817-1.4274-.5461-1.7545-.3643-.327-.8784-.4905-1.5439-.4905-.5273 0-1.0295.0818-1.5066.2453-.477.1509-.9227.327-1.3369.5282l-.5086-1.2452c.4394-.2389.9605-.4402 1.5631-.6037.6026-.1761 1.2302-.2641 1.8831-.2641zm.4894 5.3957c-1.2552.0503-2.1277.2516-2.6173.6037-.4771.3521-.7157.849-.7157 1.4904 0 .566.1696.981.5086 1.2452.3514.2641.7971.3961 1.3369.3961.8537 0 1.5629-.2327 2.1278-.698.5649-.478.8474-1.2074.8474-2.1884v-.9056l-1.4877.0566zM104.007 52.0703c-1.255 0-2.259-.434-3.013-1.3018-.753-.8804-1.1295-2.1884-1.1295-3.9241s.3765-3.0438 1.1295-3.9241c.766-.8931 1.777-1.3395 3.032-1.3395.779 0 1.413.1446 1.902.4339.502.2893.911.6414 1.224 1.0565h.113c-.012-.1635-.038-.4025-.075-.7169-.026-.3271-.038-.5849-.038-.7735v-4.0373h1.657v14.3381h-1.337l-.245-1.3583h-.075c-.301.4276-.703.7923-1.205 1.0942-.502.3018-1.149.4528-1.94.4528zm.264-1.3773c1.067 0 1.814-.2893 2.241-.8678.44-.5912.659-1.4779.659-2.6601v-.3018c0-1.2577-.207-2.2199-.621-2.8865-.415-.6792-1.18-1.0188-2.298-1.0188-.891 0-1.563.3584-2.015 1.0754-.439.7043-.659 1.6538-.659 2.8487 0 1.2074.22 2.1444.659 2.811.452.6667 1.13.9999 2.034.9999zM114.237 51.8812l-3.822-10.1122h1.77l2.147 5.9617c.099.2767.207.5848.32.9244.113.3396.212.6667.301.9811.088.3018.151.5596.188.7735h.076c.05-.2139.118-.478.207-.7924.1-.3144.207-.6415.32-.981.125-.3396.232-.6415.32-.9056l2.147-5.9617h1.77l-3.842 10.1122h-1.902zM125.401 41.5996c1.23 0 2.14.2705 2.73.8112.59.5408.885 1.4025.885 2.5847v6.8861h-1.205l-.32-1.4338h-.076c-.439.5534-.903.9621-1.393 1.2262-.477.2642-1.142.3962-1.996.3962-.916 0-1.676-.2389-2.279-.7169-.602-.4905-.904-1.2515-.904-2.2828 0-1.0062.396-1.7797 1.187-2.3205.791-.5534 2.008-.8553 3.653-.9055l1.714-.0566v-.6038c0-.8426-.182-1.4274-.546-1.7545-.365-.327-.879-.4905-1.545-.4905-.527 0-1.029.0818-1.506.2453-.477.1509-.923.327-1.337.5282l-.509-1.2452c.44-.2389.961-.4402 1.563-.6037.603-.1761 1.231-.2641 1.884-.2641zm.489 5.3957c-1.255.0503-2.128.2516-2.617.6037-.478.3521-.716.849-.716 1.4904 0 .566.17.981.508 1.2452.352.2641.798.3961 1.337.3961.854 0 1.563-.2327 2.128-.698.565-.478.848-1.2074.848-2.1884v-.9056l-1.488.0566zM136.992 41.5806c1.205 0 2.116.2955 2.731.8867.614.5785.922 1.5218.922 2.8299v6.5842h-1.638v-6.471c0-1.6225-.753-2.4338-2.26-2.4338-1.117 0-1.89.3145-2.316.9433-.427.6289-.64 1.5345-.64 2.7167v5.2448h-1.657V41.7692h1.337l.244 1.3772h.095c.326-.5282.778-.9181 1.355-1.1696.578-.2642 1.187-.3962 1.827-.3962zM147.145 50.7117c.251 0 .508-.0188.772-.0566.264-.0503.477-.1006.64-.1509v1.264c-.175.088-.426.1573-.753.2075-.326.063-.64.0944-.942.0944-.527 0-1.016-.088-1.468-.2641-.439-.1887-.797-.5094-1.074-.9622-.276-.4528-.414-1.0879-.414-1.9055v-5.8862h-1.431v-.7923l1.45-.6603.659-2.1508h.979v2.3205h2.919v1.2829h-2.919v5.8485c0 .6162.145 1.0754.433 1.3772.301.2893.685.4339 1.149.4339zM154.401 41.5996c1.23 0 2.141.2705 2.731.8112.589.5408.885 1.4025.885 2.5847v6.8861h-1.205l-.32-1.4338h-.076c-.439.5534-.903.9621-1.393 1.2262-.477.2642-1.143.3962-1.996.3962-.917 0-1.676-.2389-2.279-.7169-.602-.4905-.904-1.2515-.904-2.2828 0-1.0062.396-1.7797 1.187-2.3205.791-.5534 2.008-.8553 3.653-.9055l1.714-.0566v-.6038c0-.8426-.183-1.4274-.547-1.7545-.364-.327-.879-.4905-1.544-.4905-.527 0-1.03.0818-1.506.2453-.478.1509-.923.327-1.337.5282l-.509-1.2452c.439-.2389.961-.4402 1.563-.6037.603-.1761 1.23-.2641 1.883-.2641zm.49 5.3957c-1.256.0503-2.128.2516-2.617.6037-.478.3521-.716.849-.716 1.4904 0 .566.169.981.508 1.2452.352.2641.797.3961 1.337.3961.853 0 1.563-.2327 2.128-.698.565-.478.848-1.2074.848-2.1884v-.9056l-1.488.0566zM164.712 41.5806c.665 0 1.262.1257 1.789.3773.54.2516.998.6351 1.375 1.1508h.094l.226-1.3395h1.318v10.282c0 1.4463-.371 2.5343-1.111 3.2638-.728.7295-1.864 1.0942-3.408 1.0942-1.482 0-2.693-.2138-3.635-.6414v-1.5282c.992.5283 2.235.7924 3.729.7924.866 0 1.544-.2578 2.034-.7735.502-.5031.753-1.1949.753-2.0753v-.3961c0-.151.006-.3648.019-.6415.012-.2893.024-.4905.038-.6037h-.076c-.678 1.0188-1.72 1.5282-3.126 1.5282-1.306 0-2.329-.4592-3.069-1.3773-.729-.9181-1.092-2.201-1.092-3.8486 0-1.61.363-2.8865 1.092-3.8298.74-.9559 1.757-1.4338 3.05-1.4338zm.226 1.396c-.841 0-1.494.3396-1.958 1.0188-.465.6666-.697 1.6225-.697 2.8676 0 1.2452.226 2.201.678 2.8677.464.654 1.136.981 2.015.981 1.017 0 1.757-.2704 2.222-.8112.464-.5535.697-1.4402.697-2.6601v-.3962c0-1.3836-.239-2.3708-.716-2.962-.477-.6037-1.224-.9056-2.241-.9056zM176.618 41.5806c.866 0 1.607.1886 2.222.5659.628.3774 1.105.9119 1.431 1.6037.339.6791.508 1.4778.508 2.3959v.9999h-6.911c.026 1.1445.315 2.0187.866 2.6224.565.5912 1.351.8867 2.354.8867.641 0 1.206-.0566 1.695-.1698.503-.1257 1.017-.3018 1.544-.5282v1.4526c-.514.2264-1.022.3899-1.525.4906-.502.1132-1.098.1698-1.789.1698-.954 0-1.801-.195-2.542-.5849-.728-.3899-1.3-.9685-1.714-1.7357-.401-.7798-.602-1.7293-.602-2.8487 0-1.1068.182-2.0564.546-2.8488.376-.7924.898-1.4024 1.563-1.83.678-.4276 1.463-.6414 2.354-.6414zm-.019 1.3583c-.791 0-1.418.2578-1.883.7735-.452.5031-.722 1.2074-.81 2.113h5.141c-.012-.8553-.213-1.547-.603-2.0752-.389-.5408-1.004-.8113-1.845-.8113zM197.016 46.8064c0 1.6728-.427 2.9683-1.28 3.8864-.842.9181-1.984 1.3773-3.427 1.3773-.892 0-1.69-.2013-2.392-.6038-.691-.415-1.237-1.0124-1.638-1.7922-.402-.7924-.603-1.7482-.603-2.8677 0-1.6727.42-2.9619 1.262-3.8675.841-.9056 1.983-1.3583 3.427-1.3583.916 0 1.719.2075 2.411.6225.702.4025 1.248.9936 1.638 1.7734.401.7672.602 1.7105.602 2.8299zm-7.626 0c0 1.1949.231 2.1444.697 2.8488.476.6917 1.229 1.0376 2.259 1.0376 1.017 0 1.764-.3459 2.241-1.0376.477-.7044.716-1.6539.716-2.8488 0-1.1948-.239-2.1318-.716-2.811-.477-.6792-1.23-1.0188-2.26-1.0188-1.03 0-1.776.3396-2.24 1.0188-.466.6792-.697 1.6162-.697 2.811zM204.294 43.0519h-2.543v8.8293h-1.657v-8.8293h-1.77v-.7735l1.77-.566v-.5848c0-1.3081.289-2.2451.867-2.811.578-.5786 1.381-.8679 2.41-.8679.402 0 .766.0378 1.092.1132.339.0629.628.1384.866.2264l-.433 1.3018c-.2-.0629-.433-.1258-.696-.1887-.264-.0629-.533-.0943-.81-.0943-.552 0-.966.1886-1.243.566-.264.3647-.396.9433-.396 1.7356v.6603h2.543v1.2829zM219.782 46.8064c0 1.6728-.426 2.9683-1.28 3.8864-.841.9181-1.983 1.3773-3.427 1.3773-.891 0-1.689-.2013-2.392-.6038-.69-.415-1.236-1.0124-1.637-1.7922-.402-.7924-.603-1.7482-.603-2.8677 0-1.6727.42-2.9619 1.261-3.8675.841-.9056 1.984-1.3583 3.427-1.3583.917 0 1.72.2075 2.41.6225.704.4025 1.25.9936 1.64 1.7734.401.7672.601 1.7105.601 2.8299zm-7.626 0c0 1.1949.232 2.1444.696 2.8488.478.6917 1.231 1.0376 2.26 1.0376 1.017 0 1.765-.3459 2.241-1.0376.477-.7044.716-1.6539.716-2.8488 0-1.1948-.239-2.1318-.716-2.811-.476-.6792-1.23-1.0188-2.26-1.0188-1.029 0-1.775.3396-2.241 1.0188-.464.6792-.696 1.6162-.696 2.811zM230.846 41.769v10.1122h-1.356l-.245-1.3395h-.075c-.327.5283-.779.9181-1.356 1.1697-.577.239-1.193.3585-1.846.3585-1.217 0-2.134-.2893-2.749-.8679-.615-.5911-.923-1.5281-.923-2.811v-6.622h1.676v6.5088c0 1.6099.747 2.4149 2.241 2.4149 1.118 0 1.89-.3144 2.316-.9433.44-.6289.659-1.5345.659-2.7167V41.769h1.658zM238.758 41.5806c.188 0 .388.0125.602.0377.226.0125.421.0377.584.0755l-.207 1.5281c-.163-.0377-.346-.0691-.546-.0943-.189-.0252-.37-.0378-.546-.0378-.515 0-.998.1447-1.45.434-.452.2766-.817.6728-1.093 1.1885-.263.5031-.395 1.0942-.395 1.7734v5.3957h-1.657V41.7692h1.356l.188 1.8489h.075c.327-.5534.747-1.0313 1.262-1.4338.515-.4025 1.123-.6037 1.827-.6037zM40.7291 69.8794c1.1424 0 1.9961.2955 2.561.8867.565.5785.8474 1.5218.8474 2.8299v6.5842h-1.6383v-6.5087c0-1.5973-.6842-2.396-2.0526-2.396-.9792 0-1.6823.283-2.1091.8489-.4142.566-.6214 1.3899-.6214 2.4715v5.5843h-1.6383v-6.5087c0-1.5973-.6905-2.396-2.0714-2.396-1.0169 0-1.72.3144-2.1091.9433-.3893.6289-.5838 1.5344-.5838 2.7167v5.2447h-1.6571V70.0681h1.337l.2448 1.3772h.0941c.3139-.5283.7345-.9181 1.2617-1.1697.5398-.2641 1.1111-.3962 1.7137-.3962 1.5818 0 2.6112.566 3.0883 1.6979h.0941c.339-.5785.7972-1.0062 1.3747-1.2829.59-.2766 1.2114-.415 1.8643-.415zM56.0307 75.1053c0 1.6727-.4269 2.9683-1.2805 3.8864-.8412.9181-1.9836 1.3772-3.4272 1.3772-.8914 0-1.6886-.2012-2.3916-.6037-.6905-.4151-1.2366-1.0125-1.6383-1.7923-.4018-.7924-.6026-1.7482-.6026-2.8676 0-1.6728.4205-2.962 1.2617-3.8676.8411-.9055 1.9835-1.3583 3.4272-1.3583.9165 0 1.7199.2075 2.4104.6226.703.4025 1.2491.9936 1.6383 1.7734.4017.7672.6026 1.7105.6026 2.8299zm-7.6266 0c0 1.1949.2322 2.1444.6968 2.8487.477.6918 1.2302 1.0377 2.2597 1.0377 1.0169 0 1.7638-.3459 2.2409-1.0377.477-.7043.7156-1.6538.7156-2.8487s-.2386-2.1319-.7156-2.8111c-.4771-.6791-1.2303-1.0187-2.2597-1.0187-1.0295 0-1.7765.3396-2.2409 1.0187-.4646.6792-.6968 1.6162-.6968 2.8111zM63.5155 69.8794c1.2052 0 2.1154.2955 2.7306.8867.6151.5785.9227 1.5218.9227 2.8299v6.5842h-1.6383v-6.471c0-1.6225-.7534-2.4337-2.2599-2.4337-1.1172 0-1.8893.3144-2.3161.9433-.4269.6289-.6403 1.5344-.6403 2.7167v5.2447h-1.6571V70.0681h1.3369l.2449 1.3772h.0942c.3263-.5283.7783-.9181 1.3558-1.1697.5775-.2641 1.1864-.3962 1.8266-.3962zM73.6685 79.0106c.2512 0 .5085-.0189.7721-.0567.2637-.0502.4771-.1006.6403-.1509v1.264c-.1757.0881-.4268.1573-.7533.2076-.3263.0629-.6402.0943-.9415.0943-.5273 0-1.0169-.088-1.4689-.2641-.4393-.1887-.7971-.5094-1.0733-.9622-.2762-.4528-.4143-1.0879-.4143-1.9055V71.351h-1.4312v-.7924l1.45-.6603.6591-2.1507h.9792v2.3205h2.9189v1.2829h-2.9189v5.8484c0 .6163.1445 1.0754.4331 1.3772.3013.2893.6843.434 1.1487.434zM78.7592 70.0494c0 .5031-.0314.9747-.0942 1.4149h.113c.3265-.5157.7658-.9055 1.3182-1.1696.5649-.2642 1.1738-.3962 1.8266-.3962 1.2304 0 2.1531.2955 2.7682.8867.6151.5785.9227 1.5156.9227 2.811v6.5842h-1.6383v-6.471c0-1.6225-.7532-2.4337-2.2597-2.4337-1.1299 0-1.9083.3207-2.3351.9622-.4143.6288-.6214 1.5344-.6214 2.7167v5.2258h-1.6571V65.8423h1.6571v4.2071zM90.3999 80.1804h-1.6571V65.8423h1.6571v14.3381zM92.0159 70.0684h1.7701l2.1842 5.7541c.1883.503.3578.9873.5085 1.4527.1506.4527.2636.8867.3389 1.3017h.0753c.0754-.3144.195-.7232.3578-1.2263.1639-.5157.3334-1.0313.5085-1.547l2.0526-5.7352h1.7892l-4.3503 11.5082c-.3512.9559-.8097 1.7168-1.3746 2.2828-.5518.566-1.3182.849-2.2972.849-.3013 0-.565-.0189-.791-.0566-.2259-.0252-.4205-.0566-.5837-.0944v-1.3206c.1381.0252.3013.0503.4896.0755.2009.0252.4081.0377.6214.0377.5776 0 1.0421-.1635 1.3933-.4905.3644-.3271.6469-.761.8474-1.3018l.5273-1.3394-4.0673-10.1499zM112.891 69.8794c1.243 0 2.241.4339 2.994 1.3017.766.8679 1.149 2.176 1.149 3.9242 0 1.7231-.383 3.0311-1.149 3.9241-.753.893-1.758 1.3395-3.013 1.3395-.779 0-1.424-.1446-1.939-.4339-.502-.3019-.898-.6478-1.187-1.0377h-.113c.026.2139.05.4842.075.8113.026.327.038.61.038.8489v4.1506h-1.657v-14.64h1.356l.226 1.3772h.075c.301-.4403.697-.8113 1.187-1.1131.489-.3019 1.142-.4528 1.958-.4528zm-.301 1.3961c-1.029 0-1.758.2893-2.185.8678-.414.5785-.633 1.459-.659 2.6412v.3208c0 1.2451.201 2.2073.603 2.8865.414.6666 1.174.9999 2.278.9999.615 0 1.118-.1698 1.507-.5094.402-.3396.697-.7987.885-1.3772.2-.5912.301-1.2641.301-2.0187 0-1.1571-.226-2.0816-.678-2.7733-.439-.6917-1.123-1.0376-2.052-1.0376zM121.332 80.1804h-1.657V65.8423h1.657v14.3381zM128.352 69.8984c1.23 0 2.14.2705 2.731.8113.589.5408.885 1.4024.885 2.5846v6.8861h-1.205l-.32-1.4338h-.076c-.439.5534-.904.9621-1.393 1.2263-.478.2641-1.143.3962-1.996.3962-.917 0-1.676-.239-2.279-.7169-.603-.4906-.904-1.2515-.904-2.2828 0-1.0063.396-1.7798 1.187-2.3205.79-.5535 2.008-.8553 3.653-.9056l1.713-.0566v-.6037c0-.8427-.182-1.4275-.546-1.7546-.364-.327-.879-.4905-1.544-.4905-.527 0-1.03.0818-1.506.2453-.478.1509-.923.327-1.337.5282l-.509-1.2451c.439-.239.961-.4403 1.563-.6037.603-.1762 1.23-.2642 1.883-.2642zm.49 5.3957c-1.256.0503-2.128.2516-2.618.6037-.477.3522-.715.849-.715 1.4904 0 .566.169.9811.508 1.2452.351.2641.797.3962 1.337.3962.853 0 1.563-.2327 2.128-.6981.565-.4779.848-1.2074.848-2.1884v-.9056l-1.488.0566zM139.944 69.8794c1.205 0 2.115.2955 2.73.8867.615.5785.923 1.5218.923 2.8299v6.5842h-1.638v-6.471c0-1.6225-.753-2.4337-2.26-2.4337-1.118 0-1.89.3144-2.316.9433-.428.6289-.64 1.5344-.64 2.7167v5.2447h-1.658V70.0681h1.337l.245 1.3772h.094c.326-.5283.778-.9181 1.356-1.1697.577-.2641 1.187-.3962 1.827-.3962zM153.298 77.3881c0 .981-.364 1.7231-1.092 2.2261-.728.5032-1.707.7547-2.938.7547-.703 0-1.312-.0566-1.827-.1698-.501-.1132-.948-.2705-1.337-.4717v-1.5092c.402.2012.885.3898 1.45.5659.578.1635 1.161.2453 1.752.2453.841 0 1.45-.1321 1.826-.3962.377-.2767.565-.6414.565-1.0942 0-.2516-.068-.478-.207-.6792-.138-.2012-.389-.4025-.753-.6037-.351-.2012-.86-.4276-1.525-.6792-.653-.2516-1.212-.503-1.676-.7546-.465-.2516-.822-.5535-1.074-.9056-.251-.3521-.376-.8049-.376-1.3583 0-.8553.345-1.5156 1.035-1.981.704-.4653 1.62-.698 2.75-.698.614 0 1.186.0629 1.713.1887.54.1131 1.043.2766 1.507.4905l-.565 1.3206c-.427-.1761-.873-.3271-1.337-.4528-.464-.1257-.942-.1887-1.431-.1887-.678 0-1.199.1132-1.563.3396-.352.2139-.528.5094-.528.8867 0 .2767.082.5157.245.7169.163.1887.433.3774.81.566.389.1761.904.3899 1.544.6415.64.2389 1.186.4842 1.638.7357.452.2516.798.5597 1.036.9245.238.3521.358.7987.358 1.3395zM167.201 77.3881c0 .981-.364 1.7231-1.092 2.2261-.729.5032-1.708.7547-2.938.7547-.703 0-1.312-.0566-1.827-.1698-.502-.1132-.948-.2705-1.337-.4717v-1.5092c.402.2012.886.3898 1.45.5659.578.1635 1.161.2453 1.752.2453.841 0 1.45-.1321 1.826-.3962.377-.2767.565-.6414.565-1.0942 0-.2516-.069-.478-.207-.6792-.138-.2012-.39-.4025-.753-.6037-.352-.2012-.861-.4276-1.525-.6792-.654-.2516-1.212-.503-1.676-.7546-.465-.2516-.823-.5535-1.074-.9056-.251-.3521-.376-.8049-.376-1.3583 0-.8553.344-1.5156 1.035-1.981.703-.4653 1.62-.698 2.75-.698.615 0 1.186.0629 1.713.1887.54.1131 1.042.2766 1.507.4905l-.565 1.3206c-.428-.1761-.873-.3271-1.337-.4528-.465-.1257-.942-.1887-1.431-.1887-.678 0-1.2.1132-1.563.3396-.352.2139-.528.5094-.528.8867 0 .2767.081.5157.245.7169.163.1887.433.3774.81.566.389.1761.904.3899 1.544.6415.64.2389 1.187.4842 1.638.7357.452.2516.797.5597 1.036.9245.238.3521.358.7987.358 1.3395zM173.01 79.0106c.252 0 .509-.0189.773-.0567.263-.0502.477-.1006.64-.1509v1.264c-.176.0881-.427.1573-.753.2076-.327.0629-.641.0943-.942.0943-.527 0-1.017-.088-1.469-.2641-.44-.1887-.797-.5094-1.073-.9622-.276-.4528-.414-1.0879-.414-1.9055V71.351h-1.432v-.7924l1.45-.6603.659-2.1507h.98v2.3205h2.918v1.2829h-2.918v5.8484c0 .6163.144 1.0754.433 1.3772.301.2893.684.434 1.148.434zM180.267 69.8984c1.23 0 2.14.2705 2.731.8113.589.5408.885 1.4024.885 2.5846v6.8861h-1.206l-.32-1.4338h-.075c-.44.5534-.904.9621-1.394 1.2263-.477.2641-1.143.3962-1.996.3962-.917 0-1.676-.239-2.278-.7169-.603-.4906-.904-1.2515-.904-2.2828 0-1.0063.395-1.7798 1.186-2.3205.791-.5535 2.009-.8553 3.653-.9056l1.714-.0566v-.6037c0-.8427-.183-1.4275-.546-1.7546-.364-.327-.879-.4905-1.544-.4905-.527 0-1.03.0818-1.507.2453-.477.1509-.922.327-1.337.5282l-.508-1.2451c.439-.239.96-.4403 1.563-.6037.602-.1762 1.23-.2642 1.883-.2642zm.49 5.3957c-1.256.0503-2.128.2516-2.618.6037-.477.3522-.716.849-.716 1.4904 0 .566.17.9811.509 1.2452.351.2641.796.3962 1.337.3962.853 0 1.563-.2327 2.128-.6981.565-.4779.847-1.2074.847-2.1884v-.9056l-1.487.0566zM191.707 69.8794c.188 0 .39.0125.603.0377.226.0126.42.0378.583.0755l-.207 1.5281c-.163-.0377-.344-.0691-.546-.0943-.188-.0252-.37-.0377-.546-.0377-.514 0-.998.1446-1.45.4339-.452.2767-.815.6728-1.092 1.1885-.264.5031-.396 1.0943-.396 1.7734v5.3957h-1.657V70.0681h1.356l.188 1.8488h.076c.326-.5534.747-1.0313 1.261-1.4338.515-.4025 1.125-.6037 1.827-.6037zM198.149 79.0106c.252 0 .509-.0189.772-.0567.264-.0502.478-.1006.64-.1509v1.264c-.176.0881-.426.1573-.753.2076-.327.0629-.64.0943-.941.0943-.528 0-1.017-.088-1.469-.2641-.44-.1887-.798-.5094-1.074-.9622-.275-.4528-.414-1.0879-.414-1.9055V71.351h-1.431v-.7924l1.45-.6603.659-2.1507h.979v2.3205h2.919v1.2829h-2.919v5.8484c0 .6163.144 1.0754.433 1.3772.302.2893.685.434 1.149.434zM202.43 66.2764c.251 0 .471.088.659.2641.201.1635.302.4276.302.7924 0 .3521-.101.6162-.302.7923-.188.1761-.408.2642-.659.2642-.276 0-.508-.0881-.696-.2642-.189-.1761-.283-.4402-.283-.7923 0-.3648.094-.6289.283-.7924.188-.1761.42-.2641.696-.2641zm.81 3.792v10.1122h-1.657V70.0684h1.657zM211.296 69.8794c1.205 0 2.116.2955 2.731.8867.614.5785.922 1.5218.922 2.8299v6.5842h-1.638v-6.471c0-1.6225-.753-2.4337-2.26-2.4337-1.117 0-1.889.3144-2.316.9433-.427.6289-.64 1.5344-.64 2.7167v5.2447h-1.657V70.0681h1.337l.244 1.3772h.095c.326-.5283.778-.9181 1.355-1.1697.578-.2641 1.187-.3962 1.827-.3962zM221.656 69.8794c.666 0 1.262.1257 1.789.3773.54.2516.998.6351 1.375 1.1508h.094l.226-1.3394h1.318V80.35c0 1.4464-.37 2.5344-1.111 3.2638-.728.7295-1.864 1.0943-3.409 1.0943-1.481 0-2.692-.2139-3.634-.6415v-1.5281c.992.5282 2.235.7923 3.729.7923.866 0 1.544-.2578 2.033-.7735.503-.503.754-1.1948.754-2.0752v-.3962c0-.1509.006-.3648.018-.6415.014-.2893.026-.4905.038-.6037h-.075c-.678 1.0188-1.719 1.5282-3.126 1.5282-1.305 0-2.329-.4591-3.07-1.3772-.727-.9182-1.092-2.201-1.092-3.8487 0-1.6099.365-2.8865 1.092-3.8298.741-.9558 1.758-1.4338 3.051-1.4338zm.226 1.3961c-.841 0-1.493.3396-1.958 1.0187-.465.6667-.697 1.6225-.697 2.8677 0 1.2451.226 2.201.678 2.8676.465.654 1.136.981 2.015.981 1.017 0 1.758-.2703 2.222-.8112.465-.5533.696-1.4401.696-2.6601v-.3962c0-1.3835-.238-2.3708-.715-2.962-.477-.6037-1.224-.9055-2.241-.9055zM238.378 69.8984c1.231 0 2.141.2705 2.731.8113.59.5408.885 1.4024.885 2.5846v6.8861h-1.205l-.321-1.4338h-.075c-.439.5534-.904.9621-1.393 1.2263-.477.2641-1.142.3962-1.996.3962-.917 0-1.676-.239-2.279-.7169-.603-.4906-.904-1.2515-.904-2.2828 0-1.0063.395-1.7798 1.186-2.3205.791-.5535 2.01-.8553 3.654-.9056l1.713-.0566v-.6037c0-.8427-.181-1.4275-.546-1.7546-.363-.327-.878-.4905-1.544-.4905-.527 0-1.029.0818-1.506.2453-.477.1509-.923.327-1.337.5282l-.509-1.2451c.44-.239.96-.4403 1.563-.6037.603-.1762 1.231-.2642 1.883-.2642zm.49 5.3957c-1.255.0503-2.128.2516-2.618.6037-.476.3522-.715.849-.715 1.4904 0 .566.169.9811.508 1.2452.352.2641.798.3962 1.337.3962.854 0 1.563-.2327 2.128-.6981.565-.4779.847-1.2074.847-2.1884v-.9056l-1.487.0566zM248.482 79.0106c.251 0 .508-.0189.772-.0567.264-.0502.477-.1006.64-.1509v1.264c-.175.0881-.426.1573-.753.2076-.326.0629-.64.0943-.941.0943-.528 0-1.017-.088-1.469-.2641-.439-.1887-.797-.5094-1.074-.9622-.276-.4528-.414-1.0879-.414-1.9055V71.351h-1.431v-.7924l1.45-.6603.659-2.1507h.979v2.3205h2.919v1.2829H246.9v5.8484c0 .6163.145 1.0754.433 1.3772.302.2893.685.434 1.149.434zM251.671 71.0871c0-.478.113-.8112.339-.9999.226-.1887.495-.283.81-.283.325 0 .602.0943.828.283.239.1887.358.5219.358.9999 0 .4528-.119.7798-.358.981-.226.2012-.503.3019-.828.3019-.315 0-.584-.1007-.81-.3019-.226-.2012-.339-.5282-.339-.981zm0 8.0746c0-.4653.113-.7923.339-.981.226-.1887.495-.283.81-.283.325 0 .602.0943.828.283.239.1887.358.5157.358.981 0 .4528-.119.7798-.358.9811-.226.2012-.503.3018-.828.3018-.315 0-.584-.1006-.81-.3018-.226-.2013-.339-.5283-.339-.9811z" fill="#163A24"/><path d="M165.714 7.95376C82.8571 7.18884-2.91876 23.3955 2.35397 107.538c2.98168 25.311 37.56843 75.464 152.06203 73.577 56.022 0 131.629-34.336 128.993-101.8761-2.981-27.3557 4.425-83.38454-153.003-77.35037-5.65.21656-50.3736 3.77294-64.4969 9.43287-35.7793 9.9047-91.802 52.3531-43.7822 110.3656 14.0546 16.98 46.9838 48.958 152.0611 44.807 40.331-1.572 165.715-56.598 89.448-127.817C235.86 12.7392 165.714-9.43301 34.3669 26.5345" stroke="#FBC8B8" stroke-width="3"/></g><defs><clipPath id="clip0"><path fill="#fff" d="M0 0h290v183H0z"/></clipPath></defs></svg>