<svg width="25" height="25" fill="none" xmlns="http://www.w3.org/2000/svg"><path d="M21.3379 0H3.66211C1.64299 0 0 1.64299 0 3.66211V21.3379C0 23.357 1.64299 25 3.66211 25H21.3379C23.357 25 25 23.357 25 21.3379V3.66211C25 1.64299 23.357 0 21.3379 0zm-8.7891 19.043c-3.63481 0-6.59177-2.957-6.59177-6.5918 0-3.63486 2.95696-6.59182 6.59177-6.59182 3.6349 0 6.5918 2.95696 6.5918 6.59182 0 3.6348-2.9569 6.5918-6.5918 6.5918zM19.873 7.32422c-1.2115 0-2.1972-.98572-2.1972-2.19727 0-1.21154.9857-2.19726 2.1972-2.19726 1.2116 0 2.1973.98572 2.1973 2.19726 0 1.21155-.9857 2.19727-2.1973 2.19727z" fill="#198C36"/></svg>