<svg width="153" height="58" fill="none" xmlns="http://www.w3.org/2000/svg"><path d="M12.2446 28.3687c0-8.2943 5.3758-14.4249 13.3797-14.4249 6.3314 0 11.4683 3.8467 11.4683 7.6933 0 1.6228-1.0752 2.7047-2.8671 2.7047-4.3603 0-4.1811-7.9337-9.9153-7.9337-3.2254 0-6.1522 3.1855-6.1522 8.2943 0 8.0539 4.7187 13.343 9.6166 13.343 4.0617 0 6.3912-2.9451 7.6455-5.1088.6571-.8415 2.0906-.601 1.9114.6611-.4181 5.1088-4.1214 9.9171-11.3488 9.9171-7.6455 0-13.7381-7.3326-13.7381-15.1461zM39.3027 42.4332v-.1803c0-1.0218 1.553-1.3223 1.553-3.0653V19.2332c0-1.8031-1.553-2.2238-1.553-3.0653v-.1803c0-.4207.2987-.601.7765-.8414l5.0771-2.5244c1.0752-.5409 1.6725.0601 1.6725.7213v25.7844c0 1.6829 1.7322 2.0435 1.7322 3.0653v.1803c0 .4207-.4181.7213-.9557.7213h-7.3469c-.5973 0-.9557-.2405-.9557-.6612zM68.5706 37.3846c-.2389 2.3441-2.9865 6.1306-8.1831 6.1306-5.6147 0-9.7361-4.087-9.7361-10.3378-.1194-5.3492 4.0617-9.857 9.4375-9.9772h.2986c5.2563 0 7.6455 3.0653 7.6455 5.7699.0598 1.2021-.657 2.284-1.7919 2.7047l-8.9596 4.0871c.896 2.1637 2.9866 3.5461 5.3161 3.5461 1.8516.0601 3.5838-.8415 4.5992-2.3441.4779-.601 1.3738-.4207 1.3738.4207zm-12.3642-6.972c0 1.2021.1194 2.3441.4181 3.486l5.1966-2.6445c.7167-.3606 1.1348-1.142 1.0751-1.9233 0-1.4425-1.0751-4.3275-3.2255-4.3275-2.1503 0-3.4643 2.344-3.4643 5.4093zM86.6094 26.9262c0 1.6829-.6571 3.1855-2.5685 3.1855-3.1657 0-1.7321-3.486-3.9422-3.486-1.553 0-2.1503 2.2238-2.1503 4.4476v8.114c0 1.6829 2.0309 2.0436 2.0309 3.0653v.1803c0 .4808-.3584.7213-.896.7213h-7.4066c-.5973 0-.9557-.2405-.9557-.7213v-.1803c0-1.0217 1.553-1.3223 1.553-3.0653v-9.4362c0-1.8032-1.8516-1.9234-1.8516-2.9451v-.1803c0-.4208.2986-.7213.8362-.9617l4.8382-2.2839c.8959-.4208 1.3141.0601 1.3141.8414v3.0653c.8959-2.5844 2.8073-4.0269 5.4952-4.0269 1.9113-.1202 3.5838 1.3823 3.7033 3.3057v.3606zM110.263 42.313v.1202c0 .4808-.299.7212-.836.7212h-7.526c-.418.0601-.777-.2404-.777-.6611v-.1202c0-1.0218 1.493-1.2622.836-2.2239l-4.36-6.1906-2.3892 2.2238v3.0653c0 1.6829 1.7322 2.0435 1.7322 3.0653v.1803c0 .4207-.3584.7212-.9557.7212h-7.4066c-.5376 0-.896-.3005-.896-.7212v-.1803c0-1.0218 1.553-1.3223 1.553-3.0653V19.2332c0-1.8031-1.7919-2.2239-1.7919-3.0653v-.1803c0-.4208.2987-.6011.8362-.8415l5.3758-2.5243c.9557-.4809 1.6127.0601 1.6127.7212v19.714l6.3915-5.5295c1.194-1.0218-.956-2.0436-.956-3.0052v-.1803c0-.4207.299-.7213.836-.7213h5.734c.478 0 .837.2405.837.6612v.1803c0 1.0217-1.971 1.6829-3.465 3.0052l-3.285 3.0653 6.75 9.5564c.657.9016 2.15 1.2622 2.15 2.2239zM110.263 38.767c0-1.5627 1.075-2.2238 2.389-2.2238 3.524 0 2.15 5.3492 6.212 5.3492 1.672 0 2.927-.8414 2.927-2.7046 0-5.4094-11.23-2.0436-11.23-10.0373 0-3.426 3.345-5.9503 8.183-5.9503 5.078 0 8.303 2.344 8.303 4.8684-.06 1.2021-1.075 2.1637-2.21 2.1036-3.345 0-2.15-5.2891-5.674-5.2891-1.434-.0601-2.629 1.0819-2.629 2.5243v.1804c0 5.5295 10.991 2.2839 10.991 10.0373 0 3.3057-3.226 5.83-8.601 5.83-5.257 0-8.661-2.1637-8.661-4.6881z" fill="#FBFAF7"/><path d="M150.342 24.2821v.1803c0 1.0218-1.254 1.3824-2.031 3.1855l-7.645 16.7088c-1.314 2.885-4.659 10.0373-8.84 10.0373-3.644 0-5.914-2.2238-5.914-4.3275-.059-1.2621.896-2.344 2.151-2.4041h.298c3.285 0 2.27 4.8684 4.361 4.8684 1.433 0 4.3-5.4695 5.435-8.2342l-8.064-16.6487c-.895-1.8031-2.15-2.1637-2.15-3.1855v-.1803c0-.4207.359-.6612.836-.6612h7.526c.359-.0601.717.2405.777.6612v.2404c0 1.0218-1.493 1.142-.597 3.2456l4.718 10.999 4.361-10.398c1.075-2.5243-1.792-2.8248-1.792-3.7865v-.1803c0-.4207.298-.7213.836-.7213h4.898c.478-.0601.836.2405.836.6011z" fill="#FBFAF7"/><path d="M6.33156 25.6642c.05974.0601 0 .1803-.05973.2404-.05973.0601-.17919 0-.23892-.0601-1.19461-1.6829-3.52411-5.83-3.34491-12.7419 0-2.0436.41811-4.08709 1.19461-6.01041.65704-1.56269 2.44895-4.14715 4.4798-3.3057 2.03079.84145-.7765 3.96684-1.37381 4.86839C3.52422 13.8839 4.36045 20.0746 6.33156 25.6642z" fill="#FDBC4E"/><path d="M7.46655 22.4789c0 .0601-.05973.0601-.11946.0601s-.05973-.0601-.05973-.0601c-.23892-2.4643-.35839-7.8736 1.91138-12.62181 1.07516-2.34404 2.74756-4.38756 4.83816-5.89015.7765-.54093 1.6725-.84145 2.6282-.84145 1.1349.12021 2.0308 1.14197 1.4932 2.28394-.8362 1.743-3.106 1.98342-4.5395 3.06528-1.8516 1.38239-3.1657 3.48599-4.06168 5.58959-1.07515 2.6446-1.79192 5.5296-2.09057 8.4146z" fill="#FDBC4E"/><path d="M9.73633 21.2165c0-.4808.05973-.9616.17919-1.3824.47788-1.6829 1.13488-3.3057 2.03088-4.8083 2.3892-4.0269 5.8536-7.57302 10.4528-8.65488 1.3738-.36062 5.8536-.36062 4.4201 2.28394-.9557 1.68294-3.7033.96165-5.2563 1.26217-2.9865.60107-5.3758 2.46427-7.4663 4.56787-2.2698 2.344-4.24091 6.7917-4.36037 6.7316z" fill="#FDBC4E"/></svg>