<svg width="82" height="75" fill="none" xmlns="http://www.w3.org/2000/svg"><path d="M26.24 3.0462c-5.822 2.55214-10.988 6.66849-14.104 11.6904-7.79002 12.5961-7.70802 31.696 5.494 40.6696 15.99 10.8672 44.28 5.3513 46.166-16.877 1.886-22.393-13.53-45.85622-37.556-35.483z" fill="#F7BC28"/><path d="M28.946 9.55002C24.6 11.4435 20.828 14.4896 18.532 18.1944c-5.822 9.3853-5.74 23.5455 4.1 30.214 11.89 8.0681 32.882 3.9517 34.276-12.5137C58.22 19.3469 46.822 1.8936 28.946 9.55002z" fill="#FBFAF7"/><path d="M48.708 52.6893c4.018 5.1043 6.478 7.5741 10.25 10.7025 2.706 2.2228 5.412 4.4457 8.036 6.6685 2.214 1.8112 4.838 3.7871 7.626 3.2931 2.952-.494 5.002-3.9517 4.018-6.8332-.328-.9879-.984-1.8935-1.722-2.7168-5.084-6.5038-10.988-12.349-17.548-17.4533l-10.66 6.3392z" fill="#F7BC28"/><path d="M63.14 66.7672l9.43-8.3151 1.804 2.0582-9.184 7.9034-2.05-1.6465zM66.4199 69.5664l8.938-7.7388 1.558 1.9759-8.61 7.3271-1.886-1.5642z" fill="#E48929"/></svg>