<svg width="117" height="145" fill="none" xmlns="http://www.w3.org/2000/svg"><g clip-path="url(#clip0)"><path d="M109.938 3.58035c7.912 4.71225 6.428 18.11195 6.831 35.40755.231 9.6615.274 13.8736.188 22.7452-.073 6.7393.533 18.5856-1.514 24.2457-2.09 5.7652-7.768 7.1604-11.357 8.503-4.5252 1.6848-9.1084 2.843-13.7204 3.2907-2.7239.2632-5.4478.5264-8.1574.9476-1.5998.2634-4.2228-.0263-5.6497 1.6059-1.7294 2.001-2.9257 11.136-4.9434 16.164-1.8016 4.475-4.1508 8.687-6.8891 11.162-.7639.684-1.5998 1.263-2.4502 1.026-2.6663-.684-2.4645-8.95-2.4789-12.531-.0144-3 .0721-6.186.4036-9.213.3314-3.028-1.0377-5.766-2.724-5.502l-6.5 1.026c-12.4667.369-15.378-.473-26.6053-4.5802-4.5687-1.6586-7.1918-7.7397-7.4368-16.4798-.3171-11.4251-.0433-23.0082-.0721-34.4335-.0144-9.3454-.8215-19.902 1.9313-28.3261 2.8969-8.87159 9.1375-11.55677 14.7295-13.08364C47.5896 1.84289 61.757.184383 75.9821.0001058c0 0 27.2679-.3948798 33.9559 3.5802442z" fill="#F7BC28"/><path d="M39.0286 44.095c19.0964.8952 38.2794.158 57.3326-2.3428 2.7528-.3687 2.7816-8.2663 0-7.8976-19.0532 2.5008-38.2362 3.238-57.3326 2.343-2.7816-.1318-2.7816 7.7658 0 7.8974zM35.7571 66.3138c12.3515 0 24.7029-1.0531 37.0544-1.3163 9.5554-.1843 19.0676.6582 28.5945-.8424 2.752-.4212 2.781-8.3189 0-7.8976-9.5269 1.4743-19.0391.6318-28.5945.8424-12.3515.2632-24.7029 1.3163-37.0544 1.3163-2.7816 0-2.796 7.8976 0 7.8976z" fill="#fff"/><path d="M16.214 136.839c.1441-1.579-.418-3.132-1.2827-3.448-5.30382-1.922-10.26169-6.503-13.37477-15.006-5.3326-14.584 4.22284-29.4842 11.02547-34.3806 6.9901-5.0283 15.3204-4.449 21.7916 2.5799.418.4475.8071.9213 1.1962 1.4478 4.6552 6.1864 8.5466 18.3749 7.3071 28.5629-.4612 3.765-1.5997 7.24-3.6751 10.056-3.8626 5.265-9.1087 7.213-14.1098 7.714-.9656.105-1.8736.842-2.5078 2.158-1.0521 2.159-2.8104 5.555-4.4246 7.898-1.0665 1.553-2.623-.184-2.3924-2.632l.4468-4.95z" fill="#39B55D"/><path d="M12.7691 104.617h18.8947c2.3204 0 2.3204-6.5814 0-6.5814H12.7691c-2.3204 0-2.3204 6.5814 0 6.5814zM11.8467 118.622h19.5865c2.3204 0 2.3204-6.581 0-6.581H11.8467c-2.32034 0-2.32034 6.581 0 6.581z" fill="#fff"/></g><defs><clipPath id="clip0"><path fill="#fff" d="M0 0h117v145H0z"/></clipPath></defs></svg>