<svg width="62" height="75" fill="none" xmlns="http://www.w3.org/2000/svg"><g clip-path="url(#clip0)"><path d="M4.60606 13.9125C1.95347 15.4449.263427 18.2487.140311 21.342-.279402 31.8026-.67673 53.9098 13.7782 65.1308l12.3899 8.3605c2.8261 1.907 6.4804 2.0036 9.4128.261 3.8333-2.2759 8.9651-5.7041 11.931-9.2628.1344-.1646.2742-.3179.4197-.4711 1.8803-1.9355 16.0386-17.419 13.8394-42.9488-.2519-2.923-1.8915-5.5453-4.3987-7.0153L35.4354 1.21c-2.731-1.600574-6.0943-1.611925-8.8308-.0227L4.60606 13.9125z" fill="#F7BC28"/><path d="M11.4217 19.7631c-1.96419 1.1351-3.21777 3.2181-3.31289 5.5111-.3134 7.7589-.6044 24.1506 10.11229 32.477l9.1889 6.2036c2.0985 1.4133 4.8071 1.487 6.9784.193 2.8429-1.6857 6.6483-4.2285 8.8476-6.8678.1007-.1191.2014-.2383.3133-.3462 1.3935-1.4359 11.8528-13.0316 10.2635-31.8525-.1008-1.2203-3.0891-4.8699-4.1076-5.6985l-15.4175-9.0416c-2.0258-1.18622-4.5161-1.1919-6.5475-.017l-16.3185 9.4389z" fill="#E48929"/><path d="M30.9973 9.44433V37.4998h22.1664s1.5782-7.8269.6548-12.4187c0 0-.2574-3.1557-4.1076-5.6985l-15.423-9.0415s-1.567-.95353-3.2906-.89677zM30.9973 37.4999l-.0056 27.5616s-1.7796.1022-4.0125-1.4075l-7.387-4.9834s-6.262-3.7857-8.299-10.0519c0 0-2.5687-5.7609-2.92124-11.6353l22.62534.5165z" fill="#FBFAF7"/></g><defs><clipPath id="clip0"><path fill="#fff" d="M0 0h62v75H0z"/></clipPath></defs></svg>