<svg width="66" height="145" fill="none" xmlns="http://www.w3.org/2000/svg"><g clip-path="url(#clip0)"><path d="M56.7665 145H9.23355C4.13276 145 0 137.464 0 128.163V25.6417C0 16.3402 4.13276 8.80396 9.23355 8.80396H56.7665C61.8672 8.80396 66 16.3402 66 25.6417V128.163C66 137.464 61.8672 145 56.7665 145z" fill="#F7BC28"/><path d="M55.5254 53.2296H10.4746c-2.14706 0-3.89696-3.1911-3.89696-7.1063v-19.78c0-3.9152 1.7499-7.1062 3.89696-7.1062h45.0508c2.147 0 3.8969 3.191 3.8969 7.1062v19.78c0 3.9152-1.7499 7.1063-3.8969 7.1063zM55.5254 92.45H10.4747c-1.812 0-3.27646-2.6706-3.27646-5.9748V66.6954c0-3.3042 1.46446-5.9747 3.27646-5.9747h45.0507c1.812 0 3.2765 2.6705 3.2765 5.9747v19.7798c0 3.3042-1.4645 5.9748-3.2765 5.9748zM55.5254 133.933H10.4746c-2.14706 0-3.89696-3.191-3.89696-7.106v-19.78c0-3.915 1.7499-7.1061 3.89696-7.1061h45.0508c2.147 0 3.8969 3.1911 3.8969 7.1061v19.78c0 3.915-1.7499 7.106-3.8969 7.106z" fill="#E48929"/><path d="M33.3476 82.6051c1.8233 0 3.3013-2.6952 3.3013-6.0199 0-3.3248-1.478-6.02-3.3013-6.02-1.8232 0-3.3012 2.6952-3.3012 6.02 0 3.3247 1.478 6.0199 3.3012 6.0199zM33.3476 122.957c1.8233 0 3.3013-2.695 3.3013-6.02 0-3.325-1.478-6.02-3.3013-6.02-1.8232 0-3.3012 2.695-3.3012 6.02 0 3.325 1.478 6.02 3.3012 6.02z" fill="#F7BC28"/><path d="M10.2635 10.6369c1.6382 16.521 2.6807 33.6758 4.4182 50.0836h32.7518c-2.6807-28.7421-4.0707-39.1072-5.6097-57.55197-.1737-1.99158-1.179-3.39473-2.2711-3.1457826L12.0134 6.26904c-1.1666.27157-1.9609 2.26315-1.7499 4.36786z" fill="#FBFAF7"/><path d="M18.5415 24.691c6.1929.3848 12.3735-.1131 18.5292-1.4937.9804-.2264.9928-3.0553 0-2.8289-6.1433 1.3805-12.3363 1.8784-18.5292 1.4936-.9928-.0453-.9928 2.7837 0 2.829zM19.7827 36.0069c6.193.3846 12.3735-.1133 18.5292-1.4937.9804-.2264.9928-3.0553 0-2.8289-6.1433 1.3804-12.3362 1.8783-18.5292 1.4937-.9928-.0454-.9928 2.7836 0 2.8289zM21.0234 47.3228c6.193.3848 12.3735-.1131 18.5292-1.4937.9804-.2262.9929-3.0551 0-2.8289-6.1433 1.3805-12.3362 1.8784-18.5292 1.4936-.9928-.0451-.9928 2.7839 0 2.829z" fill="#194429"/></g><defs><clipPath id="clip0"><path fill="#fff" d="M0 0h66v145H0z"/></clipPath></defs></svg>