<svg width="79" height="160" fill="none" xmlns="http://www.w3.org/2000/svg"><g clip-path="url(#clip0)"><path d="M5.86874 30.9088C2.48883 34.1349.335389 40.0377.178515 46.5497-.35628 68.5716-.862553 115.112 17.5558 138.735l15.7872 17.601c3.6009 4.015 8.2572 4.218 11.9937.55 4.8844-4.792 11.4232-12.009 15.2024-19.501.1712-.347.3494-.669.5348-.992 2.3959-4.074 20.4363-36.6707 17.634-90.4168-.3209-6.1535-2.4101-11.6741-5.6047-14.7688L45.1513 4.16719C41.6715.797615 37.386.773715 33.8992 4.11939L5.86874 30.9088z" fill="#F7BC28"/><path d="M14.5535 43.2267c-2.5028 2.3897-4.1001 6.7749-4.2213 11.6023-.39934 16.334-.77013 50.842 12.885 68.371l11.7085 13.06c2.6739 2.976 6.1251 3.131 8.8918.407 3.6224-3.549 8.4712-8.902 11.2735-14.458.1284-.251.2567-.502.3993-.729 1.7755-3.023 15.1027-27.4348 13.0776-67.0572-.1284-2.5691-3.9361-10.2521-5.2339-11.9968L43.6892 23.3915c-2.5813-2.4973-5.7544-2.5093-8.3428-.0358l-20.7929 19.871z" fill="#E48929"/><path d="M39.4966 21.5037v59.0632h28.2443s2.0109-16.4775.8343-26.1442c0 0-.328-6.6435-5.2339-11.9966L43.6894 23.3917s-1.9966-2.0075-4.1928-1.888zM39.4965 80.5668l-.0071 58.0242s-2.2675.215-5.1127-2.964l-9.4124-10.491s-7.9791-7.97-10.5746-21.161c0 0-3.273-12.1283-3.7222-24.4955l28.829 1.0873z" fill="#FBFAF7"/></g><defs><clipPath id="clip0"><path fill="#fff" d="M0 0h79v160H0z"/></clipPath></defs></svg>