<svg width="83" height="75" fill="none" xmlns="http://www.w3.org/2000/svg"><g clip-path="url(#clip0)"><path d="M35.923 25.6696C38.2813 22.5801 41.7996.559416 48.1225 6.57315 52.24 10.4763 54.7003 21.4104 58.2314 25.5552c4.3088 5.0474 25.916-.0636 24.705 8.0225-.8414 5.6069-12.9644 9.1414-16.1386 13.6294-6.1061 8.6201 4.2832 14.4941 3.6331 22.9108-.6884 8.8234-14.3028-.0382-18.4458-2.4793-3.4164-2.0089-5.4816-4.0177-9.4333-2.9496-6.8583 1.8434-10.3894 9.3829-17.6555 10.2856-7.3427.9154.1912-14.939 1.2238-17.3674.8795-2.0596 4.6018-7.5521 4.0537-9.8406-.9943-4.1575-9.3567-5.4544-12.8114-6.5605-5.8512-1.8562-9.33127-8.1623-2.6897-9.2304 7.8143-1.2714 17.4132-1.2841 21.2503-6.3061z" fill="#F7BC28"/><path d="M40.9329 33.0312c1.3003-1.7037 3.238-13.7947 6.7053-10.4891 2.2563 2.1487 3.6203 8.1497 5.558 10.4255 2.3711 2.7717 14.2391-.0381 13.5762 4.4118-.4588 3.0768-7.1259 5.0221-8.8723 7.4885-3.3526 4.7297 2.3583 7.959 2.0014 12.5869-.3824 4.8441-7.8526-.0255-10.1344-1.3604-1.874-1.1061-3.0084-2.2122-5.1883-1.6274-3.7606 1.0171-5.711 5.1619-9.701 5.6578-4.0283.4958.102-8.2006.6756-9.5483.4845-1.1315 2.5241-4.1448 2.2181-5.4034-.5481-2.2885-5.15-3.0005-7.0367-3.5981-3.2124-1.0171-5.1245-4.488-1.4787-5.0729 4.296-.7119 9.5607-.7119 11.6768-3.4709z" fill="#E48929"/><path d="M70.3544 8.18795c.1274-2.59366.6756-5.1746 1.6317-7.60298.1147-.292423.3442-.6484153.6628-.5848452.2295.0508561.3442.3051362.408.5212742.5354 1.589251.8795 3.229361 1.0198 4.907611.0255.22885.051.48314.2167.6357.2677.24157.7011.089 1.0198-.07628 1.5425-.80099 3.0977-1.61469 4.6401-2.41567.0765 1.98339-2.167 3.16579-3.1613 4.88222-.153.26697-.2805.55939-.2168.86453.051.27969.2678.48311.4589.68659 1.4023 1.4239 2.8046 2.8479 4.2195 4.2846-2.1161.2288-4.3215-.4069-5.9914-1.7291 0 2.4792-.2677 4.9712-.8158 7.3996-1.1856-1.8436-2.0651-3.8905-2.5623-6.0138-1.2365.89-2.4858 1.7672-3.7224 2.6572.6375-1.3349 1.2749-2.6699 1.9123-3.9922.0764-.1779.1656-.3559.1529-.5466-.0255-.3052-.2932-.5213-.5481-.6994-1.3768-.9026-4.1431-1.60195-4.4873-3.4073 1.4151-.58484 3.6459-.05086 5.1629.22885zM4.42343 57.6072c.051-1.9706.47167-3.9414 1.23653-5.7595.07648-.1907.21671-.4195.42067-.3941.19121.0127.28045.2289.34419.4069.39518 1.2078.66288 2.4538.79035 3.7125.0255.1907.051.3941.17847.5212.2677.2416.67563.0128.95608-.2034.9943-.7502 2.11608-1.3095 3.30158-1.6655-.1656 1.513-1.81012 2.3902-2.52401 3.7379-.07648.1399-.14017.2924-.11468.4577.0255.178.16567.3305.29322.4577 1.08347 1.068 2.16707 2.1487 3.23787 3.2294-1.5552.4323-3.14869-.4451-4.52543-1.2841.03825 1.8816-.14021 3.7633-.56089 5.5941-.89233-1.424-1.54247-2.9877-1.91215-4.6279-.90508.712-1.81016 1.4367-2.71525 2.1487.14023-.9536.5609-1.8563 1.18553-2.581.19122-.2161.42068-.4577.39518-.7501-.0255-.2924-.2932-.5085-.5354-.6738C2.58777 59.0693 1.28752 58.1921 0 57.3148c.2677-.3306.803102-.4069 1.16004-.1653l3.26339.4577z" fill="#FBC8B8"/></g><defs><clipPath id="clip0"><path fill="#fff" d="M0 0h83v75H0z"/></clipPath></defs></svg>