<svg width="75" height="36" fill="none" xmlns="http://www.w3.org/2000/svg"><path d="M5.50551 27.9333C11.355 23.0542 18.4336 19.844 25.9678 18.6872c7.9363-1.2187 16.9293-1.1613 24.0611.5607 4.8856 1.1834 5.5797 1.3998 6.8045 2.1548-2.109 2.5875-9.0196 6.9678-8.6261 12.2797.084 1.1657 1.437 1.7706 2.3698 1.0686 5.8893-4.4377 18.141-11.7101 23.3229-16.2581.5438-.477 1.1363-1.0598 1.1009-1.7839-.031-.7021-.6366-1.2188-1.1938-1.647C66.7461 9.67059 59.3315 4.73841 51.6339.305189c-1.0568-.609347-2.4628-.2825957-3.0375.794801-.504.93609.0354 1.66025.5437 2.30493 2.4053 3.05114 4.8105 6.10229 7.2158 9.15788-12.3623-5.21479-26.8069-4.98959-39.169.1368-6.9372 2.8746-12.70273 8.0541-16.08509 14.7436-1.812767 3.5943-2.024993 5.8507 4.4037.4901z" fill="#FBC8B8"/></svg>