<svg width="75" height="36" fill="none" xmlns="http://www.w3.org/2000/svg"><path d="M5.50588 7.73386C11.3554 12.6712 18.434 15.9195 25.9681 17.0901c7.9364 1.2332 16.9294 1.1751 24.0612-.5674 4.8856-1.1975 5.5797-1.4164 6.8044-2.1805-2.1089-2.6183-9.0196-7.0507-8.6261-12.42584.084-1.179592 1.437-1.791725 2.3699-1.081292C56.4668 5.32553 68.7185 12.6846 73.9004 17.2867c.5437.4826 1.1362 1.0723 1.1009 1.8051-.031.7105-.6367 1.2332-1.1938 1.6666-7.061 5.4556-14.4756 10.4466-22.1732 14.9325-1.0568.6166-2.4628.2859-3.0376-.8043-.5041-.9472.0354-1.6799.5438-2.3323 2.4052-3.0875 4.8105-6.1749 7.2157-9.2669-12.3622 5.2769-26.8068 5.049-39.1691-.1385C10.25 20.2401 4.48454 14.999 1.10218 8.22981c-1.812771-3.63705-2.024997-5.92026 4.4037-.49595z" fill="#FBC8B8"/></svg>